<?xml version="1.0" encoding="utf-8"?>
<!-- Generator: Adobe Illustrator 27.5.0, SVG Export Plug-In . SVG Version: 6.00 Build 0)  -->
<svg version="1.1" xmlns="http://www.w3.org/2000/svg" xmlns:xlink="http://www.w3.org/1999/xlink" x="0px" y="0px"
	 viewBox="0 0 1100 800" style="enable-background:new 0 0 1100 800;" xml:space="preserve">
<g id="background">
	<rect style="fill:#FFFFFF;" width="1100" height="800"/>
</g>
<g id="shadow">
	<path style="fill:#F8EEEE;" d="M328.792,623.383c-16.602,0.264-33.204,0.465-49.799,0.515
		c-29.576,0.089-68.342-4.306-90.418,12.427c-11.115,8.425-7.457,25.227,10.174,28.206c4.99,0.843,10.361,0.751,15.042,2.185
		c4.681,1.435,8.39,5.343,5.792,8.327c-1.328,1.525-3.884,2.343-6.335,2.984c-15.499,4.053-32.678,4.567-48.098,8.756
		c-36.637,9.952-30.312,29.955,2.995,36.411c29.952,5.806,63.262,5.003,94.143,5.396c180.731,2.3,361.95,5.033,541.679-2.723
		c38.761-1.673,77.298-3.785,115.892-5.754c17.663-0.9,39.769-3.248,39.839-8.509c0.049-3.664-11.612-6.395-23.105-7.825
		c-20.128-2.504-46.405-4.683-42.601-12.875c1.388-2.988,7.939-5.73,17.04-7.131c7.029-1.082,15.114-1.368,22.734-2.019
		c7.62-0.651,15.433-1.848,18.637-3.979c8.628-5.74-13.1-9.156-28.395-9.68c-18.319-0.627-33.254-4.662-26.939-10.749
		c4.399-4.24,18.716-7.108,23.07-11.352c1.751-1.707,1.748-3.543,0.585-5.292c-11.627-17.479-72.368-15.98-95.005-17.289
		c-41.878-2.421-83.944-2.883-125.954-3.1c-95.297-0.492-190.598,0.329-285.875,1.605
		C385.534,622.295,357.161,622.931,328.792,623.383z"/>
</g>
<g id="object">
	<g>
		<polygon style="fill:#D67086;" points="303.36,334.322 315.526,340.095 345.309,414.282 387.547,432.152 385.381,447.314 
			331.23,434.859 306.32,390.997 		"/>
		<g>
			<g>
				<g>
					<g>
						<polygon style="fill:#3B3387;" points="497.479,425.004 496.3,526.909 507.16,658.094 521.927,658.094 539.596,537.065 
							559.802,415.827 						"/>
						<polygon style="fill:#292949;" points="521.841,664.321 505.874,672.305 497.89,664.321 505.874,656.337 521.841,656.337 
													"/>
					</g>
					<g>
						<polygon style="fill:#3B3387;" points="598.718,425.004 599.008,483.96 589.049,658.094 574.283,658.094 549.581,542.539 
							536.394,415.827 						"/>
						<polygon style="fill:#292949;" points="574.368,664.321 590.336,672.305 598.32,664.321 590.336,656.337 574.368,656.337 
													"/>
					</g>
				</g>
				<path style="fill:#3B3387;" d="M614.074,460.502c0.317,9.354,0.114,21.866-3.825,22.334c-0.737,0.087-1.449-0.239-2.097-0.554
					c-6.848-3.327-11.73-8.03-18.482-11.245c-7.075-3.368-15.116-5.131-22.974-6.348c-11.721-1.872-23.636-2.997-35.433-3.102
					c-10.139-0.09-20.682,4.535-30.267,7.079c-3.689,0.979-6.691,3.668-9.756,5.777c-4.527,3.114-6.512,4.348-5.894-2.016
					c1.008-10.384,2.053-20.765,3.331-31.12c2.548-20.653,6.016-41.256,11.885-61.249c2.242-7.638,4.828-15.169,7.414-22.698
					c3.148-9.168,6.296-18.336,9.445-27.504c3.913-11.394,10.516-19.421,22.08-23.407c9.993-3.444,22.406-4.387,32.125,0.435
					c10.805,5.36,15.943,23.62,21.192,33.378c4.6,8.551,10.398,31.874,12.12,41.093c2.072,11.095,3.987,22.139,5.494,33.153
					c1.669,12.199,2.846,24.362,3.187,36.453C613.654,452.298,613.923,456.036,614.074,460.502z"/>
				<path style="fill:#FFFFFF;" d="M560.701,308.495l-19.955,0.19c0,0-21.412,74.83-22.199,87.727
					c-0.772,12.661-6.185,63.998-6.185,63.998s22.099,0.521,47.562,3.623c24.892,5.327,26.984,2.177,26.984,2.177
					s-13.434-53.957-13.88-69.459c-0.456-15.856-2.485-68.225-2.485-68.225L560.701,308.495z"/>
				<path style="fill:#3B3387;" d="M557.809,309.718h-9.824c-2.293,0-3.593,2.627-2.202,4.451l4.033,5.285l-10.731,98.981
					l13.207,12.981l9.08-15.415l-2.476-96.547l1.598-6.283C560.939,311.42,559.616,309.718,557.809,309.718z"/>
				<g>
					<path style="fill:#C67B71;" d="M548.6,308.884c0.234,0.204,0.504,0.364,0.816,0.466c0.62,0.204,1.293,0.13,1.941,0.053
						c2.64-0.312,5.279-0.625,7.919-0.937c-0.871-8.083,3.855-9.912,8.459-15.11c4.667-5.271,3.23-12.377,2.968-18.827
						c-0.075-1.796-0.163-3.647-0.922-5.277c-1.333-2.859-4.436-4.439-7.449-5.375c-7.688-2.389-16.481-1.801-23.251,2.557
						c-1.802,1.16-3.484,2.617-4.46,4.525c-1.505,2.941-1.122,6.451-0.703,9.728c0.645,5.037,2.136,9.984,4.984,14.229
						c2.654,3.955,7.713,5.849,8.294,10.596C547.346,306.738,547.718,308.117,548.6,308.884z"/>
					<g>
						<path style="fill:#292949;" d="M534.141,274.833c0.449,2.031,1.396,4.087,0.903,6.107c-3.227-1.095-5.335-4.395-6.478-7.75
							c-0.518-1.521-0.894-3.131-0.764-4.74c0.13-1.609,0.829-3.225,2.099-4.134c1.772-1.269,4.952-0.77,5.459,1.529
							C535.872,268.163,533.466,271.776,534.141,274.833z"/>
						<path style="fill:#292949;" d="M517.012,256.99c0.076-2.434,1.004-4.609,3.179-6.078c1.875-1.266,4.037-2.317,5.176-4.33
							c0.884-1.563,1.014-3.496,1.89-5.064c1.586-2.838,5.03-3.673,8.025-4.635c7.493-2.407,11.527-5.185,19.464-2.104
							c5.643,2.19,12.934,2.484,18.171,5.679c2.187,1.334,4.048,3.478,5.575,5.865c5.291,8.272,6.561,19.903,3.115,28.531
							c-0.771,1.931-1.751,3.707-2.799,5.408c-2.095,3.4-4.339,7.584-8.049,9.248c-0.233-1.602-1.427-2.486-1.8-4.061
							c-0.269-1.133-0.179-2.321-0.12-3.487c0.228-4.536,1.619-11.709-2.911-13.959c-5.729-2.844-16.475-0.279-21.992,2.13
							c-4.882,2.131-13.121,4.903-18.326,2.62C520.777,270.635,516.848,262.189,517.012,256.99z"/>
					</g>
				</g>
			</g>
			<path style="fill:#474EBB;" d="M670.508,114.869l-76.44,28.396l20.472,17.602c-19.241,23.039-43.289,51.958-43.886,53.281
				c-0.997,2.212-24.742-37.746-24.742-37.746l-50.014,65.205l-22.226-24.909l-39.883,52.601l38.69-31.24l24.483,27.06
				l45.316-54.207l24.57,41.336l67.903-74.005l22.004,18.919L670.508,114.869z"/>
			<polygon style="fill:#154E93;" points="566.787,252.37 636.1,179.266 631.497,174.664 			"/>
			<polygon style="fill:#154E93;" points="496.932,264.825 545.126,215.548 541.877,210.133 			"/>
			<polygon style="fill:#154E93;" points="472.564,237.749 434.117,269.157 475.257,241.128 			"/>
			<polygon style="fill:#3B3387;" points="534.838,309.229 476.896,327.099 489.351,270.24 471.481,263.742 443.864,335.221 
				460.651,356.882 519.134,349.301 			"/>
			<polygon style="fill:#3B3387;" points="567.101,305.848 629.882,301.452 613.908,233.281 629.359,222.199 663.88,300.353 
				653.566,325.741 593.042,340.191 			"/>
			<path style="fill:#C67B71;" d="M476.981,265.741l-3.334-17.262l10.305-11.778l5.398,4.907l-2.484,12.208l2.674,2.955
				l-2.91,12.479C486.632,269.25,476.948,265.506,476.981,265.741z"/>
			<polygon style="fill:#C67B71;" points="625.728,224.801 626.994,206.79 612.426,195.512 606.317,203.5 612.896,215.249 
				610.546,221.357 617.005,231.058 			"/>
		</g>
		<g>
			<g>
				<path style="fill:#B77B70;" d="M734.617,661.932c0.029-0.041,0.049-0.069,0.049-0.069l-0.055-0.016l-2.685-35.192l-17.404,3.735
					l8.63,30.644l-4.442,9.322c0,0-1.697,4.675-0.111,4.192c1.586-0.483,8.454-2.399,8.992-2.909
					c0.455-0.432,5.211-7.14,6.659-9.187L734.617,661.932z"/>
				<polygon style="fill:#B77B70;" points="657.038,636.071 659.778,660.029 655.225,666.354 655.701,670.521 667.904,666.487 
					673.394,663.748 673.749,629.938 				"/>
				<polygon style="fill:#292949;" points="677.69,456.545 686.257,524.295 691.563,549.564 714.782,642.926 735.936,638.582 
					726.139,536.443 730.928,471.478 732.815,454.41 738.02,433.828 				"/>
				<polygon style="fill:#292949;" points="634.515,460.066 637.936,529.033 655.327,644.181 676.16,641.799 676.809,573.658 
					688.093,446.26 664.268,436.322 645.205,431.115 				"/>
				<path d="M659.778,660.029l-16.1,16.088l1.236,6.19l13.021-1.489l17.038-12.502l0.029-8.973l-1.741-1.384
					c0,0-15.773,9.719-16.874,9.317C655.284,666.875,659.778,660.029,659.778,660.029z"/>
				<path d="M723.13,661.194l-8.167,8.753l-4.942,3.927l2.018,6.738l7.23,1.261l19.048-11.577l-1.747-8.287l-1.795-1.91
					c0,0-7.458,6.149-14.466,9.716C718.325,670.824,723.13,661.194,723.13,661.194z"/>
				<polygon style="fill:#DDDAE8;" points="659.989,321.136 644.828,329 613.898,383.52 623.334,400.295 636.964,390.859 
					657.409,363.599 				"/>
				<path style="fill:#DDDAE8;" d="M655.836,324.083c0,0,7.339-8.713,35.123-8.713c27.784,0,48.534,87.993,47.486,103.786
					c-1.048,15.793,2.84,51.386,2.84,51.386l-65.004-16.306c0,0-36.684,0.069-45.596,8.782c-8.912,8.713,17.346-62.182,17.87-78.519
					C649.079,368.162,646.925,332.251,655.836,324.083z"/>
				<polygon style="fill:#F7F7F7;" points="685.793,317.354 688.339,317.467 680.107,387.582 665.797,357.832 663.176,325.854 
					665.797,321.136 				"/>
				<g>
					<path style="fill:#B77B70;" d="M648.706,289.245c-1.714-21.254,25.704-24.983,37.919-10.726
						c7.968,9.3,5.761,26.848-4.013,34.787c0.135,0.444,0.271,0.855,0.416,1.19c0.745,1.726,1.274,3.517,1.771,5.35
						c0.185,0.683-10.364,3.064-11.542,3.324c-0.412,0.091-0.881,0.173-1.225-0.056c-0.659-0.44-0.807-2.518-1.032-3.228
						c-0.266-0.838-0.532-1.677-0.798-2.515c-6.655-0.282-12.607-4.473-16.109-9.856
						C650.574,302.105,649.221,295.632,648.706,289.245z"/>
					<g>
						<path style="fill:#292949;" d="M657.329,265.597c1.888,0.757,3.211,2.385,4.365,3.999c0.689,0.964,1.363,1.978,1.595,3.129
							c0.926,4.591-3.33,6.188-5.957,8.945c-3.24,3.4-5.321,7.964-5.998,12.47c-1.061,7.055,3.615,13.495,7.693,18.985
							c1.437,1.935,3.835,4.697,3.004,7.345c-0.844,2.691-4.896,4.102-7.365,3.985c-2.256-0.107-4.521-1.136-6.708-0.588
							c-2.315,0.581-4.815,2.802-6.683,1.261c-0.52-0.428-0.839-1.09-1.412-1.44c-1.936-1.184-4.029,2.107-6.233,1.639
							c-1.356-0.288-2.036-1.866-2.231-3.264c-0.195-1.399-0.158-2.918-0.955-4.079c-0.685-0.998-1.847-1.516-2.765-2.295
							c-1.814-1.539-2.596-4.233-1.89-6.51c1.313-4.233,6.708-5.895,8.291-10.029c0.825-2.154,0.451-4.577,0.105-6.874
							s-0.629-4.755,0.348-6.84c1.206-2.576,4.161-3.518,5.201-6.403c0.611-1.695,0.686-3.587,1.504-5.186
							c1.078-2.109,3.898-4.6,5.68-6.213C649.742,265.074,653.756,264.165,657.329,265.597z"/>
						<path style="fill:#292949;" d="M685.637,288.346c2.77,6.033,2.62,13.927,7.76,18.057c5.187,4.168,12.66,2.064,18.79-0.278
							c1.008-0.385,13.908-4.917,14.113-5.091c6.598-5.585-0.453-9.425-1.216-14.086c-1.097-6.701,9.387-5.653,7.07-11.502
							c-1.316,0.322-2.587-0.906-2.997-2.23c-0.41-1.324-0.253-2.749-0.405-4.127c-0.373-3.387-2.796-6.47-5.958-7.583
							c-6.31-2.221-13.683,3.066-19.624-0.056c-3.684-1.936-5.285-6.378-8.122-9.466c-5.484-5.973-13.82-4.083-20.957-4.745
							c-7.534-0.699-14.051-0.039-20.548,4.189c-8.053,5.241-10.648,16.903-3.664,23.761c8.957,8.796,25.731,0.374,33.68,9.806
							C684.412,286.007,685.083,287.139,685.637,288.346z"/>
					</g>
				</g>
				<polygon style="fill:#DDDAE8;" points="613.898,383.416 629.602,370.419 659.927,363.38 664.259,375.293 623.104,400.203 				
					"/>
			</g>
			<g>
				<g style="opacity:0.1;">
					<path d="M699.469,355.502h-2.326h-26.04c-3.173,0-5.746,2.554-5.783,5.718c0,0.023-0.003,0.046-0.003,0.069
						c0,0.023,0.003,0.046,0.003,0.069v115.316l-5.122,0.795l1.337,1.839c1.398,1.921,3.63,3.058,6.005,3.058h25.486
						c-1.243,0-2.409-0.327-3.422-0.895c0.905,0.427,1.911,0.672,2.977,0.672c1.909,0,3.637-0.765,4.902-2.003
						c1.858-1.819,1.986-3.853,1.986-6.29l0.123-112.56c0-3.196,2.591-5.787,5.787-5.787H699.469z"/>
				</g>
				<path style="fill:#D9CEC3;" d="M712.995,377.216l-8.094-21.039l-0.004,0c-0.776-2.281-2.931-3.924-5.475-3.924
					c-2.821,0-5.168,2.02-5.68,4.691l-0.552,0.038v21.799l1.282-1.704l1.417,1.883h0.271l1.417-1.883l1.417,1.883h0.271l1.417-1.883
					l1.417,1.883h0.271l1.417-1.883l1.417,1.883h0.271l1.417-1.883l1.417,1.883h0.271l1.417-1.883l1.416,1.883h0.271
					L712.995,377.216z"/>
				<path style="fill:#F0EDEA;" d="M693.513,352.253h-2.326h-26.04c-3.173,0-5.746,2.554-5.783,5.718
					c0,0.023-0.003,0.046-0.003,0.069c0,0.023,0.003,0.046,0.003,0.069V476.89h22.359c1.264,1.238,2.993,2.003,4.902,2.003
					s3.637-0.765,4.902-2.003c1.858-1.819,1.987-3.853,1.987-6.29l0.122-112.56c0-3.196,2.591-5.787,5.787-5.787H693.513z"/>
				<g>
					<path style="fill:#D9CEC3;" d="M680.058,472.105c0-0.656,0.097-1.289,0.266-1.892h-0.266l-25.818,4.006l1.337,1.839
						c1.397,1.921,3.629,3.058,6.005,3.058h25.487C683.197,479.116,680.058,475.977,680.058,472.105z"/>
				</g>
				<g>
					<g>
						<rect x="670" y="358.199" style="opacity:0.17;" width="6.127" height="1.064"/>
						<rect x="677.669" y="358.199" style="opacity:0.17;" width="6.127" height="1.064"/>
						<rect x="685.338" y="358.199" style="opacity:0.17;" width="4.186" height="1.064"/>
						<rect x="673.063" y="360.169" style="opacity:0.17;" width="4.186" height="1.064"/>
						<rect x="678.051" y="360.144" style="opacity:0.17;" width="4.186" height="1.064"/>
						<rect x="682.989" y="360.144" style="opacity:0.17;" width="2.458" height="1.064"/>
						<rect x="686.081" y="360.144" style="opacity:0.17;" width="2.458" height="1.064"/>
					</g>
					<rect x="661.86" y="374.925" style="opacity:0.17;" width="14.266" height="0.665"/>
					<g>
						<rect x="661.86" y="369.638" style="opacity:0.17;" width="14.266" height="0.665"/>
						<rect x="661.86" y="370.685" style="opacity:0.17;" width="2.702" height="0.399"/>
						<rect x="685.811" y="369.638" style="opacity:0.17;" width="5.287" height="0.665"/>
					</g>
					<g>
						<rect x="661.91" y="377.948" style="opacity:0.17;" width="14.266" height="0.665"/>
						<rect x="661.91" y="378.995" style="opacity:0.17;" width="2.702" height="0.399"/>
						<rect x="685.861" y="377.948" style="opacity:0.17;" width="5.287" height="0.665"/>
					</g>
					<g>
						<rect x="661.86" y="382.337" style="opacity:0.17;" width="14.266" height="0.665"/>
						<rect x="661.86" y="383.385" style="opacity:0.17;" width="2.702" height="0.399"/>
						<rect x="685.811" y="382.337" style="opacity:0.17;" width="5.287" height="0.665"/>
					</g>
					<rect x="685.811" y="374.925" style="opacity:0.17;" width="5.287" height="0.665"/>
					<rect x="661.86" y="392.285" style="opacity:0.17;" width="14.266" height="0.665"/>
					<g>
						<rect x="661.86" y="386.998" style="opacity:0.17;" width="14.266" height="0.665"/>
						<rect x="661.86" y="388.045" style="opacity:0.17;" width="2.702" height="0.399"/>
						<rect x="685.811" y="386.998" style="opacity:0.17;" width="5.287" height="0.665"/>
					</g>
					<g>
						<rect x="661.91" y="395.308" style="opacity:0.17;" width="14.266" height="0.665"/>
						<rect x="661.91" y="396.355" style="opacity:0.17;" width="2.702" height="0.399"/>
						<rect x="685.861" y="395.308" style="opacity:0.17;" width="5.287" height="0.665"/>
					</g>
					<g>
						<rect x="661.86" y="399.697" style="opacity:0.17;" width="14.266" height="0.665"/>
						<rect x="661.86" y="400.745" style="opacity:0.17;" width="2.702" height="0.399"/>
						<rect x="685.811" y="399.697" style="opacity:0.17;" width="5.287" height="0.665"/>
					</g>
					<rect x="685.811" y="392.285" style="opacity:0.17;" width="5.287" height="0.665"/>
					<rect x="661.86" y="409.645" style="opacity:0.17;" width="14.266" height="0.665"/>
					<g>
						<rect x="661.86" y="404.358" style="opacity:0.17;" width="14.266" height="0.665"/>
						<rect x="661.86" y="405.406" style="opacity:0.17;" width="2.702" height="0.399"/>
						<rect x="685.811" y="404.358" style="opacity:0.17;" width="5.287" height="0.665"/>
					</g>
					<g>
						<rect x="661.91" y="412.668" style="opacity:0.17;" width="14.266" height="0.665"/>
						<rect x="661.91" y="413.716" style="opacity:0.17;" width="2.702" height="0.399"/>
						<rect x="685.861" y="412.668" style="opacity:0.17;" width="5.287" height="0.665"/>
					</g>
					<g>
						<rect x="661.86" y="417.057" style="opacity:0.17;" width="14.266" height="0.665"/>
						<rect x="661.86" y="418.105" style="opacity:0.17;" width="2.702" height="0.399"/>
						<rect x="685.811" y="417.057" style="opacity:0.17;" width="5.287" height="0.665"/>
					</g>
					<rect x="685.811" y="409.645" style="opacity:0.17;" width="5.287" height="0.665"/>
					<rect x="661.86" y="427.005" style="opacity:0.17;" width="14.266" height="0.665"/>
					<g>
						<rect x="661.86" y="421.718" style="opacity:0.17;" width="14.266" height="0.665"/>
						<rect x="661.86" y="422.766" style="opacity:0.17;" width="2.702" height="0.399"/>
						<rect x="685.811" y="421.718" style="opacity:0.17;" width="5.287" height="0.665"/>
					</g>
					<g>
						<rect x="661.91" y="430.028" style="opacity:0.17;" width="14.266" height="0.665"/>
						<rect x="661.91" y="431.076" style="opacity:0.17;" width="2.702" height="0.399"/>
						<rect x="685.861" y="430.028" style="opacity:0.17;" width="5.287" height="0.665"/>
					</g>
					<g>
						<rect x="661.86" y="434.418" style="opacity:0.17;" width="14.266" height="0.665"/>
						<rect x="661.86" y="435.465" style="opacity:0.17;" width="2.702" height="0.399"/>
						<rect x="685.811" y="434.418" style="opacity:0.17;" width="5.287" height="0.665"/>
					</g>
					<rect x="685.811" y="427.005" style="opacity:0.17;" width="5.287" height="0.665"/>
					<rect x="661.86" y="443.921" style="opacity:0.17;" width="14.266" height="0.665"/>
					<g>
						<rect x="661.86" y="438.633" style="opacity:0.17;" width="14.266" height="0.665"/>
						<rect x="661.86" y="439.681" style="opacity:0.17;" width="2.702" height="0.399"/>
						<rect x="685.811" y="438.633" style="opacity:0.17;" width="5.287" height="0.665"/>
					</g>
					<g>
						<rect x="661.91" y="446.943" style="opacity:0.17;" width="14.266" height="0.665"/>
						<rect x="661.91" y="447.991" style="opacity:0.17;" width="2.702" height="0.399"/>
						<rect x="685.861" y="446.943" style="opacity:0.17;" width="5.287" height="0.665"/>
					</g>
					<g>
						<rect x="661.86" y="451.333" style="opacity:0.17;" width="14.266" height="0.665"/>
						<rect x="661.86" y="452.38" style="opacity:0.17;" width="2.702" height="0.399"/>
						<rect x="685.811" y="451.333" style="opacity:0.17;" width="5.287" height="0.665"/>
					</g>
					<rect x="685.811" y="443.921" style="opacity:0.17;" width="5.287" height="0.665"/>
					<rect x="661.86" y="455.494" style="opacity:0.17;" width="14.266" height="0.665"/>
					<g>
						<rect x="661.91" y="458.517" style="opacity:0.17;" width="14.266" height="0.665"/>
						<rect x="661.91" y="459.564" style="opacity:0.17;" width="2.702" height="0.399"/>
						<rect x="685.861" y="458.517" style="opacity:0.17;" width="5.287" height="0.665"/>
					</g>
					<g>
						<rect x="661.86" y="462.906" style="opacity:0.17;" width="14.266" height="0.665"/>
						<rect x="661.86" y="463.954" style="opacity:0.17;" width="2.702" height="0.399"/>
						<rect x="685.811" y="462.906" style="opacity:0.17;" width="5.287" height="0.665"/>
					</g>
					<rect x="685.811" y="455.494" style="opacity:0.17;" width="5.287" height="0.665"/>
				</g>
			</g>
		</g>
		<g>
			<polygon style="fill:#8CABEF;" points="795.304,338.47 770.634,376.341 754.573,407.014 760.449,418.903 781.813,412.928 			"/>
			<g>
				<polygon style="fill:#8CABEF;" points="824.864,472.21 824.864,491.386 799.296,574.482 805.688,660.775 789.708,663.971 
					764.14,558.502 765.118,527.472 776.924,464.186 				"/>
				<polygon style="fill:#292949;" points="791.806,662.332 779.608,675.242 783.132,681.787 808.302,669.705 803.666,660.14 				
					"/>
				<polygon style="fill:#292949;" points="830.49,668.227 815.452,677.681 817.229,684.898 844.62,679.488 842.521,669.068 				"/>
				<path style="fill:#8CABEF;" d="M795.222,338.374l38.038-15.09c0,0,13.518,33.578,28.886,87.365
					c15.368,53.787-7.136,122.255-7.136,122.255s-87.143-20.711-104.544-24.126l21.827-98.318L795.222,338.374z"/>
				<polygon style="fill:#8CABEF;" points="804.582,494.915 830.273,670.696 841.951,670.696 849.326,574.815 865.306,478.935 				
					"/>
				<g>
					<path style="fill:#C67B71;" d="M793.962,285.603c10.357,0.762,20.041-7.743,30.235-5.632
						c6.628,1.373,11.86,7.252,13.883,13.877c0.943,3.088,1.277,6.454,0.354,9.525c-0.599,1.993-1.703,3.789-3.003,5.385
						c-1.738,2.134-3.864,3.906-6.224,5.268c1.296,2.089,2.781,4.061,4.433,5.883c-4.776,1.829-9.553,3.658-14.33,5.487
						c-1.055-2.745-2.111-5.489-3.166-8.234c-1.436-0.08-2.868-0.284-4.27-0.648c-8.481-2.201-15.511-9.628-17.402-18.384
						C793.586,294.028,793.756,289.785,793.962,285.603z"/>
					<polygon style="fill:#292949;" points="796.577,288.728 828.602,284.922 834.818,309.385 843.861,302.208 839.201,262.181 
						794.006,261.208 774.436,272.688 775.264,284.192 792.763,295.971 					"/>
				</g>
				<path style="fill:#FFFFFF;" d="M809.008,329.183l38.038-15.09c0,0,13.518,33.578,28.886,87.365
					c15.368,53.787-7.136,122.255-7.136,122.255s-77.953-38.518-95.354-41.933l12.636-80.511L809.008,329.183z"/>
				<path style="fill:#8CABEF;" d="M876.507,402.607c-15.368-53.787-28.677-87.422-28.677-87.422l-38.248,15.146l-0.062,0.194
					c0.843,2.198,1.723,4.383,2.486,6.611c3.012,8.794,5.24,17.845,6.607,27.04c2.404,16.162,2.657,32.779,2.14,49.088
					c-0.496,15.649-2.109,31.268-4.889,46.677c-3.676,20.371-9.536,40.219-17.087,59.431c35.38,7.189,77.017,15.689,77.017,15.689
					S891.875,456.395,876.507,402.607z"/>
				<path style="fill:#3B3387;" d="M791.078,411.315c-1.721,7.243-3.563,15.403-2.093,22.445c0,0,4.745,9.914,5.152,9.507
					c0.018-0.316,5.409-4.769,6.918-8.087c2.575-5.662,3.129-12.728,3.182-19.114c0.191-22.662-1.15-45.508,2.672-67.847
					c4.459-1.355,8.283-4.636,5.541-9.292c-8.678,3.292-9.597,22.826-11.493,30.803
					C797.665,383.591,794.371,397.453,791.078,411.315z"/>
			</g>
			<g>
				<g>
					<path style="fill:#C5CACE;" d="M904.699,195.933l-60.245,58.116c-1.833,1.768-4.858,1.606-6.756-0.363l-82.034-85.038
						c-1.899-1.968-1.952-4.997-0.119-6.765l60.245-58.116c1.833-1.768,4.858-1.606,6.756,0.363l82.034,85.038
						C906.478,191.137,906.532,194.165,904.699,195.933z"/>
					<path style="fill:#DDDAE8;" d="M904.58,189.168l-67.201-69.663l3.694,135.761c1.232,0.074,2.458-0.326,3.382-1.217
						l60.245-58.116C906.532,194.165,906.478,191.137,904.58,189.168z"/>
					<path style="fill:#3B3387;" d="M830.246,191.213l-15.776,15.218c-0.982,0.947-2.602,0.86-3.619-0.194l-15.898-16.481
						c-1.017-1.054-1.046-2.677-0.064-3.624l15.776-15.218c0.982-0.947,2.602-0.86,3.619,0.194l15.898,16.481
						C831.199,188.643,831.228,190.266,830.246,191.213z"/>
					<path style="fill:#3B3387;" d="M859.332,163.154l-15.776,15.218c-0.982,0.947-2.602,0.86-3.619-0.194l-15.898-16.481
						c-1.017-1.055-1.046-2.677-0.064-3.624l15.776-15.218c0.982-0.947,2.602-0.86,3.619,0.194l15.898,16.481
						C860.285,160.585,860.314,162.207,859.332,163.154z"/>
					<path style="fill:#3B3387;" d="M856.237,218.156l-15.776,15.218c-0.982,0.947-2.602,0.86-3.619-0.194l-15.899-16.481
						c-1.017-1.054-1.046-2.677-0.064-3.624l15.776-15.218c0.982-0.947,2.602-0.86,3.619,0.194l15.898,16.481
						C857.19,215.586,857.219,217.208,856.237,218.156z"/>
					<path style="fill:#D67086;" d="M885.323,190.097l-15.776,15.219c-0.982,0.947-2.602,0.86-3.619-0.194l-15.898-16.481
						c-1.017-1.054-1.046-2.677-0.064-3.624l15.776-15.218c0.982-0.947,2.602-0.86,3.619,0.194l15.898,16.481
						C886.276,187.528,886.305,189.15,885.323,190.097z"/>
					<path style="fill:#F2F2F2;" d="M812.76,187.006l4.48-4.322c0.28-0.27,0.606-0.397,0.979-0.381
						c0.373,0.016,0.695,0.165,0.968,0.448c0.273,0.283,0.404,0.6,0.393,0.951c-0.01,0.352-0.16,0.666-0.448,0.944l-4.48,4.322
						l4.795,4.97c0.307,0.318,0.472,0.654,0.495,1.007c0.023,0.353-0.106,0.665-0.385,0.935c-0.247,0.238-0.565,0.34-0.955,0.307
						c-0.39-0.034-0.721-0.191-0.994-0.474l-4.795-4.97l-4.455,4.298c-0.288,0.278-0.61,0.418-0.965,0.419
						c-0.356,0.002-0.67-0.138-0.943-0.421c-0.256-0.265-0.383-0.594-0.381-0.988c0.001-0.394,0.134-0.717,0.397-0.972l4.455-4.298
						l-4.782-4.957c-0.307-0.318-0.468-0.658-0.482-1.019c-0.014-0.361,0.114-0.673,0.385-0.935c0.28-0.27,0.596-0.387,0.948-0.351
						c0.352,0.036,0.682,0.212,0.988,0.531L812.76,187.006z"/>
					<path style="fill:#F2F2F2;" d="M838.078,166.971c-0.165,0.159-0.347,0.229-0.549,0.209c-0.201-0.019-0.396-0.126-0.583-0.32
						l-1.355-1.405c-0.162-0.168-0.242-0.346-0.242-0.535c0.001-0.188,0.083-0.362,0.248-0.521l10.232-9.87
						c0.189-0.183,0.384-0.277,0.585-0.283c0.201-0.006,0.382,0.075,0.544,0.243l1.355,1.405c0.153,0.159,0.23,0.362,0.23,0.609
						c0,0.247-0.078,0.446-0.234,0.597L838.078,166.971z"/>
					<path style="fill:#F2F2F2;" d="M860.267,190.292c-0.165,0.159-0.347,0.229-0.548,0.209c-0.201-0.019-0.396-0.126-0.583-0.32
						l-1.355-1.405c-0.162-0.168-0.242-0.346-0.242-0.535c0.001-0.188,0.083-0.362,0.248-0.521l10.232-9.87
						c0.189-0.182,0.384-0.277,0.585-0.283c0.201-0.006,0.382,0.075,0.544,0.243l1.355,1.405c0.153,0.159,0.23,0.362,0.23,0.609
						c0,0.247-0.078,0.446-0.234,0.597L860.267,190.292z"/>
					<path style="fill:#F2F2F2;" d="M865.234,195.441c-0.165,0.159-0.348,0.229-0.549,0.209c-0.201-0.019-0.396-0.126-0.583-0.32
						l-1.355-1.405c-0.162-0.168-0.243-0.346-0.242-0.535c0.001-0.188,0.083-0.362,0.248-0.521l10.232-9.87
						c0.189-0.182,0.384-0.277,0.585-0.283c0.201-0.006,0.382,0.075,0.544,0.243l1.355,1.405c0.153,0.159,0.23,0.362,0.23,0.609
						c0,0.247-0.078,0.446-0.234,0.597L865.234,195.441z"/>
					<g>
						<path style="fill:#F2F2F2;" d="M834.189,221.359c-0.165,0.159-0.347,0.229-0.549,0.209c-0.201-0.019-0.396-0.126-0.583-0.32
							l-1.355-1.405c-0.162-0.168-0.243-0.346-0.242-0.535c0.001-0.188,0.083-0.362,0.248-0.521l10.232-9.87
							c0.189-0.182,0.384-0.277,0.585-0.283c0.201-0.006,0.382,0.075,0.544,0.243l1.355,1.405c0.153,0.159,0.23,0.362,0.23,0.609
							c0,0.247-0.078,0.446-0.234,0.597L834.189,221.359z"/>
						<path style="fill:#F2F2F2;" d="M836.243,210.518c0.76,0.788,0.781,2,0.048,2.708c-0.734,0.708-1.944,0.643-2.704-0.145
							c-0.76-0.788-0.781-2-0.048-2.708C834.272,209.665,835.483,209.73,836.243,210.518z"/>
						<path style="fill:#F2F2F2;" d="M842.616,217.125c0.76,0.788,0.781,2,0.048,2.708c-0.734,0.708-1.945,0.643-2.705-0.145
							c-0.76-0.788-0.781-2-0.048-2.708C840.646,216.272,841.857,216.337,842.616,217.125z"/>
					</g>
				</g>
				<path style="fill:#3B3387;" d="M837.578,119.713l-66.474,64.941l-15.084-15.637c-1.897-1.966-1.84-5.098,0.126-6.994
					l59.762-57.65c1.966-1.897,5.098-1.84,6.994,0.126L837.578,119.713z"/>
				
					<rect x="764.255" y="139.795" transform="matrix(0.7197 -0.6943 0.6943 0.7197 121.5853 598.4564)" style="fill:#F2F2F2;" width="75.431" height="17.704"/>
			</g>
			<polygon style="fill:#8CABEF;" points="844.62,316.457 882.487,292.984 875.448,228.544 892.234,222.046 919.852,295.691 
				914.436,307.604 862.532,357.694 			"/>
			<polygon style="fill:#C67B71;" points="889.832,222.976 892.039,204.218 871.657,195.512 867.866,204.176 877.465,218.281 
				879.789,226.863 			"/>
			<polygon style="fill:#8CABEF;" points="774.727,387.748 778.517,342.802 760.106,342.802 746.027,404.535 755.774,423.487 
				771.448,415.827 			"/>
			<polygon style="fill:#C67B71;" points="762.272,342.802 762.272,327.64 773.644,323.308 783.932,331.431 783.932,338.47 
				776.351,342.802 			"/>
		</g>
		<polygon style="fill:#474EBB;" points="415.705,309.229 427.077,312.478 475.272,374.752 471.481,396.953 459.026,403.452 		"/>
		<g>
			<path d="M431.976,654.45l12.386,8.773l4.128,6.709c0,0-4.645,2.064-7.225,2.58c-2.58,0.516-22.707-2.58-22.707-2.58v-11.87
				L431.976,654.45z"/>
			<path d="M387.078,660.127l6.709,6.709c0,0,5.677,9.289,3.096,9.289s-16.514,1.548-17.546,0c-1.032-1.548-8.773-6.709-9.805-7.741
				c-1.032-1.032-0.555-10.082-0.555-10.082L387.078,660.127z"/>
			<path style="fill:#474EBB;" d="M410.817,478.988l-8.773,88.247l-14.966,92.892h-18.062l-2.064-97.02
				c0,0-14.679-79.726-16.228-106.045L410.817,478.988z"/>
			<polygon style="fill:#474EBB;" points="452.103,480.536 436.621,658.063 418.042,658.063 412.365,567.235 401.7,486.821 
				442.297,439.25 			"/>
			<g>
				<path style="fill:#474EBB;" d="M455.777,399.66c-2.903-10.45-5.197-21.06-7.162-31.723c-1.714-9.303-2.39-19.317-6.431-27.991
					c-4.042-8.674-11.674-15.245-17.567-22.621c-2.497-3.125-5.161-6.377-8.872-7.866c-2.543-1.021-5.349-1.113-8.089-1.191
					c-8.31-0.239-16.62-0.477-24.93-0.716c-3.03-0.087-6.181-0.151-8.942,1.097c-4.139,1.871-6.478,6.217-8.523,10.272
					c-5.223,10.357-6.186,21.844-6.654,33.55c0.016,0.11,2.398,31.529-3.008,56.396c-5.38,24.748-12.865,67.678-12.459,96.897
					c0.076,0.239,0.15,0.481,0.229,0.714c4.82-3.163,8.755-6.98,13.909-9.738c6.419-3.435,13.763-5.261,20.964-6.538
					c10.769-1.968,21.776-3.188,32.748-3.38c8.625-0.151,17.292,0.584,25.88,1.299c7.146,0.595,13.795,2.713,21.074,2.208
					c4.339-0.301,8.638-1.204,12.732-2.674C471.496,452.727,458.485,409.408,455.777,399.66z"/>
			</g>
			<polygon style="fill:#F7F7F7;" points="388.11,308.17 381.401,308.17 381.401,315.911 412.882,382.483 415.462,352.035 
				405.141,309.202 			"/>
			<g>
				<path style="fill:#474EBB;" d="M414.99,357.608c-0.32-2.722-0.689-5.152-1.11-7.113c-2.902-13.543-14.442-30.453-14.442-30.453
					s-1.039-3.842-1.522-7.228l-8.257-0.516l1.358,8.433l3.87,3.321c0,0,11.738,31.763,13.189,44.823
					c0.152,1.37,0.271,2.784,0.364,4.215l4.442,9.393L414.99,357.608z"/>
			</g>
			<polygon style="fill:#F7F7F7;" points="418.558,408.802 407.205,486.729 427.331,488.277 441.265,488.277 425.267,420.672 			"/>
			<g>
				<path style="fill:#C67B71;" d="M399.166,312.928c-4.625-0.201-9.25-0.402-13.875-0.603c-0.249-3.684-0.204-7.387,0.137-11.063
					c-3.909-1.135-8.451-2.911-9.341-6.883c-0.281-1.251-0.134-2.553,0.014-3.827c0.612-5.264,1.224-10.529,1.835-15.793
					c0.212-1.821,0.44-3.696,1.335-5.295c1.571-2.807,4.845-4.178,7.979-4.903c7.997-1.85,16.893-0.589,23.447,4.353
					c1.744,1.315,3.345,2.923,4.193,4.936c1.308,3.104,0.655,6.643-0.019,9.943c-0.622,3.046-1.243,6.092-1.865,9.138
					c-0.715,3.504-1.806,7.502-5.062,8.981c-1.728,0.785-3.825,0.7-5.368,1.806C399.854,305.671,400.467,309.843,399.166,312.928z"
					/>
				<path style="fill:#292949;" d="M424.791,246.025c-1.027-0.183-2.074-0.4-3.136-0.862c-3.35-1.458-5.698-4.383-9.256-5.752
					c-7.196-2.768-16.222-2.367-23.291,0.607c-6.765,2.845-15.997,3.94-22.052,7.763c-2.528,1.596-4.484,3.98-5.967,6.577
					c-5.14,8.994-4.507,20.967,1.553,29.37c1.359,1.885,2.956,3.588,4.623,5.207c3.452,3.351,7.589,7.496,12.14,8.556
					c-0.116-4.013-4.466-16.445-1.571-19.899c3.839-4.581,11.374-4.464,16.773-3.958c6.434,0.602,11.73-1.463,18.146-1.142
					c3.268,0.164,6.964,0.821,9.469-1.284c2.897-2.433,9.021-10.16,10.474-13.55c1.272-2.969,0.424-6.625-1.787-8.98
					C429.001,246.645,426.941,246.409,424.791,246.025z"/>
			</g>
		</g>
		<g>
			<g style="opacity:0.1;">
				<path d="M348.407,401.291c-0.916-0.791-1.685-1.79-2.237-2.79c-0.952-1.723-1.394-3.74-1.208-5.692
					c0.08-0.844,0.737-1.538,1.614-1.495c0.804,0.04,1.583,0.799,1.503,1.648c-0.186,1.958,0.43,3.871,1.734,5.328
					c0.285-0.325,0.6-0.624,0.94-0.89c1.245-0.975,3.18-2.243,4.737-1.178c1.753,1.2,1.348,3.502,0.059,4.819
					c-1.017,1.04-2.421,1.816-3.871,1.762c0.635,1.831,1.478,2.588,3.375,2.51c1.153-0.047,3.843-0.669,4.322-1.951
					c0.31-0.831-0.417-2.78-0.526-3.712c-0.304-2.588-0.329-5.204-0.083-7.792c0.5-5.252,2.12-10.337,4.529-14.986
					c5.439-10.498,14.617-18.672,24.778-24.377c0.561-0.315,1.126-0.623,1.695-0.924c7.064-3.738,14.456-6.018,21.8-6.813
					c0.652-2.959,1.849-5.77,3.626-8.208c3.966-5.439,10.954-8.696,17.596-7.489c-2.561,6.659-3.56,15.287-3.711,16.698
					c7.976,1.849,15.498,5.646,22.014,11.44c0.136,0.121,0.263,0.236,0.386,0.349l8.587-1.477c0,0,1.132,12.415,1.028,17.912
					c0,0,2.132,7.503-1.337,9.872c-0.568,7.589-3.338,15.269-7.982,22.271c-0.307,0.464-0.624,0.924-0.948,1.381l6.466,12.22
					c0,0-8.02,8.325-13.559,9.215l-7.361-7.113c-2.236,1.579-4.611,3.043-7.118,4.37c-2.966,1.569-5.966,2.915-8.972,4.033
					l1.758,10.189c-3.851,4.079-15.246,6.026-15.246,6.026l-6.462-12.213c-15.561,0.353-29.433-6.299-37.13-20.846
					c-0.656-1.239-1.238-2.485-1.749-3.734c-2.294,0.725-4.739,0.907-7.073,0.05c-1.798-0.66-3.225-1.82-4.3-3.415
					C349.108,404.849,348.18,403.071,348.407,401.291z"/>
			</g>
			<path style="fill:#EAACB0;" d="M346.228,397.819c-0.931-0.783-1.707-1.778-2.261-2.777c-0.954-1.722-1.376-3.75-1.152-5.721
				c0.097-0.852,0.785-1.564,1.689-1.534c0.828,0.027,1.619,0.78,1.522,1.637c-0.224,1.978,0.38,3.897,1.7,5.345
				c0.299-0.333,0.629-0.639,0.983-0.913c1.3-1.003,3.316-2.315,4.903-1.266c1.787,1.181,1.333,3.51-0.018,4.86
				c-1.066,1.066-2.526,1.872-4.021,1.841c0.625,1.836,1.482,2.586,3.439,2.476c1.19-0.067,3.973-0.737,4.488-2.039
				c0.334-0.844-0.384-2.797-0.482-3.736c-0.271-2.606-0.254-5.244,0.043-7.858c0.602-5.306,2.356-10.462,4.916-15.19
				c5.78-10.679,15.379-19.074,25.949-24.996c0.583-0.327,1.171-0.647,1.762-0.96c7.345-3.886,15.004-6.308,22.589-7.231
				c0.722-2.995,2.001-5.851,3.874-8.339c4.178-5.552,11.437-8.951,18.266-7.844c-2.75,6.759-3.922,15.479-4.1,16.904
				c8.193,1.733,15.887,5.44,22.51,11.178c0.138,0.12,0.267,0.234,0.392,0.346l8.879-1.631c0,0,8.688,15.103,8.489,20.65
				c0,0-5.65,4.935-9.266,7.381c-0.71,7.664-3.693,15.456-8.596,22.596c-0.325,0.473-0.659,0.942-1,1.409l6.466,12.22
				c0,0-8.406,8.529-14.131,9.518l-7.473-7.053c-2.331,1.629-4.804,3.145-7.411,4.525c-3.084,1.632-6.199,3.039-9.317,4.215
				l1.645,10.249c-4.038,4.177-15.819,6.33-15.819,6.33l-6.462-12.212c-16.051,0.612-30.244-5.87-37.941-20.417
				c-0.656-1.239-1.235-2.486-1.742-3.737c-2.378,0.769-4.901,0.993-7.294,0.166c-1.843-0.636-3.296-1.782-4.378-3.374
				C346.893,401.397,345.965,399.618,346.228,397.819z"/>
			<path style="fill:#F2CDD0;" d="M406.953,344.465l0.65,5.271c0,0-16.15,3.584-29.032,15.362l-4.832-1.426
				C373.739,363.672,382.739,346.702,406.953,344.465z"/>
			<path style="opacity:0.03;" d="M362.904,410.826c10.488,7.568,23.979,9.652,36.831,8.585c9.515-0.789,19.295-3.036,28.138-7.117
				c12.801-5.908,22.665-15.795,31.258-26.556c0.379-0.474,0.742-0.955,1.099-1.439c-1.394,5.615-3.952,11.185-7.538,16.407
				c-5.556,8.09-13.577,15.341-23.55,20.618c-26.522,14.034-55.415,11.469-67.795-11.649
				C361.854,410.075,362.381,410.449,362.904,410.826z"/>
			<path style="opacity:0.03;" d="M453.512,352.264c0,0,12.11,13.417,7.813,26.137l3.567-2.651
				C464.891,375.75,463.631,359.337,453.512,352.264z"/>
		</g>
		<g>
			<g>
				<g>
					
						<ellipse transform="matrix(0.9949 -0.1009 0.1009 0.9949 -18.1108 26.2358)" style="fill:#EBB044;" cx="250.227" cy="192.102" rx="52.022" ry="52.022"/>
					<path style="opacity:0.1;fill:#272525;" d="M269.325,138.708c-29.489-10.548-61.945,4.807-72.493,34.296
						c-10.548,29.489,4.807,61.945,34.296,72.493c29.489,10.548,61.945-4.807,72.493-34.296
						C314.169,181.712,298.814,149.255,269.325,138.708z M234.336,236.528c-24.536-8.776-37.311-35.781-28.535-60.316
						c8.776-24.536,35.781-37.311,60.316-28.535c24.536,8.776,37.311,35.781,28.535,60.316
						C285.876,232.528,258.871,245.304,234.336,236.528z"/>
					<path style="fill:#F2D042;" d="M271.284,133.231c-32.514-11.63-68.299,5.3-79.929,37.814
						c-11.63,32.514,5.3,68.299,37.814,79.929c32.514,11.63,68.299-5.3,79.929-37.814
						C320.728,180.646,303.798,144.861,271.284,133.231z M232.706,241.085c-27.052-9.676-41.138-39.451-31.462-66.503
						c9.676-27.052,39.451-41.138,66.503-31.462c27.052,9.676,41.138,39.451,31.462,66.503S259.758,250.761,232.706,241.085z"/>
				</g>
			</g>
			<g>
				<g>
					<path style="fill:#F2D042;" d="M228.966,201.079c-0.447-0.634-0.238-1.547-0.09-2.388c0.376-2.141,2.179-3.212,4.257-2.725
						c3.117,0.731,5.349,4.113,7.591,6.391c1.841,1.872,4.107,3.298,6.796,4.278c2.879,1.05,5.444,1.191,7.694,0.422
						c2.249-0.768,3.791-2.293,4.623-4.576c0.844-2.315,0.744-4.216-0.298-5.704c-1.043-1.488-3.262-2.851-6.657-4.089l-2.241-0.817
						c-5.542-2.02-9.345-4.717-11.407-8.092c-2.063-3.375-2.292-7.263-0.688-11.664c1.569-4.304,4.206-7.128,7.913-8.473
						c3.706-1.345,8.127-1.082,13.262,0.79c2.092,0.762,4.096,1.891,6.015,3.384c3.988,3.107,10.138,9.488,6.914,13.404
						c-3.676,4.465-8.876-5.839-11.223-8.05c-1.374-1.295-3.161-2.343-5.361-3.145c-2.554-0.931-4.859-1.004-6.914-0.221
						c-2.056,0.784-3.464,2.219-4.224,4.305c-0.749,2.054-0.483,3.813,0.8,5.278c1.282,1.465,4.548,3.228,9.798,5.29
						c5.591,2.223,9.29,4.91,11.095,8.062c1.806,3.152,1.871,7.026,0.195,11.623c-1.605,4.402-4.329,7.398-8.171,8.989
						c-3.842,1.591-8.208,1.495-13.099-0.287c-1.548-0.564-3.211-1.364-4.987-2.4C237.253,208.736,232.05,205.451,228.966,201.079z"
						/>
				</g>
				<path style="fill:#F2D042;" d="M239.716,224.075l-0.062-0.022c-1.688-0.615-2.479-2.697-1.767-4.649l21.967-60.257
					c0.712-1.952,2.657-3.036,4.344-2.421l0.062,0.022c1.688,0.615,2.479,2.697,1.767,4.649l-21.967,60.257
					C243.348,223.607,241.403,224.69,239.716,224.075z"/>
			</g>
		</g>
		<g>
			<g>
				<path style="fill:#292949;" d="M317.055,681.876l-12.836-11.856c-3.724-1.884-7.664-3.201-10.856-3.16
					c-2.318,0.029-4.242,0.773-5.402,2.533c-1.115,1.69-1.341,3.914-0.581,5.717c0.277,0.659,0.672,1.249,1.115,1.805l-0.001,0
					c0,0,0.005,0.006,0.006,0.007c0.382,0.479,0.8,0.932,1.217,1.38c0.265,0.285,0.557,0.591,0.868,0.91
					c2.656,2.879,7.107,7.568,8.874,8.628c2.592,1.555,8.294,5.702,15.032,1.037c-0.025-0.023-0.053-0.044-0.078-0.066
					C316.862,687.15,317.583,684.424,317.055,681.876z"/>
				<path style="fill:#C67B71;" d="M306.979,578.619l-1.037,14.879l-5.085,72.436l5.085,8.427c0,0,1.037,6.739-6.738,6.22
					c-2.313-0.154-10.505-10.57-10.505-10.57l1.184-4.773l-5.765-54.389l0.053-15.797l-2.757-17.54L306.979,578.619z"/>
			</g>
			<g>
				<path style="fill:#292949;" d="M225.608,663.482c-2.39-0.752-4.615-0.637-6.399,0.778c-1.714,1.359-2.696,3.566-2.524,5.673
					c0.117,1.436,0.724,2.766,1.323,4.064c3.1,6.719,11.794,21.909,21.769,19.125c4.191-1.171,5.779-5.45,4.928-9.23
					C243.422,678.197,233.598,665.995,225.608,663.482z"/>
			</g>
			<path style="fill:#C67B71;" d="M275.886,569.931l-1.737,21.424l-42.056,75.721c0,0,6.045,10.561,2.211,11.479
				s-15.077-2.281-15.101-14.207c4.422-14.442,21.802-63.484,21.802-63.484l8.138-12.655l-0.119-23.782L275.886,569.931z"/>
			<path style="fill:#DDDAE8;" d="M228.37,498.215c-0.332-6.316,1.688-22.794,3.763-28.699c7.566-21.53,9.025-32.141,9.025-49.666
				c0-17.524-7.775-73.088-7.775-73.088l27.012-16.214l32.38,0.909l17.98,5.93c0,0,3.807,69.907,4.887,92.438
				c0.771,16.079,1.888,30.004,3.358,48.635c0,0.001,4.122,42.494-2.246,88.047c0,0-1.421,15.126-2.059,16.451
				c-0.084,0.45-0.132,0.691-0.132,0.691s-0.256,0-0.259,0.001l-72.003-0.001V557.69c-2.397-8.332-4.674-16.702-6.855-25.093
				C232.673,521.932,228.986,509.936,228.37,498.215z"/>
			<path style="fill:#D67086;" d="M243.6,335.446l-12.291,9.243c0,0,9.35,63.994,9.849,75.161
				c0.499,11.167-13.892,55.793-13.892,55.793l59.61,7.775c0,0,8.768-47.658,11.291-71.333
				c2.523-23.675-33.543-81.391-33.543-81.391L243.6,335.446z"/>
			<path style="fill:#D67086;" d="M303.36,334.322l12.166,5.773c0,0-1.711,71.139,1.408,89.208
				c1.901,11.014,9.305,46.68,9.305,46.68l-19.25,6.588c0,0-11.851-44.614-14.206-68.289c-2.355-23.675,0.211-82.551,0.211-82.551
				L303.36,334.322z"/>
			<g>
				<g>
					<path style="fill:#292949;" d="M301,308.262c1.58,6.112-2.046,12.15-5.219,17.305c-1.296,2.106-3.305,5.036-1.633,7.44
						c1.872,2.692,6.523,2.152,8.569,0.14c1.445-1.421,2.155-3.348,2.771-5.226c2.762-8.418,6.618-20.209,5.864-29.058
						c-0.605-7.095-9.306-19.696-18.269-15.188c-1.627,0.819-2.671,2.356-3.563,3.868c-0.533,0.903-1.048,1.848-1.154,2.879
						c-0.423,4.108,3.539,5.165,6.142,7.374C297.718,300.519,299.991,304.359,301,308.262z"/>
					<path style="fill:#C67B71;" d="M286.042,330.219c5.986-0.761,10.991-4.945,13.669-9.983c2.678-5.038,3.317-10.835,3.212-16.487
						c-0.349-18.811-25.293-19.856-34.991-6.337C259.48,309.192,268.636,332.43,286.042,330.219z"/>
					<path style="fill:#292949;" d="M269.015,306.291c-0.206,2.278-1.364,4.693-1.684,7.034c-0.588,4.308,0.376,9.898-1.201,13.834
						c-4.374-0.599-9.693-3.335-12.934-6.336c-3.31-3.065-2.714-7.624-3.454-12.139c-0.684-4.177-1.557-8.374-1.318-12.6
						c1.306-23.135,24.393-35.786,44.733-25.35c7.695,3.948,11.06,13.983,5.4,20.576c-6.088,7.091-18.457,4.017-25.749,9.279
						C271.191,301.754,269.948,303.851,269.015,306.291z"/>
				</g>
				<path style="fill:#C67B71;" d="M286.544,328.278c-0.304,1.4-0.607,2.801-0.911,4.201c-0.139,0.642-0.087,2.48-0.64,2.92
					c-0.288,0.229-0.716,0.196-1.094,0.149c-1.081-0.133-10.762-1.366-10.657-1.981c0.283-1.651,0.599-3.267,1.114-4.844
					c0.416-1.274,0.575-3.67,1.343-4.636c1.644,1.124,3.344,1.82,5.28,2.369c1.869,0.53,3.747,1.029,5.634,1.496
					C286.591,328.06,286.568,328.169,286.544,328.278z"/>
			</g>
			<polygon style="fill:#D67086;" points="264.624,330.348 212.098,320.059 228.884,252.912 212.098,248.58 180.148,315.185 
				182.856,339.553 240.798,360.131 			"/>
		</g>
		<polygon style="fill:#C67B71;" points="214.516,249.204 216.704,230.863 231.05,222.587 235.193,232.465 228.343,243.706 
			228.343,252.912 		"/>
		<polygon style="fill:#DDDAE8;" points="684.294,315.727 735.196,301.106 727.615,238.833 743.319,235.042 762.813,314.103 
			751.983,326.557 708.121,342.802 688.897,316.539 		"/>
		<polygon style="fill:#B77B70;" points="741.667,235.454 743.851,221.613 730.298,215.081 718.963,229.262 729.136,238.55 		"/>
		<path style="fill:#B77B70;" d="M654.486,374.075c0.025,0.135-3.765-3.655-3.765-3.655l-1.083-8.664l13.944-5.144l2.301,6.769
			L654.486,374.075z"/>
		<polygon style="fill:#C67B71;" points="420.881,401.871 411.836,395.636 404.775,395.446 404.399,397.812 408.248,400.011 
			394.651,401.02 392.546,407.216 407.83,413.193 422.745,411.033 		"/>
		<polygon style="fill:#474EBB;" points="474.73,376.918 451.987,379.084 417.871,399.661 421.662,412.116 462.817,402.91 
			471.481,396.953 		"/>
		<polygon style="fill:#474EBB;" points="383.304,307.535 338.811,295.15 344.768,228.002 329.605,226.378 312.277,297.316 
			320.285,313.945 359.93,335.763 376.717,309.229 		"/>
		<polygon style="fill:#C67B71;" points="330.972,226.524 328.522,215.548 336.645,206.883 349.641,222.046 344.768,228.002 		"/>
	</g>
</g>
</svg>
