<?xml version="1.0" encoding="utf-8"?>
<!-- Generator: Adobe Illustrator 27.5.0, SVG Export Plug-In . SVG Version: 6.00 Build 0)  -->
<svg version="1.1" xmlns="http://www.w3.org/2000/svg" xmlns:xlink="http://www.w3.org/1999/xlink" x="0px" y="0px"
	 viewBox="0 0 750 500" style="enable-background:new 0 0 750 500;" xml:space="preserve">
<g id="BACKGROUND">
	<g>
		<defs>
			<rect id="SVGID_1_" width="750" height="500"/>
		</defs>
		<clipPath id="SVGID_00000143583222400218916870000018425425113101125013_">
			<use xlink:href="#SVGID_1_"  style="overflow:visible;"/>
		</clipPath>
		
			<rect style="clip-path:url(#SVGID_00000143583222400218916870000018425425113101125013_);fill:#C4EBFF;" width="750" height="453.325"/>
		<g style="clip-path:url(#SVGID_00000143583222400218916870000018425425113101125013_);">
			<polygon style="fill:#A7DDF2;" points="-10.531,147.764 113.918,147.764 113.918,240.362 215.089,240.362 215.089,468.288 
				-10.531,468.288 			"/>
			<g>
				<rect x="11.164" y="388.45" style="fill:#79BAE2;" width="85.535" height="30.906"/>
				<rect x="45.632" y="394.89" style="fill:#54A0C6;" width="17.919" height="8.016"/>
			</g>
			<g>
				<rect x="11.164" y="343.701" style="fill:#79BAE2;" width="85.535" height="30.907"/>
				<rect x="45.632" y="348.207" style="fill:#54A0C6;" width="17.919" height="8.016"/>
			</g>
			<g>
				<rect x="11.164" y="298.953" style="fill:#79BAE2;" width="85.535" height="30.906"/>
				<rect x="45.632" y="303.881" style="fill:#54A0C6;" width="17.919" height="8.016"/>
			</g>
			<g>
				<rect x="11.164" y="254.204" style="fill:#79BAE2;" width="85.535" height="30.907"/>
				<rect x="45.632" y="259.556" style="fill:#54A0C6;" width="17.919" height="8.016"/>
			</g>
			<g>
				<rect x="116.937" y="257.029" style="fill:#79BAE2;" width="85.536" height="30.906"/>
				<rect x="151.405" y="262.381" style="fill:#54A0C6;" width="17.919" height="8.016"/>
			</g>
			<g>
				<rect x="116.937" y="297.651" style="fill:#79BAE2;" width="85.536" height="30.906"/>
				<rect x="151.405" y="303.003" style="fill:#54A0C6;" width="17.919" height="8.016"/>
			</g>
			<g>
				<rect x="116.937" y="341.368" style="fill:#79BAE2;" width="85.536" height="30.906"/>
				<rect x="151.405" y="346.72" style="fill:#54A0C6;" width="17.919" height="8.016"/>
			</g>
			<g>
				<rect x="116.937" y="386.408" style="fill:#79BAE2;" width="85.536" height="30.907"/>
				<rect x="151.405" y="391.76" style="fill:#54A0C6;" width="17.919" height="8.016"/>
			</g>
			<g>
				<rect x="11.164" y="209.456" style="fill:#79BAE2;" width="85.535" height="30.906"/>
				<rect x="45.632" y="214.759" style="fill:#54A0C6;" width="17.919" height="8.016"/>
			</g>
			<g>
				<rect x="11.164" y="164.707" style="fill:#79BAE2;" width="85.535" height="30.906"/>
				<rect x="45.632" y="170.905" style="fill:#54A0C6;" width="17.919" height="8.016"/>
			</g>
		</g>
		<g style="clip-path:url(#SVGID_00000143583222400218916870000018425425113101125013_);">
			<rect y="451.709" style="fill:#94A3B4;" width="750" height="48.291"/>
			
				<linearGradient id="SVGID_00000107577125476020215680000014359632228436547712_" gradientUnits="userSpaceOnUse" x1="637.6999" y1="531.831" x2="617.1318" y2="255.8228">
				<stop  offset="0.1391" style="stop-color:#130C0E;stop-opacity:0"/>
				<stop  offset="0.6804" style="stop-color:#130C0E;stop-opacity:0.6512"/>
				<stop  offset="1" style="stop-color:#130C0E;stop-opacity:0.95"/>
			</linearGradient>
			<polygon style="fill:url(#SVGID_00000107577125476020215680000014359632228436547712_);" points="727.723,451.709 
				894.638,508.864 397.091,508.864 373.08,451.709 			"/>
			
				<linearGradient id="SVGID_00000066494691394183866050000016849664386830575263_" gradientUnits="userSpaceOnUse" x1="12.6289" y1="610.7981" x2="142.4237" y2="194.2746">
				<stop  offset="0.1391" style="stop-color:#130C0E;stop-opacity:0"/>
				<stop  offset="0.6804" style="stop-color:#130C0E;stop-opacity:0.6512"/>
				<stop  offset="1" style="stop-color:#130C0E;stop-opacity:0.95"/>
			</linearGradient>
			<polygon style="fill:url(#SVGID_00000066494691394183866050000016849664386830575263_);" points="173.477,453.326 
				105.643,557.393 -82.507,557.393 35.06,458.309 37.277,451.655 164.209,451.655 			"/>
			<g>
				
					<linearGradient id="SVGID_00000100362229143357077890000007540892772089299627_" gradientUnits="userSpaceOnUse" x1="604.3096" y1="644.8522" x2="604.3096" y2="13.4799">
					<stop  offset="0.1391" style="stop-color:#130C0E;stop-opacity:0"/>
					<stop  offset="0.6804" style="stop-color:#130C0E;stop-opacity:0.6512"/>
					<stop  offset="1" style="stop-color:#130C0E;stop-opacity:0.95"/>
				</linearGradient>
				<polygon style="fill:url(#SVGID_00000100362229143357077890000007540892772089299627_);" points="494.615,456.115 
					568.101,536.82 714.004,536.82 578.993,456.414 				"/>
			</g>
			
				<linearGradient id="SVGID_00000011731210183534783160000004633566590038171305_" gradientUnits="userSpaceOnUse" x1="847.243" y1="535.6776" x2="605.7208" y2="366.7559">
				<stop  offset="0.1391" style="stop-color:#130C0E;stop-opacity:0"/>
				<stop  offset="0.6804" style="stop-color:#130C0E;stop-opacity:0.6512"/>
				<stop  offset="1" style="stop-color:#130C0E;stop-opacity:0.95"/>
			</linearGradient>
			<polyline style="opacity:0.17;fill:url(#SVGID_00000011731210183534783160000004633566590038171305_);" points="652.489,454.38 
				814,536.635 927.127,536.635 707.188,454.38 652.489,454.38 			"/>
			
				<linearGradient id="SVGID_00000088812425061512191200000007694331628807518892_" gradientUnits="userSpaceOnUse" x1="223.2828" y1="538.8842" x2="223.2828" y2="433.7125">
				<stop  offset="0.1391" style="stop-color:#130C0E;stop-opacity:0"/>
				<stop  offset="0.6804" style="stop-color:#130C0E;stop-opacity:0.6512"/>
				<stop  offset="1" style="stop-color:#130C0E;stop-opacity:0.95"/>
			</linearGradient>
			<polyline style="opacity:0.34;fill:url(#SVGID_00000088812425061512191200000007694331628807518892_);" points="177.482,452.411 
				131.58,534.665 314.986,534.665 296.969,452.411 177.482,452.411 			"/>
			
				<linearGradient id="SVGID_00000070829288416199448050000006479004677743311019_" gradientUnits="userSpaceOnUse" x1="442.4371" y1="580.2574" x2="389.9635" y2="242.4137">
				<stop  offset="0.1391" style="stop-color:#130C0E;stop-opacity:0"/>
				<stop  offset="0.6804" style="stop-color:#130C0E;stop-opacity:0.6512"/>
				<stop  offset="1" style="stop-color:#130C0E;stop-opacity:0.95"/>
			</linearGradient>
			<polygon style="fill:url(#SVGID_00000070829288416199448050000006479004677743311019_);" points="353.45,456.299 
				381.073,537.004 505.453,537.004 450.42,455.859 			"/>
		</g>
	</g>
</g>
<g id="OBJECTS">
	<g>
		<g>
			<polygon style="fill:#8290A1;" points="687.048,204.962 727.723,204.962 727.723,456.374 577.855,456.374 577.855,327.215 
				635.608,327.215 			"/>
			<g>
				<path style="fill:#94A3B4;" d="M637.335,333.455l-214.121,1.101l49.714-128.493l214.121-1.101L637.335,333.455z"/>
			</g>
			<g>
				<polygon style="fill:#3E3E64;" points="624.656,316.056 450.207,316.056 485.606,224.563 660.055,224.563 				"/>
			</g>
			<rect x="367.394" y="333.455" style="fill:#596B85;" width="210.461" height="122.919"/>
		</g>
		<g>
			<g>
				<g>
					<path style="fill:#FFBA95;" d="M561.121,445.851c0,0-7.299,3.883-13.652,2.31c-5.039-1.258-6.138-5.142-6.138-5.142
						s1.273-5.908-3.064-19.76c-3.044-9.713-11.89-29.503-16.807-44.476c-2.107-6.419-3.492-11.945-3.39-15.425
						c0.227-7.854,12.363-4.052,20.191-0.769c4.039,1.694,6.947,5.203,7.798,9.375l1.391,6.819L561.121,445.851z"/>
					<path style="fill:#FF7668;" d="M547.449,378.784h-25.99c-2.107-6.419-3.492-11.945-3.39-15.425
						c0.227-7.854,12.363-4.052,20.191-0.769c4.039,1.694,6.947,5.203,7.798,9.375L547.449,378.784z"/>
					<path style="fill:#2E2E4C;" d="M539.092,441.021c0,0,0.398-3.581,3.324-3.783c2.926-0.202,5.152,4.769,11.354,4.533
						c2.717-0.104,4.344-0.625,5.305-1.146c0.848-0.46,1.91-0.227,2.459,0.548c1.208,1.703,3.278,4.345,5.754,6.359
						c3.971,3.23,9.615,2.422,11.705,8.881h-24.454l-7.128-5.248v5.248h-8.966C538.444,456.414,537.44,449.446,539.092,441.021z"/>
				</g>
				<g>
					<path style="fill:#FFBA95;" d="M514.751,378.784c-0.977,18.551-2.616,55.467-0.764,66.193
						c-1.364,1.534-4.103,5.496-9.111,4.178c-5.009-1.317-7.572-4.495-8.205-10.126c-1.409-12.524-4.55-29.041-6.373-42.018
						c-0.916-6.508-0.397-12.908,0.316-18.227c0.713-5.289,1.619-9.507,1.507-11.699l23.241,0.875
						C515.362,367.96,515.097,372.227,514.751,378.784z"/>
					<path style="fill:#FF7668;" d="M515.362,367.96c0,0-0.265,4.267-0.611,10.824h-24.137c0.713-5.289,1.619-9.507,1.507-11.699
						L515.362,367.96z"/>
					<path style="fill:#2E2E4C;" d="M535.881,456.41h-28.734l-4.337-5.722v5.427h-8.195c0,0-1.255-14.336,1.286-18.68
						c1.769-3.023,7.224-0.392,9.952,3.491c2.738,3.874,7.389-1.239,8.193-3.569C523.198,452.087,534.293,447.837,535.881,456.41z"
						/>
				</g>
				<g>
					<g>
						<path style="fill:#2E2E4C;" d="M538.146,297.64l13.587,74.48l-64.337,0.386c0,0-5.195-31.259-4.795-49.01
							s7.992-28.171,7.992-28.171L538.146,297.64z"/>
					</g>
				</g>
				<g>
					<path style="fill:#FFBA95;" d="M543.168,239.283c0.074-0.434,0.867-2.692,1.507-4.479c0.484-1.35,1.759-2.283,3.236-2.362
						c2.372-0.126,4.674-0.066,5.682-0.74c1.594-1.066,1.349-7.225,1.349-10.304c0-3.079,0.368-9.238-1.962-11.844
						c-2.33-2.606-14.104-4.619-19.868-1.184c-5.764,3.435-5.028,12.081-4.047,15.753c0.981,3.672,1.472,5.448,1.472,5.448
						l-3.066,9.357L543.168,239.283z"/>
					<path style="fill:#3E3E64;" d="M554.498,211.189c-0.563,3.331-4.686,5.759-8.276,8.148c-2.413,1.601-3.434,6.246-3.846,9.136
						c-0.197,1.386-1.393,2.421-2.818,2.421l-9.495-0.273c-0.443-2.214-3.07-5.165-4.286-8.671
						c-1.428-4.098-2.021-8.595,1.398-12.314c3.701-4.021,9.674-5.04,15.889-4.361c0.915,0.097,1.84,0.233,2.755,0.398
						C552.969,206.994,555.061,207.849,554.498,211.189z"/>
					<path style="fill:#272744;" d="M540.369,219.367c-1.188,1.333-2.592,2.197-4.073,2.729c-7.84,2.818-14.69-6.234-9.223-12.349
						c0.033-0.037,0.067-0.075,0.101-0.112c2.35-2.553,5.616-3.896,9.278-4.362c4.066-0.518,7.53,2.881,7.063,6.817
						C543.226,214.529,542.355,217.126,540.369,219.367z"/>
					<ellipse style="fill:#3E3E64;" cx="528.601" cy="207.923" rx="12.714" ry="12.279"/>
					<path style="fill:#FF7668;" d="M549.845,218.381c0,0-3.679,0.823-3.679,3.474s3.396,3.581,3.396,3.324
						c0-0.126-1.443-1.659-1.335-3.282C548.339,220.205,549.845,218.381,549.845,218.381z"/>
					<path style="fill:#EF9F7D;" d="M550.379,218.137c-0.445-0.352-0.728-0.195-1.375,0.781c-0.647,0.977-1.376,2.266-1.214,3.36
						c0.162,1.094,0.89,3.79,2.023,3.282c1.133-0.508-0.647-2.344-0.566-3.399C549.327,221.107,551.425,218.964,550.379,218.137z"/>
				</g>
				<g>
					<path style="fill:#4482CC;" d="M524.642,237.901c0,0-15.53,0.251-20.634,4.978c-6.681,6.188-3.546,29.105-3.767,39.164
						C511.986,264.922,524.642,237.901,524.642,237.901z"/>
					<path style="fill:#4482CC;" d="M523.585,239.103c0,0,3.392-5.309,5.38-5.534c1.988-0.226,12.865,0,17.66,6.777
						C536.918,242.83,523.585,239.103,523.585,239.103z"/>
					<path style="fill:#6198E5;" d="M508.651,243.558c-4.318,4.456-5.21,9.191-5.447,16.387c-0.037,1.129-0.068,2.257-0.095,3.358
						c-0.175,7.287-2.729,14.328-7.288,20.137c-3.336,4.251-7.162,9.126-9.885,12.597c5.322,10.394,13.483,11.307,20.934,12.678
						c7.451,1.371,35.836-0.182,35.718-0.524c-0.118-0.343-5.298-12.693,0.828-25.289c3.021-6.212,16.203-16.333,14.547-27.412
						c-1.656-11.079-6.387-15.533-12.064-16.79C540.223,237.444,516.569,235.388,508.651,243.558z"/>
					<path style="fill:#4482CC;" d="M522.623,254.864c0,0,0.222,21.615-12.632,35.526
						C514.202,276.907,522.623,254.864,522.623,254.864z"/>
				</g>
				<g>
					<g>
						<path style="fill:#FFBA95;" d="M609.578,269.433c-1.384,0.049-4.815-0.678-5.426-0.816c0.305,0.088,1.303,0.472,0.916,1.74
							c-0.458,1.504-2.107,1.239-2.107,1.239s0.367,1.947-1.741,1.947c-0.825,1.947-0.998,2.34-3.023,1.77
							c-2.016-0.56-4.479-2.035-4.479-2.035l-8.887,3.893l-1.099-9.104l6.047-1.858c0,0,0,0,0.01-0.01
							c0.214-0.285,4.469-5.869,5.935-5.918c4.581-0.157,7.299,4.336,7.462,4.621c0.01,0.01,0.01,0.01,0.01,0.01
							s7.37,2.222,8.012,3.018C611.848,268.725,611.105,269.374,609.578,269.433z"/>
						<path style="fill:#FF7668;" d="M603.185,264.901c-0.265-0.089-4.561-1.603-6.546-1.829c-1.985-0.226-6.576,2.939-6.851,3.126
							c0.214-0.285,4.469-5.869,5.935-5.918C600.304,260.123,603.022,264.616,603.185,264.901z"/>
					</g>
					<g>
						<path style="fill:#6198E5;" d="M545.664,238.586c-4.924-0.359-5.492,6.038-4.825,14.199c0.451,5.511,2.93,17.487,4.971,26.137
							c0.982,4.159,1.862,7.549,2.367,9.083c1.557,4.725,5.288,6.58,11.205,4.579c5.918-2.002,29.045-13.813,29.045-13.813
							s1.112-10.308-4.67-12.241c-12.231,2.792-20.014,4.725-20.014,4.725s-3.982-18.871-4.729-22.764
							C557.912,242.741,552.794,239.106,545.664,238.586z"/>
						<path style="fill:#4482CC;" d="M545.81,279.422c-0.232,0-0.441-0.156-0.496-0.387c-2.163-9.164-4.542-20.822-4.983-26.21
							c-0.023-0.275,0.186-0.517,0.466-0.538c0.277-0.012,0.526,0.183,0.548,0.458c0.436,5.337,2.805,16.936,4.961,26.064
							c0.064,0.27-0.107,0.538-0.381,0.601C545.887,279.418,545.848,279.422,545.81,279.422z"/>
					</g>
				</g>
			</g>
		</g>
		<g>
			<g>
				<g>
					<path style="fill:#4DBB00;" d="M680.884,378.987c0.799,1.596,2.107,2.873,3.228,4.261c0.049,0.06,0.094,0.124,0.143,0.184
						c2.424,3.072,3.952,6.812,4.496,10.677c0.27,1.933,0.298,3.903,0.063,5.841c-0.113,0.969-0.295,1.93-0.541,2.875
						c-0.107,0.412-0.376,0.937-0.353,1.361c0.092,1.519,1.097,3.148,2.221,4.105c0.734,0.627,1.597,1.068,2.52,1.329
						c0.711,0.203,1.458,0.298,2.2,0.28c1.747-0.029,3.478-0.658,4.745-1.864c3.823-3.642,2.737-10.499,6.492-14.218
						c3.313-3.288,9.074-2.794,12.822-5.351c0.459-0.317,0.892-0.677,1.281-1.096c3.247-3.475,2.159-8.977,1.142-13.617
						c-0.656-2.982-1.063-6.302-0.117-9.27c0.486-1.532,1.387-2.415,2.377-3.606c2.827-3.395,8.694-3.151,10.78-7.317
						c1.561-3.12-0.372-6.812-2.473-9.595c-1.818-2.412-4.531-5.489-4.241-8.705c0.292-3.24,2.686-6.015,4.82-8.278
						c2.844-3.016,5.931-6.915,4.643-10.852c-1.435-4.377-7.412-5.726-9.327-9.913c-1.192-2.613-0.495-5.689,0.598-8.342
						c1.097-2.653,2.582-5.204,2.979-8.047c0.424-3.024-0.92-5.077-2.597-7.403c-0.865-1.201-2.094-1.908-3.491-2.406
						c-5.237-1.868-11.934,0.643-14.19,5.839c-1.953,4.499-0.995,10.347-4.477,13.799c-3.352,3.326-9.188,2.657-12.802,5.69
						c-4.099,3.442-3.531,9.851-2.124,15.012c1.407,5.164,3.24,10.917,0.662,15.604c-2.735,4.975-9.876,7.434-10.307,13.094
						c-0.432,5.692,6.615,10.35,5.212,15.884c-0.479,1.878-1.852,3.338-3.187,4.666c-0.659,0.654-1.338,1.296-1.962,1.985
						c-0.537,0.589-1.163,1.241-1.411,2.015C680.132,375.393,680.019,377.273,680.884,378.987z"/>
					<path style="fill:#027F02;" d="M692.661,409.619c0.711,0.203,1.458,0.298,2.2,0.28c1.456-8.663,3.009-17.324,4.685-25.949
						c3.099-15.968,6.541-31.886,10.109-47.755c1.751-7.786,3.474-15.582,5.433-23.323c0.999-3.953,2.022-7.899,3.097-11.835
						c1.129-4.14,1.846-8.407,3.015-12.528c0.136-0.484-0.552-0.742-0.74-0.27c-1.761,4.43-3.755,8.682-5.247,13.23
						c-1.417,4.325-2.734,8.677-3.979,13.049c-4.411,15.487-7.904,31.182-11.242,46.928
						C696.633,377.317,692.681,393.321,692.661,409.619z"/>
					<path style="fill:#027F02;" d="M696.877,309.346c4.471,6.058,8.811,12.058,13.742,17.765c1.263,1.462-0.915,3.546-2.188,2.072
						c-4.936-5.713-9.393-12.413-12.096-19.477C696.212,309.385,696.639,309.023,696.877,309.346z"/>
					<path style="fill:#027F02;" d="M708.137,329.966c1.445-1.454,3.714-2.171,5.532-3.081c1.98-0.991,3.928-2.04,5.879-3.087
						c3.715-1.993,7.431-4.018,11.1-6.094c0.369-0.209,0.706,0.34,0.399,0.608c-3.329,2.903-6.756,5.555-10.467,7.959
						c-1.782,1.154-3.612,2.239-5.451,3.3c-1.882,1.085-3.828,2.483-6.009,2.753C707.87,332.479,707.357,330.75,708.137,329.966z"/>
					<path style="fill:#027F02;" d="M701.778,356.653c0.953-1.309,1.962-1.263,3.458-1.603c1.652-0.376,3.286-0.95,4.867-1.553
						c3.827-1.459,7.631-3.285,11.209-5.294c0.33-0.185,0.584,0.277,0.348,0.52c-2.625,2.7-5.538,4.988-8.917,6.683
						c-1.562,0.783-3.173,1.471-4.809,2.083c-1.846,0.691-3.771,1.879-5.664,0.977C701.671,358.18,701.378,357.203,701.778,356.653z
						"/>
					<path style="fill:#027F02;" d="M691.969,345.049c3.519,6.434,8.223,12.584,10.892,19.432c0.536,1.376-1.538,2.182-2.291,1.016
						c-1.928-2.988-3.268-6.539-4.706-9.788c-1.523-3.44-2.944-6.941-4.555-10.34C691.105,344.94,691.743,344.637,691.969,345.049z"
						/>
					<path style="fill:#027F02;" d="M696.077,385.251c0.63-1.478,2.175-2.142,3.472-3.01c1.424-0.954,2.86-1.879,4.318-2.78
						c3.063-1.893,6.137-3.654,9.419-5.14c0.597-0.27,1.035,0.533,0.575,0.948c-2.712,2.441-5.594,4.572-8.593,6.647
						c-1.417,0.981-2.845,1.931-4.296,2.86c-1.231,0.788-2.428,1.919-3.944,1.867C696.284,386.617,695.765,385.982,696.077,385.251z
						"/>
					<path style="fill:#027F02;" d="M685.035,374.967c1.984,2.291,3.942,4.575,5.849,6.935c2.086,2.582,4.467,4.918,6.534,7.504
						c1.212,1.517-0.7,3.3-2.165,2.06c-4.857-4.111-8.74-10.152-10.827-16.1C684.296,374.994,684.743,374.63,685.035,374.967z"/>
				</g>
				<g>
					<path style="fill:#4DBB00;" d="M684.234,376.525c-0.324,1.755-1.225,3.346-1.916,4.991c-0.03,0.071-0.056,0.145-0.086,0.216
						c-1.474,3.625-1.902,7.642-1.349,11.507c0.278,1.932,0.8,3.832,1.564,5.628c0.378,0.899,0.82,1.772,1.319,2.611
						c0.218,0.366,0.621,0.795,0.718,1.209c0.334,1.485-0.178,3.329-0.992,4.56c-0.53,0.807-1.237,1.47-2.052,1.977
						c-0.627,0.393-1.318,0.692-2.035,0.88c-1.686,0.458-3.524,0.336-5.076-0.471c-4.685-2.435-5.549-9.323-10.19-11.852
						c-4.096-2.237-9.493-0.16-13.804-1.574c-0.529-0.177-1.045-0.402-1.535-0.696c-4.085-2.435-4.57-8.023-4.884-12.762
						c-0.199-3.047-0.731-6.349-2.465-8.936c-0.893-1.336-2.004-1.934-3.286-2.803c-3.66-2.475-9.227-0.609-12.39-4.03
						c-2.367-2.563-1.537-6.647-0.293-9.905c1.076-2.822,2.825-6.533,1.653-9.541c-1.181-3.031-4.253-5.031-6.932-6.611
						c-3.571-2.106-7.62-4.993-7.478-9.133c0.162-4.603,5.527-7.561,6.202-12.116c0.418-2.841-1.106-5.602-2.894-7.847
						c-1.792-2.243-3.928-4.281-5.1-6.901c-1.249-2.787-0.528-5.133,0.436-7.833c0.497-1.394,1.481-2.415,2.684-3.282
						c4.51-3.251,11.642-2.702,15.254,1.662c3.127,3.779,3.833,9.662,8.138,12.01c4.144,2.263,9.564-0.003,13.879,1.905
						c4.895,2.166,6.131,8.481,6.215,13.829c0.085,5.352-0.077,11.387,3.704,15.173c4.01,4.018,11.554,4.394,13.541,9.711
						c1.998,5.347-3.476,11.781-0.589,16.707c0.982,1.671,2.707,2.691,4.359,3.596c0.815,0.445,1.645,0.872,2.437,1.361
						c0.68,0.416,1.463,0.869,1.916,1.543C683.957,372.864,684.588,374.638,684.234,376.525z"/>
					<path style="fill:#027F02;" d="M681.44,409.224c-0.627,0.393-1.318,0.692-2.035,0.88c-3.807-7.916-7.708-15.804-11.717-23.622
						c-7.417-14.476-15.15-28.809-22.991-43.06c-3.847-6.992-7.67-14.002-11.705-20.892c-2.059-3.519-4.139-7.026-6.267-10.507
						c-2.235-3.663-4.111-7.562-6.38-11.195c-0.265-0.427,0.323-0.866,0.635-0.465c2.924,3.765,6.021,7.295,8.719,11.249
						c2.564,3.76,5.039,7.574,7.451,11.428c8.544,13.65,16.264,27.754,23.848,41.95C668.642,379.301,676.888,393.575,681.44,409.224
						z"/>
					<path style="fill:#027F02;" d="M649.505,314.079c-2.61,7.062-5.11,14.033-8.259,20.886c-0.807,1.756,1.865,3.151,2.678,1.382
						c3.152-6.861,5.571-14.535,6.202-22.073C650.154,313.932,649.644,313.703,649.505,314.079z"/>
					<path style="fill:#027F02;" d="M644.424,337.017c-1.793-0.994-4.171-1.053-6.17-1.421c-2.177-0.401-4.341-0.867-6.506-1.33
						c-4.123-0.881-8.255-1.793-12.357-2.767c-0.413-0.098-0.584,0.523-0.214,0.695c4.005,1.863,8.035,3.457,12.267,4.734
						c2.033,0.613,4.092,1.147,6.153,1.654c2.109,0.519,4.367,1.321,6.537,0.974C645.378,339.357,645.39,337.553,644.424,337.017z"
						/>
					<path style="fill:#027F02;" d="M657.953,360.883c-1.28-0.992-2.236-0.668-3.767-0.579c-1.691,0.099-3.421,0.001-5.107-0.138
						c-4.082-0.337-8.243-1.033-12.239-1.969c-0.369-0.086-0.484,0.429-0.189,0.596c3.273,1.864,6.707,3.251,10.423,3.939
						c1.718,0.318,3.456,0.53,5.198,0.664c1.965,0.151,4.145,0.756,5.712-0.637C658.48,362.32,658.491,361.3,657.953,360.883z"/>
					<path style="fill:#027F02;" d="M664.148,347.009c-1.591,7.159-4.399,14.375-5.058,21.695c-0.133,1.471,2.084,1.669,2.483,0.339
						c1.021-3.406,1.321-7.19,1.799-10.711c0.506-3.728,0.898-7.486,1.499-11.198C664.947,346.664,664.25,346.551,664.148,347.009z"
						/>
					<path style="fill:#027F02;" d="M671.383,386.767c-1.016-1.244-2.685-1.452-4.172-1.926c-1.633-0.52-3.269-1.009-4.92-1.469
						c-3.468-0.966-6.911-1.803-10.477-2.318c-0.649-0.094-0.846,0.8-0.289,1.07c3.284,1.591,6.645,2.836,10.102,3.995
						c1.634,0.548,3.27,1.064,4.922,1.552c1.402,0.414,2.866,1.168,4.308,0.697C671.563,388.137,671.885,387.383,671.383,386.767z"
						/>
					<path style="fill:#027F02;" d="M679.129,373.819c-1.268,2.752-2.515,5.491-3.69,8.288c-1.286,3.06-2.923,5.966-4.189,9.025
						c-0.743,1.794,1.59,2.975,2.652,1.377c3.522-5.3,5.572-12.183,5.922-18.476C679.846,373.639,679.315,373.414,679.129,373.819z"
						/>
				</g>
				<g>
					<path style="fill:#047E04;" d="M698.198,389.329c-1.02,1.465-2.497,2.541-3.806,3.754c-0.057,0.052-0.111,0.109-0.168,0.161
						c-2.84,2.692-4.888,6.174-5.981,9.922c-0.544,1.874-0.854,3.82-0.9,5.772c-0.027,0.975,0.015,1.952,0.123,2.922
						c0.047,0.423,0.237,0.981,0.154,1.398c-0.309,1.49-1.537,2.958-2.787,3.743c-0.816,0.516-1.734,0.828-2.685,0.953
						c-0.733,0.099-1.486,0.086-2.217-0.039c-1.725-0.28-3.348-1.15-4.429-2.525c-3.261-4.153-1.203-10.783-4.385-15.003
						c-2.807-3.729-8.58-4.067-11.922-7.135c-0.409-0.38-0.786-0.797-1.11-1.268c-2.715-3.905-0.848-9.194,0.823-13.64
						c1.077-2.857,1.956-6.084,1.446-9.157c-0.261-1.586-1.026-2.589-1.835-3.91c-2.311-3.766-8.152-4.366-9.619-8.787
						c-1.098-3.312,1.346-6.688,3.824-9.141c2.145-2.126,5.271-4.783,5.446-8.007c0.176-3.248-1.795-6.339-3.583-8.884
						c-2.382-3.393-4.878-7.695-3.038-11.406c2.048-4.126,8.157-4.603,10.653-8.473c1.554-2.415,1.306-5.559,0.605-8.342
						c-0.705-2.783-1.809-5.521-1.794-8.391c0.014-3.054,1.639-4.892,3.632-6.953c1.028-1.065,2.346-1.588,3.8-1.881
						c5.45-1.098,11.718,2.348,13.206,7.814c1.287,4.733-0.499,10.383,2.451,14.299c2.84,3.772,8.712,3.947,11.853,7.467
						c3.563,3.994,2.081,10.256-0.051,15.161c-2.133,4.909-4.773,10.339-2.893,15.348c1.993,5.316,8.708,8.774,8.322,14.437
						c-0.389,5.695-8.032,9.294-7.437,14.972c0.205,1.927,1.354,3.569,2.485,5.075c0.558,0.742,1.138,1.474,1.657,2.246
						c0.447,0.66,0.973,1.395,1.107,2.197C699.457,385.88,699.3,387.757,698.198,389.329z"/>
					<path style="fill:#004D02;" d="M682.148,417.955c-0.733,0.099-1.486,0.086-2.217-0.039c-0.198-8.782-0.492-17.576-0.915-26.352
						c-0.776-16.247-1.899-32.494-3.154-48.711c-0.616-7.957-1.202-15.919-2.031-23.861c-0.422-4.055-0.868-8.108-1.368-12.157
						c-0.523-4.259-0.621-8.585-1.186-12.831c-0.065-0.498,0.652-0.655,0.771-0.161c1.107,4.637,2.471,9.131,3.295,13.846
						c0.782,4.484,1.461,8.979,2.065,13.485c2.144,15.96,3.349,31.994,4.393,48.055
						C682.852,385.417,684.466,401.822,682.148,417.955z"/>
					<path style="fill:#004D02;" d="M692.36,318.114c-5.294,5.354-10.45,10.67-16.148,15.61c-1.46,1.266,0.397,3.64,1.868,2.365
						c5.705-4.946,11.077-10.937,14.765-17.54C693.013,318.248,692.642,317.829,692.36,318.114z"/>
					<path style="fill:#004D02;" d="M678.259,336.906c-1.222-1.646-3.364-2.681-5.033-3.843c-1.817-1.265-3.595-2.582-5.376-3.898
						c-3.391-2.506-6.778-5.042-10.111-7.624c-0.335-0.26-0.748,0.235-0.482,0.545c2.878,3.351,5.89,6.467,9.217,9.378
						c1.598,1.398,3.253,2.734,4.921,4.047c1.707,1.344,3.432,3.006,5.551,3.587C678.162,339.431,678.918,337.793,678.259,336.906z"
						/>
					<path style="fill:#004D02;" d="M680.724,364.229c-0.756-1.432-1.761-1.532-3.192-2.083c-1.581-0.609-3.116-1.412-4.594-2.235
						c-3.578-1.993-7.08-4.346-10.333-6.848c-0.3-0.231-0.618,0.19-0.419,0.465c2.211,3.049,4.765,5.731,7.866,7.893
						c1.433,0.999,2.929,1.91,4.46,2.751c1.728,0.949,3.463,2.401,5.465,1.779C680.61,365.755,681.041,364.831,680.724,364.229z"/>
					<path style="fill:#004D02;" d="M692.096,354.152c-4.406,5.863-9.943,11.275-13.567,17.669
						c-0.728,1.285,1.209,2.381,2.121,1.334c2.337-2.68,4.172-6.003,6.062-9.012c2-3.186,3.909-6.447,5.991-9.58
						C692.966,354.168,692.378,353.777,692.096,354.152z"/>
					<path style="fill:#004D02;" d="M682.263,393.349c-0.412-1.553-1.845-2.431-3.004-3.477c-1.272-1.148-2.561-2.27-3.874-3.371
						c-2.759-2.313-5.549-4.497-8.585-6.438c-0.552-0.353-1.101,0.379-0.705,0.856c2.333,2.805,4.881,5.327,7.55,7.811
						c1.262,1.174,2.538,2.319,3.841,3.447c1.106,0.956,2.128,2.248,3.635,2.414C681.862,394.671,682.467,394.117,682.263,393.349z"
						/>
					<path style="fill:#004D02;" d="M694.666,384.755c-2.292,1.983-4.558,3.962-6.784,6.024c-2.435,2.256-5.126,4.226-7.542,6.489
						c-1.417,1.327,0.219,3.366,1.847,2.349c5.397-3.372,10.106-8.794,13.024-14.38
						C695.393,384.888,695.003,384.464,694.666,384.755z"/>
				</g>
				<g>
					<polygon style="fill:#BC4F2E;" points="639.28,401.449 652.489,454.38 707.188,454.38 720.398,401.449 					"/>
					<g>
						<polygon style="fill:#9E3F2A;" points="685.747,454.38 697.046,454.38 704.208,401.449 688.136,401.449 						"/>
						<polygon style="fill:#9E3F2A;" points="655.999,401.449 663.16,454.38 674.454,454.38 672.07,401.449 						"/>
					</g>
				</g>
				
					<rect x="633.611" y="392.89" transform="matrix(-1 -1.224647e-16 1.224647e-16 -1 1359.6776 798.8138)" style="fill:#BC4F2E;" width="92.456" height="13.033"/>
			</g>
		</g>
		<g>
			<g>
				<g>
					<polygon style="fill:#80BCE0;" points="332.589,90.379 328.635,106.284 371.878,65.351 					"/>
					<polygon style="fill:#ABD2EF;" points="336.829,93.52 328.635,106.284 371.878,65.351 					"/>
					<polygon style="fill:#FFFFFF;" points="317.185,86.84 371.878,65.351 332.589,90.379 					"/>
					<polygon style="fill:#FFFFFF;" points="371.878,65.351 336.829,93.52 345.442,114.377 					"/>
				</g>
				<g>
					<path style="fill:#C9E1FF;" d="M315.286,115.503c0.146,0,0.294-0.038,0.429-0.118c1.46-0.866,2.906-1.796,4.301-2.76
						c0.382-0.265,0.478-0.789,0.213-1.172c-0.265-0.382-0.789-0.478-1.172-0.213c-1.362,0.942-2.776,1.85-4.202,2.697
						c-0.399,0.237-0.531,0.754-0.293,1.154C314.719,115.356,315,115.503,315.286,115.503z"/>
					<path style="fill:#79BAE2;" d="M259.208,179.806c-0.372-0.278-0.45-0.805-0.172-1.178c1.975-2.65,3.849-5.446,5.571-8.312
						c0.239-0.398,0.756-0.528,1.156-0.288c0.398,0.24,0.527,0.757,0.288,1.155c-1.751,2.914-3.657,5.757-5.665,8.451
						c-0.165,0.222-0.418,0.339-0.676,0.339C259.535,179.973,259.359,179.919,259.208,179.806z M269.741,162.62
						c-0.419-0.2-0.598-0.702-0.397-1.122c1.428-2.994,2.733-6.099,3.878-9.229c0.16-0.436,0.645-0.66,1.08-0.501
						c0.437,0.16,0.661,0.644,0.502,1.08c-1.164,3.179-2.489,6.333-3.941,9.375c-0.144,0.303-0.446,0.479-0.76,0.479
						C269.981,162.702,269.858,162.676,269.741,162.62z M276.819,143.746c-0.45-0.118-0.718-0.579-0.599-1.029
						c0.848-3.22,1.552-6.514,2.093-9.79c0.075-0.458,0.501-0.777,0.968-0.693c0.459,0.076,0.769,0.509,0.693,0.968
						c-0.549,3.327-1.264,6.673-2.126,9.945c-0.099,0.377-0.44,0.627-0.813,0.627C276.963,143.774,276.892,143.765,276.819,143.746z
						 M276.009,125.463c-0.007-0.465,0.365-0.848,0.829-0.854c3.31-0.047,6.657-0.312,9.947-0.79
						c0.463-0.074,0.887,0.252,0.954,0.712c0.068,0.46-0.251,0.887-0.712,0.954c-3.363,0.488-6.782,0.76-10.164,0.808
						c-0.004,0-0.008,0-0.012,0C276.392,126.292,276.016,125.923,276.009,125.463z M266.679,125.76
						c-1.845-0.221-3.699-0.514-5.51-0.869c-1.502-0.295-3.02-0.643-4.512-1.034c-0.45-0.118-0.719-0.578-0.601-1.028
						c0.118-0.45,0.58-0.715,1.029-0.601c1.458,0.382,2.941,0.722,4.408,1.01c1.771,0.348,3.583,0.633,5.387,0.849
						c0.461,0.056,0.791,0.474,0.736,0.936c-0.052,0.428-0.415,0.742-0.835,0.742C266.747,125.766,266.713,125.764,266.679,125.76z
						 M280.256,123.883c-0.464-0.032-0.814-0.434-0.783-0.898c0.161-2.347,0.243-4.718,0.243-7.047c0-0.987-0.015-1.972-0.044-2.958
						c-0.013-0.465,0.353-0.853,0.817-0.867c0.46-0.002,0.852,0.353,0.867,0.817c0.029,1.002,0.044,2.004,0.044,3.007
						c0,2.367-0.083,4.777-0.246,7.162c-0.03,0.444-0.4,0.784-0.839,0.784C280.295,123.885,280.275,123.884,280.256,123.883z
						 M295.964,122.79c-0.126-0.448,0.136-0.913,0.584-1.038c3.205-0.897,6.372-2.008,9.414-3.305
						c0.427-0.182,0.922,0.016,1.104,0.445c0.183,0.428-0.016,0.922-0.445,1.104c-3.108,1.325-6.345,2.462-9.62,3.377
						c-0.076,0.021-0.152,0.031-0.228,0.031C296.406,123.405,296.067,123.161,295.964,122.79z M246.988,120.613
						c-3.128-1.286-6.208-2.795-9.157-4.486c-0.404-0.231-0.543-0.746-0.312-1.148c0.231-0.404,0.747-0.543,1.149-0.312
						c2.886,1.654,5.9,3.131,8.96,4.389c0.431,0.177,0.635,0.668,0.459,1.098c-0.134,0.326-0.448,0.522-0.779,0.522
						C247.201,120.676,247.093,120.656,246.988,120.613z M229.33,110.501c-2.709-2.055-5.302-4.301-7.707-6.676
						c-0.331-0.327-0.335-0.86-0.008-1.19c0.328-0.331,0.861-0.335,1.191-0.008c2.354,2.324,4.891,4.522,7.542,6.533
						c0.37,0.281,0.443,0.809,0.162,1.18c-0.166,0.218-0.417,0.333-0.672,0.333C229.661,110.672,229.482,110.616,229.33,110.501z
						 M278.879,103.009c-0.434-3.316-1.044-6.625-1.814-9.835c-0.108-0.452,0.17-0.907,0.622-1.015
						c0.455-0.105,0.906,0.171,1.015,0.622c0.783,3.268,1.403,6.636,1.845,10.01c0.061,0.461-0.264,0.884-0.725,0.944
						c-0.037,0.005-0.074,0.007-0.11,0.007C279.296,103.742,278.935,103.432,278.879,103.009z M214.855,96.198
						c-1.241-1.602-2.422-3.263-3.511-4.938c-0.77-1.181-1.493-2.379-2.151-3.561c-0.226-0.406-0.08-0.919,0.326-1.145
						c0.409-0.228,0.92-0.079,1.145,0.326c0.639,1.148,1.342,2.312,2.09,3.461c1.065,1.636,2.22,3.26,3.432,4.825
						c0.285,0.368,0.217,0.896-0.15,1.181c-0.154,0.118-0.335,0.176-0.515,0.176C215.27,96.524,215.021,96.412,214.855,96.198z
						 M274.213,83.593c-0.631-1.758-1.322-3.51-2.054-5.207c-0.585-1.354-1.208-2.696-1.852-3.99
						c-0.207-0.416-0.037-0.922,0.379-1.129c0.415-0.207,0.922-0.037,1.129,0.379c0.657,1.32,1.292,2.691,1.889,4.073
						c0.746,1.729,1.45,3.514,2.093,5.304c0.157,0.437-0.071,0.92-0.508,1.077c-0.094,0.034-0.19,0.049-0.285,0.049
						C274.66,84.151,274.336,83.937,274.213,83.593z M205.159,78.265c-0.888-3.029-1.339-5.993-1.339-8.808
						c0-0.48,0.013-0.96,0.04-1.442c0.026-0.465,0.43-0.822,0.888-0.793c0.464,0.026,0.819,0.423,0.793,0.888
						c-0.025,0.45-0.037,0.898-0.037,1.347c0,2.655,0.428,5.459,1.271,8.334c0.131,0.446-0.125,0.913-0.571,1.045
						c-0.079,0.023-0.159,0.034-0.237,0.034C205.602,78.87,205.266,78.632,205.159,78.265z M265.277,65.787
						c-1.943-2.838-4.048-5.436-6.26-7.721c-0.323-0.334-0.315-0.867,0.02-1.19c0.335-0.322,0.867-0.316,1.191,0.02
						c2.276,2.353,4.444,5.024,6.439,7.941c0.262,0.383,0.164,0.908-0.22,1.17c-0.146,0.099-0.311,0.147-0.474,0.147
						C265.704,66.154,265.44,66.026,265.277,65.787z M207.012,59.171c-0.406-0.226-0.553-0.738-0.326-1.144
						c1.648-2.96,3.967-5.565,6.89-7.745c0.373-0.277,0.9-0.201,1.178,0.172c0.278,0.373,0.202,0.9-0.172,1.178
						c-2.731,2.037-4.893,4.464-6.427,7.214c-0.154,0.277-0.44,0.432-0.736,0.432C207.281,59.278,207.141,59.244,207.012,59.171z
						 M251.446,51.701c-2.808-1.871-5.773-3.347-8.814-4.386c-0.44-0.151-0.675-0.629-0.524-1.069
						c0.15-0.441,0.629-0.673,1.069-0.525c3.179,1.087,6.275,2.627,9.204,4.578c0.386,0.258,0.492,0.78,0.234,1.167
						c-0.162,0.243-0.429,0.375-0.701,0.375C251.752,51.842,251.59,51.796,251.446,51.701z M222.245,46.682
						c-0.14-0.444,0.107-0.917,0.55-1.056c3.305-1.041,6.734-1.57,10.191-1.573c0.001,0,0.001,0,0.001,0
						c0.464,0,0.842,0.377,0.842,0.841c0,0.465-0.377,0.843-0.841,0.843c-3.285,0.002-6.544,0.506-9.686,1.496
						c-0.085,0.026-0.169,0.039-0.253,0.039C222.691,47.271,222.359,47.041,222.245,46.682z"/>
				</g>
			</g>
			<polygon style="fill:#EF5B5B;" points="548.933,52.743 481.18,62.562 504.812,70.665 391.247,160.418 352.094,130.313 
				217.173,245.148 351.359,151.411 388.674,185.509 516.406,94.53 517.511,120.496 			"/>
			<g>
				<g>
					<g>
						<g>
							<g>
								<path style="fill:#FFCC00;" d="M308.526,222.334c0,8.788-1.568,17.217-4.444,25.012c-0.8,2.184-1.709,4.319-2.718,6.395
									c-3.435,7.162-8.021,13.665-13.523,19.284c-9.329,9.521-17.317,23.178-17.317,36.501h-68.891
									c0-13.356-8.396-27.255-17.675-36.868c-4.936-5.111-9.129-10.947-12.389-17.333c-0.892-1.726-1.709-3.493-2.46-5.294
									c-3.802-9.171-5.77-19.293-5.453-29.906c1.117-37.443,31.107-68.174,68.516-70.134
									C273.959,147.798,308.526,181.031,308.526,222.334z"/>
								<path style="fill:#FFB300;" d="M216.268,314.644c0,0,2.694-24.531-7.14-38.89c-11.42-17.844-27.769-17.24-27.769-55.069
									c0-32.685,31.607-53.355,54.872-53.148c18.133,0.161,53.048,15.67,52.837,48.976c-0.357,56.386-32.834,42.634-32.476,97.784
									L216.268,314.644z"/>
								<path style="fill:#FFCC00;" d="M242.846,317.342l-5.835-0.109l1.001-53.668c0.172-9.252,4.289-18.023,11.295-24.066
									l4.001-3.45c2.528-2.18,2.614-5.149,1.851-7.201c-0.763-2.052-2.767-4.244-6.106-4.244h-27.225
									c-3.307,0-5.312,2.165-6.085,4.191c-0.773,2.026-0.721,4.976,1.746,7.179l2.842,2.539
									c6.912,6.175,10.876,15.031,10.876,24.299v54.476h-5.836v-54.476c0-7.608-3.254-14.878-8.928-19.947l-2.842-2.539
									c-3.853-3.442-5.152-8.785-3.311-13.613c1.842-4.827,6.371-7.946,11.538-7.946h27.225c5.215,0,9.759,3.159,11.576,8.047
									c1.816,4.889,0.439,10.248-3.51,13.654l-4.001,3.45c-5.751,4.96-9.131,12.161-9.273,19.756L242.846,317.342z"/>
								<path style="fill:#94A3B4;" d="M270.524,309.526l-1.384,47.873c-0.425,14.941-12.665,26.821-27.605,26.821h-10.914
									c-0.4,0-0.8-0.008-1.201-0.025c-14.399-0.617-25.987-12.256-26.413-26.796l-1.376-47.873H270.524z"/>
								<path style="fill:#8290A1;" d="M229.421,384.195c-14.399-0.617-25.987-12.256-26.413-26.796l-1.376-47.873h19.151v56.152
									C220.784,370.097,222.168,378.509,229.421,384.195z"/>
								<path style="fill:#596B85;" d="M275.202,333.487c0,2.476-1.001,4.711-2.618,6.328c-1.626,1.617-3.86,2.618-6.328,2.618
									h-60.354c-4.944,0-8.946-4.002-8.946-8.946c0-2.468,1.001-4.702,2.618-6.328c1.617-1.617,3.86-2.618,6.328-2.618h60.354
									C271.191,324.542,275.202,328.552,275.202,333.487z"/>
								<path style="fill:#48566B;" d="M221.792,342.433h-15.891c-4.944,0-8.946-4.002-8.946-8.946c0-2.468,1.001-4.702,2.618-6.328
									c1.617-1.617,3.86-2.618,6.328-2.618h15.891c-2.468,0-4.71,1-6.328,2.618c-1.617,1.626-2.618,3.86-2.618,6.328
									C212.847,338.431,216.848,342.433,221.792,342.433z"/>
							</g>
							
								<radialGradient id="SVGID_00000053541187828727489110000008775217495521175731_" cx="218.717" cy="213.88" r="34.1294" gradientUnits="userSpaceOnUse">
								<stop  offset="0.5744" style="stop-color:#FFFFFF;stop-opacity:0"/>
								<stop  offset="0.7977" style="stop-color:#FFFFFF;stop-opacity:0.6512"/>
								<stop  offset="1" style="stop-color:#FFFFFF;stop-opacity:0.95"/>
							</radialGradient>
							<path style="opacity:0.73;fill:url(#SVGID_00000053541187828727489110000008775217495521175731_);" d="M208.788,171.404
								c-12.094,3.416-21.716,11.667-27.656,22.732c-3.351,6.243-5.811,13.091-6.58,20.169c-0.773,7.111-0.415,16.659,5.229,21.885
								c2.615,2.422,6.682,2.954,9.737,1.048c2.912-1.817,4.682-5.128,5.308-8.432c1.355-7.154,0.479-14.003,3.045-21.097
								c3.543-9.794,10.619-17.527,18.227-24.401C221.628,178.312,215.315,169.561,208.788,171.404z"/>
						</g>
						<rect x="191.171" y="353.506" style="fill:#3E3E64;" width="89.355" height="78.741"/>
						<polygon style="fill:#2E2E4C;" points="294.215,452.411 177.482,452.411 191.171,432.247 280.526,432.247 						"/>
					</g>
					<g>
						<g>
							<circle style="fill:#2E2E4C;" cx="259.083" cy="386.692" r="5.713"/>
						</g>
						<path style="fill:#596B85;" d="M272.34,386.579c0,0.89-0.36,1.71-0.95,2.29c-0.58,0.59-1.4,0.95-2.29,0.95h-9.44
							c-1.79,0-3.24-1.45-3.24-3.24c0-0.89,0.36-1.71,0.95-2.29c0.58-0.59,1.4-0.95,2.29-0.95h9.44
							C270.89,383.34,272.34,384.789,272.34,386.579z"/>
						<path style="fill:#94A3B4;" d="M272.34,386.579c0,0.89-0.36,1.71-0.95,2.29c-0.58,0.59-1.4,0.95-2.29,0.95
							c-1.79,0-3.24-1.45-3.24-3.24c0-0.89,0.36-1.71,0.95-2.29c0.58-0.59,1.4-0.95,2.29-0.95
							C270.89,383.34,272.34,384.789,272.34,386.579z"/>
						<path style="fill:#596B85;" d="M407.41,453.911H306.689c-10.928,0-19.818-8.891-19.818-19.818v-38.977
							c0-3.88-3.157-7.037-7.037-7.037h-10.383c-0.829,0-1.5-0.672-1.5-1.5c0-0.828,0.671-1.5,1.5-1.5h10.383
							c5.534,0,10.037,4.503,10.037,10.037v38.977c0,9.273,7.544,16.818,16.818,16.818H407.41c0.828,0,1.5,0.672,1.5,1.5
							C408.91,453.239,408.238,453.911,407.41,453.911z"/>
					</g>
					<g>
						<g>
							<path style="fill:#2E2E4C;" d="M264.797,409.546c0,3.156-2.558,5.714-5.713,5.714c-3.155,0-5.713-2.558-5.713-5.714
								c0-3.155,2.558-5.713,5.713-5.713C262.239,403.832,264.797,406.39,264.797,409.546z"/>
						</g>
						<path style="fill:#596B85;" d="M268.811,412.678h-9.444c-1.79,0-3.242-1.451-3.242-3.242l0,0c0-1.79,1.451-3.242,3.242-3.242
							h9.444c1.79,0,3.242,1.451,3.242,3.242l0,0C272.053,411.226,270.602,412.678,268.811,412.678z"/>
						<path style="fill:#94A3B4;" d="M272.053,409.436c0,0.89-0.36,1.71-0.95,2.29c-0.58,0.59-1.4,0.95-2.29,0.95
							c-1.79,0-3.24-1.45-3.24-3.24c0-0.89,0.36-1.71,0.95-2.29c0.58-0.59,1.4-0.95,2.29-0.95
							C270.603,406.196,272.053,407.646,272.053,409.436z"/>
						<path style="fill:#596B85;" d="M400.12,454.369H299.399c-10.928,0-19.818-8.89-19.818-19.817v-16.579
							c0-3.88-3.157-7.037-7.037-7.037h-2.689c-0.829,0-1.5-0.672-1.5-1.5s0.671-1.5,1.5-1.5h2.689
							c5.535,0,10.037,4.503,10.037,10.037v16.579c0,9.273,7.544,16.817,16.818,16.817H400.12c0.828,0,1.5,0.672,1.5,1.5
							S400.948,454.369,400.12,454.369z"/>
					</g>
				</g>
			</g>
		</g>
		<g>
			<g>
				<g>
					<g>
						<polygon style="fill:#FFBA95;" points="341.953,237.982 346.067,246.908 336.597,250.556 333.259,241.164 						"/>
						<g>
							<path style="fill:#FFBA95;" d="M342.515,238.568c0,0,0.195-4.502-2.143-8.041c-2.338-3.539-7.388-9.579-9.074-9.967
								c-0.632-0.146-1.161,0.631-0.567,1.741c1.244,2.328,3.724,4.99,5.775,8.18l-0.811,0.261c0,0-6.84-8.942-8.428-8.695
								c-1.588,0.247,0.099,2.401,1.256,4.091c1.157,1.69,4.922,6.176,4.922,6.176l-0.733,0.945c0,0-6.056-6.481-7.759-7.722
								c-0.832-0.606-1.919-0.359-1,1.368c0.919,1.727,6.764,8.62,6.764,8.62l-0.59,0.923c0,0-5.927-5.689-7.215-6.531
								c-0.813-0.531-1.427,0.236-0.404,2.109c1.023,1.874,8.227,11.298,12.014,11.604S342.36,240.706,342.515,238.568z"/>
							<path style="fill:#FF7668;" d="M338.692,238.039c0.144,2.304,1.604,4.033,3.036,2.422c1.707-1.921,3.656-6.065,2.47-8.792
								c-0.195-0.448-1.366-1.397-2.396-2.171c-1.024-0.77-1.881-1.735-2.542-2.832c-0.679-1.126-1.59-2.379-2.186-2.168
								c-1.051,0.371-0.754,3.335,0.843,5.335c1.079,1.351,2.556,2.155,2.556,2.155S338.445,234.09,338.692,238.039z"/>
							<path style="fill:#FF7668;" d="M336.953,229.829c-1.564,0.655-3.074,1.639-4.344,2.754c-0.649,0.57-1.256,1.183-1.805,1.851
								c-0.58,0.705-1.208,1.544-1.407,2.45c-0.063,0.289,0.293,0.43,0.484,0.242c0.588-0.579,1.026-1.327,1.528-1.981
								c0.525-0.685,1.101-1.336,1.732-1.925c1.226-1.144,2.575-2.008,4.089-2.714C337.654,230.308,337.389,229.647,336.953,229.829
								z"/>
							<path style="fill:#FF7668;" d="M337.616,238.237c-1.024-0.903-2.442-1.187-3.778-1.158c-0.66,0.015-1.328,0.121-1.952,0.34
								c-0.293,0.103-0.59,0.222-0.86,0.377c-0.232,0.133-0.54,0.308-0.67,0.55c-0.029,0.054-0.01,0.148,0.068,0.147
								c0.264-0.005,0.516-0.143,0.766-0.223c0.283-0.091,0.562-0.19,0.852-0.259c0.6-0.143,1.226-0.22,1.843-0.196
								c1.206,0.047,2.307,0.469,3.395,0.957C337.613,238.921,337.887,238.476,337.616,238.237z"/>
						</g>
						<path style="fill:#FFFFFF;" d="M396.48,258.87l-8.19,18.73l-6.72-4.27c0,0-14.01,12.81-19.46,15.36
							c-5.46,2.55-9.31,1.51-13.49-3.94c-4.18-5.46-9.79-15.52-11.61-20.43c-1.82-4.91-0.72-10.36-0.72-10.36l-2.19-5.46l12.73-4.36
							l3.17,5.03l9.2,14.61c0,0,16.68-15.35,20-18.19c3.33-2.84,5.37-4.35,10.88-4.35S396.48,258.87,396.48,258.87z"/>
						<polygon style="fill:#9ECDD8;" points="350,249.169 336.29,253.96 334.1,248.499 346.83,244.139 						"/>
					</g>
					<g>
						<path style="fill:#FFFFFF;" d="M482.03,253.969c0,0,1.53,2.74,0.17,6.84c-1.37,4.11-4.96,13.52-8.67,20.46
							c-2.52,4.72-10.02,11.16-17.59,7.37c-7.56-3.78-20.13-15.7-20.13-15.7s-4.42,6.18-11.26-0.32c-6.84-6.5-4.37-30.87,0.48-31.3
							c2.01-0.18,9.27,0.16,13.03,3.24c3.77,3.08,21.9,19.33,21.9,19.33l7.37-14.74l2.72-5.44l13.34,4.96L482.03,253.969z"/>
						<polygon style="fill:#FFBA95;" points="473.883,239.99 470.27,246.877 480.045,251.148 482.577,243.172 						"/>
						<g>
							<path style="fill:#FFBA95;" d="M473.321,240.576c0,0-0.195-4.502,2.143-8.041c2.338-3.539,7.388-9.579,9.074-9.967
								c0.632-0.146,1.161,0.631,0.567,1.741c-1.245,2.328-3.724,4.99-5.775,8.18l0.811,0.261c0,0,6.84-8.942,8.428-8.695
								c1.588,0.247-0.099,2.401-1.256,4.091c-1.157,1.69-4.922,6.176-4.922,6.176l0.733,0.945c0,0,6.056-6.481,7.759-7.722
								c0.831-0.606,1.919-0.359,1,1.368c-0.919,1.727-6.764,8.62-6.764,8.62l0.59,0.923c0,0,5.927-5.689,7.215-6.531
								c0.813-0.531,1.427,0.236,0.404,2.109c-1.023,1.873-8.227,11.297-12.014,11.604
								C477.528,245.945,473.477,242.714,473.321,240.576z"/>
							<path style="fill:#FF7668;" d="M477.145,240.047c-0.144,2.304-1.604,4.034-3.036,2.422c-1.707-1.921-3.656-6.065-2.47-8.792
								c0.195-0.448,1.366-1.397,2.396-2.171c1.024-0.77,1.881-1.735,2.542-2.832c0.679-1.126,1.59-2.379,2.186-2.168
								c1.051,0.371,0.754,3.335-0.843,5.335c-1.079,1.351-2.556,2.155-2.556,2.155S477.392,236.098,477.145,240.047z"/>
							<path style="fill:#FF7668;" d="M478.884,231.838c1.564,0.655,3.074,1.639,4.344,2.754c0.649,0.57,1.256,1.183,1.804,1.851
								c0.58,0.705,1.208,1.544,1.407,2.45c0.063,0.289-0.293,0.43-0.484,0.242c-0.588-0.579-1.026-1.327-1.528-1.981
								c-0.525-0.685-1.101-1.336-1.732-1.925c-1.225-1.144-2.575-2.008-4.089-2.714
								C478.182,232.316,478.447,231.655,478.884,231.838z"/>
							<path style="fill:#FF7668;" d="M478.221,240.245c1.024-0.903,2.442-1.187,3.778-1.158c0.66,0.014,1.328,0.121,1.952,0.34
								c0.293,0.103,0.59,0.222,0.86,0.377c0.232,0.133,0.54,0.308,0.67,0.55c0.029,0.054,0.01,0.148-0.068,0.147
								c-0.264-0.005-0.517-0.143-0.766-0.223c-0.283-0.091-0.562-0.191-0.852-0.259c-0.6-0.143-1.226-0.22-1.843-0.196
								c-1.206,0.047-2.307,0.469-3.395,0.957C478.224,240.928,477.949,240.484,478.221,240.245z"/>
						</g>
						<polygon style="fill:#9ECDD8;" points="483.39,248.669 482.03,253.969 467.33,249.15 470.05,243.71 						"/>
					</g>
					<g>
						<path style="fill:#3E3E64;" d="M381.57,316.509c0,0-9.734,39.808-12.184,59.132c-1.89,14.911-2.882,69.921-2.882,69.921
							l32.277,10.297c0,0-2.62-59.233-1.905-71.509c1.633-28.034,13.336-74.031,13.336-74.031l-26.128,1.633L381.57,316.509z"/>
						<path style="fill:#BC4F2E;" d="M396.71,452.87l-23.63,2.76l-19.22-2.76c0.25-0.72,0.65-1.54,1.24-2.43
							c2.3-3.44,14.42-8.75,16.31-9.43C374.34,439.95,388.35,442.359,396.71,452.87z"/>
						<path style="fill:#E2F2F7;" d="M398.78,455.859l-45.33,0.44c0,0-0.35-1.33,0.41-3.43h42.85
							C397.44,453.799,398.14,454.799,398.78,455.859z"/>
					</g>
					<g>
						<path style="fill:#3E3E64;" d="M410.074,312.62c0,0-1.098,51.083,0.29,69.815c1.388,18.732,8.12,67.331,8.12,67.331
							l31.936,6.092c0,0-9.388-60.208-11.816-79.982c-2.428-19.773-2.794-59.368-2.794-59.368S431.582,300.478,410.074,312.62z"/>
						<path style="fill:#BC4F2E;" d="M448.35,452.87l-22.1,1.81l-20.75-1.81c0.25-0.72,0.65-1.54,1.24-2.43
							c2.3-3.44,14.42-8.75,16.31-9.43C425.98,439.95,439.99,442.359,448.35,452.87z"/>
						<path style="fill:#E2F2F7;" d="M450.42,455.859l-45.33,0.44c0,0-0.35-1.33,0.41-3.43h42.85
							C449.08,453.799,449.78,454.799,450.42,455.859z"/>
					</g>
					<g>
						<g>
							<path style="fill:#EF5B5B;" d="M435.81,272.94v43.57h-54.24c0,0,0-3.16,0-7.84v-35.34c4.38-1.62,7.7-7.78,8.11-11.43
								c0.4-3.64,0.4-20.66,0.4-20.66h8.59l20.78,0.06l5.58,0.02c0,0,0.36,14.13,1.59,22.08
								C427.86,271.349,435.81,272.94,435.81,272.94z"/>
							<path style="fill:#D64343;" d="M419.45,241.299c-0.66,4.46-2,10.2-5.21,14.59c-3.68,5.05-8.86,7.77-8.86,7.77
								c-0.57-0.2-5.87-4.77-8.18-11.04c-1.68-4.56-1.71-9.19-1.61-11.38h3.08L419.45,241.299z"/>
							<path style="fill:#D64343;" d="M435.81,308.669v7.84h-54.24c0,0,0-3.16,0-7.84H435.81z"/>
							<rect x="381.57" y="282.529" style="fill:#D64343;" width="54.24" height="4.8"/>
						</g>
					</g>
					<g>
						<g>
							<path style="fill:#E2F2F7;" d="M414.1,250.089c0,0-1.89,4.8-7.09,9.06c-0.39,0.32-0.79,0.64-1.22,0.95
								c-3.75-3.24-6.66-9.55-6.66-9.55l7.31-7.02L414.1,250.089z"/>
							<path style="fill:#9ECDD8;" d="M407.01,259.15c-0.39,0.32-0.79,0.64-1.22,0.95l0.21-13.71l0.92-1.06L407.01,259.15z"/>
							<path style="fill:#FFFFFF;" d="M402.677,235.348c0,0-0.159,0.111-0.423,0.324c-2.765,2.235-4.268,5.655-4.224,9.21
								c0.024,1.893,0.302,3.97,1.097,5.669c2.315-0.617,6.869-4.167,6.869-4.167s5.865,4.013,8.104,3.704
								c0.95-2.455,1.689-4.754,2.24-6.637c1.047-3.582-0.464-7.538-3.792-9.227c-0.582-0.296-1.198-0.519-1.843-0.652
								C407.694,232.956,404.762,234.273,402.677,235.348z"/>
						</g>
						<g>
							<path style="fill:#FF7668;" d="M391.304,218.48c-1.83,0.181-2.152,3.632-0.897,5.963c1.255,2.331,3.363,3.856,4.528,2.69
								C396.102,225.967,394.936,218.121,391.304,218.48z"/>
							<path style="fill:#3E3E64;" d="M393.68,222.322c-0.077-0.23-2.299-4.675-2.299-4.675l-2.836,0.92
								c0,0,0.502-3.571,2.989-6.438c-3.529,0.848-3.529,0.848-3.529,0.848s2.11-4.634,7.897-7.056
								c-1.073-1.916-1.456-5.672-1.456-5.672s1.984,3.065,8.556,3.567c5.302,0.405,7.157,0.877,9.225,4.174
								c2.759-0.077,6.61,1.634,7.146,3.474c0.536,1.839-0.15,6.256-1.042,9.209c-0.893,2.953-9.17,6.019-9.17,6.019L393.68,222.322
								z"/>
							<g>
								<g>
									<path style="fill:#FFBA95;" d="M414.75,237.719c0,0.95-6.18,8.07-8.91,7.92c-2.73-0.16-5.41-5.73-5.2-6.47
										c0.04-0.14,0.12-0.29,0.22-0.43c0.41-0.58,0.65-1.25,0.74-1.96c0.08-0.52,0.07-1.06-0.01-1.58l-0.53-3.75l11.71-5.51
										c0,0-0.27,2.29-0.17,4.79c0.01,0.36,0.04,0.72,0.07,1.08c0.03,0.26,0.05,0.51,0.07,0.75c0.14,1.58,0.75,3.07,1.69,4.36
										C414.62,237.18,414.75,237.46,414.75,237.719z"/>
									<path style="fill:#FF7668;" d="M412.664,227.141c-0.225,3.255-2.045,6.256-4.954,7.733
										c-0.023,0.012-0.047,0.023-0.07,0.035c-2.37,1.19-4.59,1.68-6.04,1.87c0.08-0.52,0.07-1.06-0.01-1.58l-0.53-3.75
										l11.71-5.51C412.77,225.94,412.715,226.403,412.664,227.141z"/>
								</g>
								<path style="fill:#FFBA95;" d="M409.767,213.521c0,0-1.446,1.328-4.551,1.655c-3.106,0.327-6.596,0.362-9.375,0.525
									c-2.779,0.163-2.745,3.693-2.779,5.557c-0.034,1.864,0.989,10.633,2.615,12.177c1.626,1.544,4.227,1.698,6.219,1.321
									c2.181-0.392,6.535-1.999,8.905-3.961c2.37-1.961,2.773-5.206,2.773-5.206s0.415-4.632-0.239-5.449
									c-0.654-0.817-1.871-0.285-2.864-1.96C409.457,216.469,409.767,213.521,409.767,213.521z"/>
								<path style="fill:#FF7668;" d="M399.465,219.167c0,0,1.121,2.008,0.965,3.129c-0.157,1.121-1.304,1.773-1.382,2.294
									c-0.078,0.521,1.304,1.251,1.304,1.251s-1.781-0.211-2.294-0.965c-0.391-0.574,1.46-1.799,1.538-2.764
									C399.658,221.339,399.465,219.167,399.465,219.167z"/>
								<g>
									<path style="fill:#3E3E64;" d="M405.183,221.817c0.081,0.57-0.316,1.097-0.885,1.178c-0.57,0.081-1.097-0.316-1.178-0.885
										s0.316-1.097,0.885-1.178C404.575,220.851,405.102,221.247,405.183,221.817z"/>
									<path style="fill:#3E3E64;" d="M401.918,219.106c0,0,0.911-0.091,1.913-0.068c1.002,0.023,2.209,0.273,2.209,0.273
										s-0.865-1.253-2.027-1.253C402.738,218.058,401.918,219.106,401.918,219.106z"/>
								</g>
								<g>
									<path style="fill:#3E3E64;" d="M398.237,221.693c0.081,0.57-0.316,1.097-0.885,1.178c-0.57,0.081-1.097-0.316-1.178-0.885
										c-0.081-0.57,0.316-1.097,0.885-1.178C397.628,220.726,398.156,221.123,398.237,221.693z"/>
									<path style="fill:#3E3E64;" d="M399.309,219.064c0,0-0.911-0.091-1.913-0.068c-1.002,0.023-2.209,0.273-2.209,0.273
										s0.865-1.253,2.027-1.253C398.489,218.016,399.309,219.064,399.309,219.064z"/>
								</g>
								<g>
									<path style="fill:#3E3E64;" d="M405.8,227.69c-0.11,1.77-1.43,2.72-2.3,3.04c-0.61,0.23-1.7,0.57-2.78,0.48
										c-0.52-0.04-1.05-0.19-1.51-0.5c-1.38-0.93-1.02-2.48-0.35-2.99c0.01-0.01,0.03-0.02,0.04-0.03
										c0.7-0.47,1.83-0.12,2.69-0.46c0.75-0.3,0.83-0.73,2.06-1.27c0.55-0.24,1.28-0.06,1.74,0.43c0.01,0.01,0.01,0.01,0.02,0.02
										C405.68,226.73,405.85,227.16,405.8,227.69z"/>
									<path style="fill:#EF5B5B;" d="M405.8,227.69c-0.11,1.77-1.43,2.72-2.3,3.04c-0.61,0.23-1.7,0.57-2.78,0.48
										c0.87-3.01,3.72-4.4,4.69-4.8C405.68,226.73,405.85,227.16,405.8,227.69z"/>
									<path style="fill:#FFFFFF;" d="M405.39,226.389c-0.25,0.38-0.79,0.703-1.42,1.133c-1.17,0.8-3.36,1.293-4.19,0.943
										c-0.53-0.22-0.719-0.476-0.919-0.746c0.01-0.01,0.03-0.02,0.04-0.03c0.7-0.47,1.83-0.12,2.69-0.46
										c0.75-0.3,0.83-0.73,2.06-1.27C404.2,225.719,404.93,225.9,405.39,226.389z"/>
									<path style="fill:#FF7668;" d="M398.382,228.443c0,0,0.519-0.754,1.339-0.722c0.722,0,1.339-0.03,1.835-0.18
										s0.98-0.469,1.429-0.827c0.527-0.421,1.29-1.233,2.405-0.323c0,0-0.534-1.258-2.029-0.624
										c-0.887,0.376-1.083,1.008-2.001,1.279C400.443,227.314,398.938,226.758,398.382,228.443z"/>
								</g>
							</g>
							<g>
								<path style="fill:#FFBA95;" d="M417.201,217.558c2.548-0.022,2.634,3.997,1.302,6.388c-1.332,2.392-2.271,3.058-3.784,2.725
									c-1.514-0.333-1.786-2.059-1.786-2.059S413.749,217.588,417.201,217.558z"/>
								<path style="fill:#FF7668;" d="M418.256,220.672c0.009-0.428-0.051-0.837-0.362-1.157c-0.886-0.914-2.018,0.055-2.495,0.781
									c-0.277,0.421-0.51,1.117-0.3,1.643c0.143,0.359,0.44,0.568,0.541,0.932c0.123,0.444-0.35,0.538-0.652,0.64
									c-0.409,0.137-0.71,0.465-0.688,0.915c0.023,0.474,0.402,0.865,0.868,0.927c0.554,0.073,1.037-0.25,1.44-0.59
									c-0.651,0.196-1.342,0.379-1.578-0.121c-0.049-0.104-0.031-0.196,0.007-0.282c0.93,0.28,2.005-0.251,2.151-1.262
									c0.08-0.553-0.322-0.988-0.679-1.353c-0.168-0.172-0.34-0.351-0.436-0.576c-0.074-0.173-0.147-0.465-0.048-0.64
									c0.007-0.013,0.006-0.027,0.008-0.04c0.43-0.52,1.072-0.83,1.444-0.552c0.649,0.484,0.455,1.323,0.454,2.207
									C418.115,221.684,418.241,221.401,418.256,220.672z M416.417,222.577c0.117,0.158,0.216,0.351,0.22,0.552
									c0.004,0.181-0.121,0.367-0.26,0.475c-0.217,0.167-0.46,0.204-0.709,0.194c0.561-0.418,0.643-0.79,0.276-1.455
									c-0.083-0.15-0.303-0.457-0.342-0.649c-0.005-0.041,0.006-0.083,0.006-0.124
									C415.805,221.952,416.165,222.235,416.417,222.577z"/>
							</g>
						</g>
					</g>
				</g>
			</g>
		</g>
		<g>
			<g>
				<path style="fill:#A6D6E2;" d="M105.213,287.992c0,0,3.696,1.72,6.448,9.923c2.753,8.203,6.2,17.504,6.2,17.504l-20.054,5.922
					C97.808,321.341,95.666,290.97,105.213,287.992z"/>
			</g>
			<g>
				<path style="fill:#E07846;" d="M127.632,325.184c0,0,0.269,3.462-4.223,8.853c-4.493,5.391-9.345,9.794-14.826,9.704
					c-5.481-0.09-7.458-3.055-7.009-6.469c0.449-3.414,1.797-4.582,3.594-6.29c1.797-1.707,18.06-8.266,18.06-8.266L127.632,325.184
					z"/>
			</g>
			<g>
				<path style="fill:#3E3E64;" d="M56.71,386.46l-3.8,19.58l-10.16,52.27h-7.69c0,0,4.73-30.99,7.93-52.27
					c1.65-10.93,2.9-19.29,2.9-19.58H56.71z"/>
				<path style="fill:#2E2E4C;" d="M45.89,386.46h10.82l-3.8,19.58h-9.92C44.64,395.109,45.89,386.75,45.89,386.46z"/>
				<path style="fill:#3E3E64;" d="M123.67,453.18h-7.69l-9.16-47.14l-4.8-24.7h10.82c0,0.34,1.65,11.38,3.67,24.7
					C119.65,426.829,123.67,453.18,123.67,453.18z"/>
				<path style="fill:#2E2E4C;" d="M116.51,406.039h-9.69l-4.8-24.7h10.82C112.84,381.68,114.49,392.72,116.51,406.039z"/>
				<path style="fill:#596B85;" d="M79.596,282.175c0,0-23.145,0-32.088,0c-8.943,0-16.57,3.156-16.57,13.94
					c0,10.784,0,73.972,0,82.324c0,8.352,2.109,14.466,15.389,14.466c13.28,0,86.661,0,86.661,0v-27.091H79.596V282.175z"/>
			</g>
			<g>
				<path style="fill:#994122;" d="M112.473,381.823c4.184,0.492,10.321,2.554,10.83,9.353c0.925,12.37,3.819,62.004,3.819,62.004
					l28.547-9.75c0,0-2.337-63.084-4.306-73.914s-7.876-11.815-18.46-13.538c-10.584-1.723-27.692-3.089-27.692-3.089
					l-18.828-10.449H66.937l8.123,38.151C75.06,380.592,108.288,381.331,112.473,381.823z"/>
				<path style="fill:#7F2F17;" d="M132.195,452c-0.007-0.468-0.655-46.897-1.585-58.415c-0.601-7.446-4.586-16.381-13.839-17.055
					c-7.111-0.518-22.175-1.843-22.326-1.857l0.176-1.992c0.151,0.014,15.199,1.337,22.295,1.854
					c8.655,0.63,14.812,8.044,15.688,18.889c0.934,11.584,1.584,58.079,1.591,58.548L132.195,452z"/>
				<path style="fill:#3E3E64;" d="M127.121,453.18l46.356,0.146c0,0,0.137-4.249-4.595-6.615
					c-4.732-2.366-7.983-4.531-13.635-7.648C142.306,431.926,130.8,447.395,127.121,453.18z"/>
			</g>
			<g>
				<path style="fill:#B25530;" d="M100.71,449.68l-28.91,8.63l-0.97-75.21c0,0-12.89-5.3-15.84-8.92c-1.75-1.92-2.66-5.4-3.12-8.99
					c-0.76-5.99-0.27-12.3-0.27-12.3l1.52-4.01l11.13-0.79l14.17-1.01l0.6,8.03c0,0,1.01,0.4,8.44,2.61
					c7.43,2.21,13.05,7.43,13.25,17.47C100.91,385.229,100.71,449.68,100.71,449.68z"/>
				<path style="fill:#994122;" d="M78.499,456.133c-0.547,0-0.993-0.439-1-0.987c-0.378-29.373-1.124-73.877-1.632-76.095
					c-0.505-1.337-4.06-2.747-7.497-4.11c-2.952-1.17-6.298-2.497-8.86-4.205c-5.212-3.475-3.844-12.12-3.783-12.487
					c0.09-0.544,0.596-0.91,1.149-0.822c0.544,0.09,0.913,0.605,0.823,1.149c-0.013,0.077-1.216,7.739,2.92,10.496
					c2.387,1.591,5.628,2.876,8.488,4.011c4.367,1.731,7.816,3.1,8.652,5.329c0.724,1.928,1.514,59.201,1.739,76.709
					c0.007,0.552-0.435,1.006-0.987,1.013C78.507,456.133,78.503,456.133,78.499,456.133z"/>
				<path style="fill:#994122;" d="M64.25,348.09c-1.2,11.55-8.75,15.74-12.38,17.1c-0.76-5.99-0.27-12.3-0.27-12.3l1.52-4.01
					L64.25,348.09z"/>
				<path style="fill:#3E3E64;" d="M71.796,458.309c0,0,3.329-6.939,8.961-10.976c4.455-3.193,11.669-3.835,16.487-1.222l0,0
					c1.904,1.033,5.215,3.155,7.142,4.145c4.263,2.192,8.513,4.261,9.768,8.025C85.811,458.281,71.796,458.309,71.796,458.309z"/>
			</g>
			<g>
				<g>
					<path style="fill:#FFFFFF;" d="M105.21,287.99v64.9H51.6c0,0-0.4-56.9,0.78-64.5c4.59-2.76,19.8-8,19.8-8
						c6.81-1.84,9.93-0.32,14.16,0.65C91.45,282.22,105.21,287.99,105.21,287.99z"/>
					<path style="fill:#E2F2F7;" d="M58.391,306.498h14.678c0,0,0,10.111,0,12.068s-3.914,8.644-8.97,7.013
						c-5.056-1.631-5.708-6.034-5.708-6.034V306.498z"/>
					<polygon style="fill:#A6D6E2;" points="85.09,352.889 84.17,352.889 83.66,342.43 81.74,289.809 82.79,289.879 					"/>
				</g>
				<g>
					<path style="fill:#374754;" d="M100.445,258.651c0.482-0.7,0.899-1.555,0.666-2.372c-0.313-1.099-1.659-1.648-1.988-2.742
						c-0.21-0.7,0.049-1.441,0.231-2.149c0.181-0.708,0.256-1.544-0.23-2.089c-0.888-0.996-2.826-0.204-3.693-1.217
						c-0.463-0.54-0.389-1.359-0.714-1.992c-0.37-0.719-1.218-1.089-2.026-1.113c-0.462-0.014-0.92,0.066-1.365,0.184
						c-0.225,0.059-0.446,0.129-0.667,0.201c-0.296,0.097-0.413,0.057-0.703-0.092c-0.966-0.498-1.331-1.774-2.298-2.27
						c-0.761-0.391-1.692-0.19-2.476,0.151c-0.784,0.341-1.524,0.816-2.364,0.978c-0.864,0.167-1.783-0.037-2.512-0.526
						c-0.179-0.12-0.373-0.223-0.587-0.24c-0.676-0.053-1.495,0.109-2.025,0.526c-0.754,0.593-1.057,1.67-1.895,2.136
						c-1.31,0.729-3.127-0.441-4.389,0.368c-1.486,0.953-0.71,3.613-2.104,4.697c-0.822,0.639-2.107,0.455-2.854,1.181
						c-0.593,0.576-0.621,1.523-0.447,2.332c0.174,0.809,0.508,1.596,0.499,2.423c-0.011,0.951-0.475,1.83-0.715,2.751
						c-0.157,0.602-0.194,1.281,0.035,1.87c0.056,0.143,0.128,0.28,0.219,0.404c0.083,0.113,0.204,0.202,0.274,0.323
						c0.131,0.225,0.232,0.424,0.421,0.625c0.501,0.533,1.206,0.921,1.497,1.622c0.432,1.041-0.288,2.255,0.005,3.342
						c0.252,0.934,1.184,1.52,2.101,1.827c0.918,0.307,1.906,0.435,2.75,0.907c0.867,0.484,1.626,1.356,1.965,2.321
						c0.488,1.388,1.915,2.261,3.312,1.798c0.024-0.008,0.048-0.016,0.072-0.024c0.842-0.291,1.186-1.348,1.945-1.815
						c0.865-0.533,1.972-0.395,2.966-0.182c0.993,0.213,2.04,0.482,3.004,0.16c1.537-0.512,2.303-2.326,3.79-2.97
						c0.746-0.323,1.588-0.312,2.402-0.304c0.813,0.008,1.659,0.002,2.392-0.351c0.733-0.353,0.898-1.321,1.082-2.113
						c0.352-1.513,2.584-1.842,3.158-3.285c0.381-0.957-0.114-2.048,0.062-3.063C99.386,260.034,99.963,259.35,100.445,258.651z"/>
					<g>
						<g>
							<g>
								<path style="fill:#374754;" d="M80.374,289.696c0,0-4.399,35.806-3.832,40.176c1.648,5.273,7.121,12.559,7.121,12.559
									s4.534-8.743,5.529-13.756c-0.636-12.807-4.764-38.904-4.764-38.904L80.374,289.696z"/>
								<path style="fill:#23303D;" d="M77.158,290.723l9.575-0.165c0,0-1.669-5.753-4.653-5.391
									C79.409,285.491,77.158,290.723,77.158,290.723z"/>
							</g>
							<path style="fill:#E2F2F7;" d="M75.551,273.401c0,0-1.964,0.982-2.72,2.191c-0.22,0.352-0.465,0.851-0.703,1.382
								c-1.168,2.608-1.281,5.629-0.063,8.214c0.096,0.203,0.2,0.405,0.313,0.605c1.587,2.796,2.976,5.549,5.545,6.834
								c1.805-2.66,4.429-6.758,4.429-6.758l4.918,6.375c0,0,1.686-3.891,1.762-8.197s-1.467-6.489-3.507-8.227
								C83.484,274.081,78.044,272.721,75.551,273.401z"/>
						</g>
						<g>
							<path style="fill:#E07846;" d="M86.66,278.397c0.16,3.09-0.69,6.65-4.58,6.77c-4.8,0.16-8.27-5.68-8.11-8.22
								c1.74-5.62,0.93-10.977,0.93-10.977c0.13-0.04,0.27-0.07,0.41-0.1c3.74-0.67,10.24,2.95,12.05,7.22
								c-0.44,1.38-0.63,2.7-0.7,3.84C86.6,277.99,86.63,277.757,86.66,278.397z"/>
							<path style="fill:#B25530;" d="M87.36,273.09c-0.44,1.38-0.63,2.7-0.7,3.84c-2.5-0.07-5.97-0.46-8.04-1.94
								c-2.75-1.96-3.23-7.04-3.31-9.12C79.05,265.2,85.55,268.819,87.36,273.09z"/>
						</g>
					</g>
					<g>
						<path style="fill:#B25530;" d="M93.27,263.078c0,0,1.619-2.384,2.788-1.302c1.168,1.082-0.316,7.017-3.618,7.25
							C90.765,269.143,93.27,263.078,93.27,263.078z"/>
						<g>
							<path style="fill:#E07846;" d="M76.908,264.069c0,0-0.765-2.515-2.333-3.536c-1.567-1.021-2.916,0.547-3.135,1.823
								c-0.183,1.068,0.196,2.752,1.786,4.228c1.531,1.421,2.442,1.458,2.989,1.312c0.547-0.146,1.093-1.385,1.093-1.385
								L76.908,264.069z"/>
							<path style="fill:#B25530;" d="M76.542,264.995c-0.469,0.682-1.897-2.498-2.897-2.812c-1-0.314-1.044,0.873-1.044,1.725
								c-0.277-0.426-0.596-2.173,0.469-2.577C74.135,260.926,75.626,262.801,76.542,264.995z"/>
							<path style="fill:#B25530;" d="M75.178,262.992c0,0-0.728,0.449-0.788,1.342c-0.06,0.893,1.385,1.598,1.385,1.598
								s-0.575,0.085-0.873,0.043c-0.489-0.07-0.959-0.447-0.959-0.447s0.218,0.887,1.193,0.895
								c0.682,0.043,1.257-0.405,1.257-0.405s-1.363-0.958-1.342-1.534c0.021-0.575,0.469-0.809,0.469-0.809L75.178,262.992z"/>
							<path style="fill:#B25530;" d="M74.427,262.08c-0.132-0.034-0.245,0.04-0.367,0.079c-0.11,0.035-0.211,0.091-0.303,0.16
								c-0.178,0.133-0.302,0.351-0.378,0.557c-0.09,0.242-0.127,0.499-0.126,0.756c0,0.141,0.015,0.282,0.037,0.422
								c0.01,0.062,0.018,0.126,0.037,0.186c0.032,0.101,0.083,0.191,0.11,0.295c0.033,0.126,0.218,0.069,0.193-0.056
								c-0.026-0.128-0.004-0.25-0.018-0.378c-0.012-0.113-0.02-0.227-0.019-0.341c0.001-0.222,0.032-0.446,0.126-0.649
								c0.076-0.165,0.185-0.285,0.305-0.418c0.065-0.072,0.129-0.142,0.206-0.203c0.078-0.061,0.175-0.051,0.254-0.115
								C74.592,262.288,74.57,262.118,74.427,262.08z"/>
						</g>
						<g>
							<path style="fill:#E07846;" d="M93.286,258.407c0.541,0.411,0.905,1.006,0.85,1.683c-0.114,1.418-0.279,3.59-0.343,5.037
								c-0.103,2.305-0.505,7.348-2.247,9.09c-0.973,0.615-4.213,0.541-6.211,0.234c-1.998-0.307-5.069-0.917-6.657-2.454
								c-1.588-1.537-1.943-4.447-2.046-5.625c-0.102-1.178-0.299-4.737,0.823-6.075c0.675-0.805,1.394-0.472,2.08-1.039
								c0.717-0.594,0.074-1.484,1.247-2.172c1.006-0.59,1.848,0.512,2.803,0.136c0.922-0.314,0.7-1.181,1.448-1.365
								c0.958-0.236,1.806,0.422,2.64,0.037c1.286-0.594,1.253-2.137,1.253-2.137s0.484,0.266,0.832,1.61
								c0.371,1.434,1.284,0.589,2.062,1.012C92.675,256.811,92.62,257.901,93.286,258.407z"/>
							<g>
								<path style="fill:#23303D;" d="M85.734,262.904c0,0.627-0.509,1.136-1.136,1.136c-0.627,0-1.136-0.509-1.136-1.136
									c0-0.627,0.509-1.136,1.136-1.136C85.226,261.768,85.734,262.276,85.734,262.904z"/>
								<path style="fill:#23303D;" d="M82.397,260.753c0,0,0.736-0.366,1.672-0.487c1.158-0.149,2.212,0.113,2.212,0.113
									s-0.62-1.313-2.353-0.971C82.733,259.708,82.397,260.753,82.397,260.753z"/>
							</g>
							<g>
								<path style="fill:#23303D;" d="M92.159,262.904c0,0.627-0.509,1.136-1.136,1.136c-0.627,0-1.136-0.509-1.136-1.136
									c0-0.627,0.509-1.136,1.136-1.136C91.651,261.768,92.159,262.276,92.159,262.904z"/>
								<path style="fill:#23303D;" d="M93.301,260.716c0,0-0.81-0.327-1.718-0.448c-1.124-0.149-2.054,0.075-2.054,0.075
									s0.602-1.313,2.285-0.971C92.975,259.67,93.301,260.716,93.301,260.716z"/>
							</g>
							<path style="fill:#B25530;" d="M88.315,261.801c-0.281,1.017-0.724,2.254-0.351,2.789c0.404,0.579,1.088,0.684,1.088,0.684
								l-0.491,1.368c0,0,1.018-0.842,1.316-1.754C88.297,264.38,88.245,264.239,88.315,261.801z"/>
							<path style="fill:#B25530;" d="M83.459,266.964c-0.01-0.011,0.474,2.474,2.474,2.745c2,0.271,3.186-0.847,3.186-0.847
								S85.154,268.828,83.459,266.964z"/>
							<path style="fill:#B25530;" d="M86.282,270.779c-0.859-0.127-2.084,0.256-2.099,0.658c-0.02,0.511,2.933,0.992,3.252,0.446
								C87.61,271.581,87.036,270.891,86.282,270.779z"/>
						</g>
					</g>
				</g>
			</g>
			<g>
				<polygon style="fill:#B25530;" points="129.41,296.879 111.85,338.259 75.25,338.259 73.39,336.819 91.49,294.789 
					127.147,295.12 				"/>
				<polygon style="fill:#994122;" points="129.41,296.879 93.24,296.71 75.25,338.259 73.39,336.819 91.49,294.789 127.147,295.12 
									"/>
			</g>
			<g>
				<path style="fill:#E07846;" d="M127.632,325.184c0.643-5.308-1.046-11.741-2.01-13.752c-0.965-2.01-6.916-4.986-7.318-4.906
					c-0.402,0.08-0.08,1.447,1.045,2.734c1.126,1.287,3.056,2.171,3.458,2.975s0.563,2.493,0.563,2.493s-3.493-0.406-5.509,0.69
					c-1.117,0.607-1.246,1.642-0.764,2.446c-1.769,1.206-1.336,2.232-0.934,3.036c-0.782,0.649-0.957,1.255-0.73,1.844
					c0.287,0.744,1.086,1.164,1.883,1.164h1.784c0,0,0.838,4.606,2.688,6.375C123.639,332.055,127.03,330.15,127.632,325.184z"/>
				<path style="fill:#B25530;" d="M123.012,317.134c-0.408-0.107-0.925-0.185-1.391-0.25c-0.461-0.064-0.929-0.081-1.394-0.066
					c-0.922,0.031-1.903,0.093-2.74,0.506c-0.256,0.126-0.169,0.509,0.126,0.489c0.909-0.064,1.78-0.308,2.689-0.43
					C121.807,317.181,122.117,317.148,123.012,317.134z"/>
				<path style="fill:#B25530;" d="M122.572,321.298c-0.826-0.473-1.46-0.595-2.319-0.738c-0.514-0.086-3.412-0.253-3.809,0.01
					c-0.187,0.124-0.117,0.416,0.07,0.495C116.759,321.168,120.355,321.009,122.572,321.298z"/>
			</g>
			<g>
				<path style="fill:#B25530;" d="M37.458,319.772c0,0-4.687,13.96,1.446,19.092c8.441-2.86,12.066-5.827,12.066-5.827
					l2.472-12.277L37.458,319.772z"/>
				<path style="fill:#FFFFFF;" d="M52.382,288.386c-2.962,0.51-7.218,6.841-9.501,12.348c-2.283,5.507-7.85,22.084-7.85,22.084
					l21.759,1.746c0,0,0-21.893,0-26.191S56.789,287.626,52.382,288.386z"/>
			</g>
			<g>
				<g>
					<path style="fill:#E07846;" d="M79.638,314.384c0,0-14.735,17.081-25.06,22.547c-10.324,5.465-14.205,3.931-16.507,1.128
						c-2.301-2.803-1.753-9.336,0.764-12.001c2.517-2.665,15.845-8.427,19.99-10.183c5.321-2.254,17.984-8.584,17.984-8.584
						L79.638,314.384z"/>
				</g>
				<g>
					<path style="fill:#E07846;" d="M82.783,303.186c0,0,3.269-1.412,4.462-1.317c1.928,0.23,4.118,2.46,4.52,1.579
						c0.427-1.228-2.018-3.41-4.055-4.185c-2.037-0.776-6.077,0.819-7.171,1.768c-1.095,0.949-4.038,6.494-4.71,7.471
						c-0.672,0.977-0.692,2.869-0.041,4.483c0.652,1.614,2.268,2.551,4.029,2.124c1.762-0.427,2.741-1.613,2.741-1.613
						s2.358,0.954,3.462,0.913c1.104-0.041,2.102-1.261,1.547-2.605c1.192-0.634,1.157-1.726,0.769-2.806
						c1.185-0.749,0.921-1.982,0.796-2.529C87.863,304.286,85.49,303.506,82.783,303.186z"/>
					<path style="fill:#B25530;" d="M87.893,308.184c-0.146-0.262-0.368-0.527-0.585-0.732c-0.451-0.424-0.966-0.757-1.521-1.027
						c-1.04-0.507-2.308-0.735-3.454-0.597c-0.068,0.008-0.104,0.123-0.019,0.135c1.105,0.16,2.114,0.508,3.058,1.099
						c0.44,0.275,0.862,0.58,1.25,0.926c0.245,0.218,0.49,0.447,0.748,0.649c0.207,0.161,0.331,0.415,0.544,0.56
						c0.161,0.11,0.454,0.005,0.406-0.225C88.259,308.686,88.033,308.436,87.893,308.184z"/>
					<path style="fill:#B25530;" d="M87.682,311.361c-0.278-0.433-0.767-0.815-1.201-1.086c-0.455-0.284-0.927-0.552-1.41-0.784
						c-0.932-0.448-1.949-0.807-2.993-0.774c-0.108,0.004-0.113,0.14-0.022,0.177c0.898,0.362,1.829,0.654,2.675,1.133
						c0.438,0.248,0.859,0.524,1.238,0.856c0.184,0.161,0.373,0.316,0.557,0.477c0.193,0.167,0.382,0.366,0.597,0.503
						C87.429,312.057,87.901,311.703,87.682,311.361z"/>
					<path style="fill:#B25530;" d="M83.532,311.681c-0.767,1.854-2.704,3.223-4.742,3.077c-0.517-0.037-0.56,0.766-0.044,0.803
						c1.245,0.089,2.443-0.238,3.433-1.009c0.877-0.683,1.416-1.691,1.592-2.78C83.791,311.639,83.591,311.538,83.532,311.681z"/>
				</g>
			</g>
		</g>
	</g>
</g>
</svg>
