<?xml version="1.0" encoding="utf-8"?>
<!-- Generator: Adobe Illustrator 27.5.0, SVG Export Plug-In . SVG Version: 6.00 Build 0)  -->
<svg version="1.1" xmlns="http://www.w3.org/2000/svg" xmlns:xlink="http://www.w3.org/1999/xlink" x="0px" y="0px"
	 viewBox="0 0 750 500" style="enable-background:new 0 0 750 500;" xml:space="preserve">
<g id="BACKGROUND">
	<rect style="fill:#FFFFFF;" width="750" height="500"/>
</g>
<g id="OBJECTS">
	<g>
		<path style="fill:#E8ECF9;" d="M395.179,325.464c24.124-0.556,48.056,2.168,70.205,11.384
			c22.953,9.551,44.154,26.031,69.007,26.646c38.749,0.959,66.91-35.89,102.667-50.855c17.003-7.116,35.742-9.192,52.906-15.911
			c12.524-4.903,24.773-13.083,29.674-25.608c3.899-9.966,2.575-21.195,0.052-31.594c-7.889-32.51-25.175-63.041-50.305-85.306
			c-27.773-24.606-64.529-32.434-98.144-45.774c-32.815-13.022-64.002-30.156-92.543-50.941c-13.396-9.755-26.6-20.507-42.417-25.45
			c-10.948-3.421-22.59-3.86-34.06-3.766c-12.845,0.105-25.797,0.862-38.199,4.209c-36.416,9.828-62.842,39.907-93.962,59.515
			c-41.412,26.094-86.33,41.083-132.754,55.427c-26.627,8.227-54.698,17.374-72.961,38.424
			c-11.204,12.915-15.181,28.856-5.727,44.008c9.406,15.075,25.248,24.916,41.337,32.458c15.586,7.306,31.038,14.897,46.575,22.304
			c13.765,6.562,25.981,10.955,36.836,22.33c7.739,8.111,14.667,17.138,23.685,23.802c38.232,28.248,101.287,4.769,143.278-1.232
			C365.098,327.424,380.176,325.809,395.179,325.464z"/>
		<g>
			<g>
				
					<line style="fill:none;stroke:#A0B3EA;stroke-width:1.5;stroke-linejoin:round;stroke-miterlimit:10;" x1="85.459" y1="190.753" x2="92.549" y2="197.843"/>
				
					<line style="fill:none;stroke:#A0B3EA;stroke-width:1.5;stroke-linejoin:round;stroke-miterlimit:10;" x1="92.549" y1="190.753" x2="85.459" y2="197.843"/>
			</g>
			<g>
				
					<line style="fill:none;stroke:#A0B3EA;stroke-width:1.5;stroke-linejoin:round;stroke-miterlimit:10;" x1="693.639" y1="313.491" x2="700.73" y2="320.582"/>
				
					<line style="fill:none;stroke:#A0B3EA;stroke-width:1.5;stroke-linejoin:round;stroke-miterlimit:10;" x1="700.73" y1="313.491" x2="693.639" y2="320.582"/>
			</g>
			<g>
				
					<line style="fill:none;stroke:#A0B3EA;stroke-width:1.5;stroke-linejoin:round;stroke-miterlimit:10;" x1="184.251" y1="333.977" x2="191.341" y2="341.068"/>
				
					<line style="fill:none;stroke:#A0B3EA;stroke-width:1.5;stroke-linejoin:round;stroke-miterlimit:10;" x1="191.341" y1="333.977" x2="184.251" y2="341.068"/>
			</g>
			<g>
				
					<line style="fill:none;stroke:#A0B3EA;stroke-width:1.5;stroke-linejoin:round;stroke-miterlimit:10;" x1="438.55" y1="379.908" x2="445.64" y2="386.998"/>
				
					<line style="fill:none;stroke:#A0B3EA;stroke-width:1.5;stroke-linejoin:round;stroke-miterlimit:10;" x1="445.64" y1="379.908" x2="438.55" y2="386.998"/>
			</g>
			<g>
				
					<line style="fill:none;stroke:#A0B3EA;stroke-width:1.5;stroke-linejoin:round;stroke-miterlimit:10;" x1="625.235" y1="73.914" x2="632.325" y2="81.004"/>
				
					<line style="fill:none;stroke:#A0B3EA;stroke-width:1.5;stroke-linejoin:round;stroke-miterlimit:10;" x1="632.325" y1="73.914" x2="625.235" y2="81.004"/>
			</g>
			<g>
				
					<line style="fill:none;stroke:#A0B3EA;stroke-width:1.5;stroke-linejoin:round;stroke-miterlimit:10;" x1="221.418" y1="44.75" x2="228.508" y2="51.84"/>
				
					<line style="fill:none;stroke:#A0B3EA;stroke-width:1.5;stroke-linejoin:round;stroke-miterlimit:10;" x1="228.508" y1="44.75" x2="221.418" y2="51.84"/>
			</g>
			
				<line style="fill:none;stroke:#A0B3EA;stroke-width:1.5;stroke-linejoin:round;stroke-miterlimit:10;" x1="51.084" y1="125.348" x2="80.543" y2="125.348"/>
			
				<line style="fill:none;stroke:#A0B3EA;stroke-width:1.5;stroke-linejoin:round;stroke-miterlimit:10;" x1="88.786" y1="125.348" x2="111.652" y2="125.348"/>
			<path style="fill:none;stroke:#A0B3EA;stroke-width:1.5;stroke-linejoin:round;stroke-miterlimit:10;" d="M360.412,365.771
				h-32.456c-4.542,0-8.224-3.682-8.224-8.224l0,0c0-4.542,3.682-8.224,8.224-8.224h32.456c4.542,0,8.224,3.682,8.224,8.224l0,0
				C368.636,362.089,364.954,365.771,360.412,365.771z"/>
			<path style="fill:none;stroke:#A0B3EA;stroke-width:1.5;stroke-linejoin:round;stroke-miterlimit:10;" d="M182.708,77.459
				h-16.085c-3.182,0-5.762,2.58-5.762,5.762c0,3.182,2.579,5.762,5.762,5.762h16.085c3.182,0,5.762-2.58,5.762-5.762
				C188.47,80.038,185.89,77.459,182.708,77.459z"/>
			<path style="fill:none;stroke:#A0B3EA;stroke-width:1.5;stroke-linejoin:round;stroke-miterlimit:10;" d="M698.681,160.358
				h-14.796c-5.854,0-10.6,4.746-10.6,10.6s4.746,10.6,10.6,10.6h14.796c5.854,0,10.6-4.746,10.6-10.6
				S704.536,160.358,698.681,160.358z"/>
			
				<line style="fill:none;stroke:#A0B3EA;stroke-width:1.5;stroke-linejoin:round;stroke-miterlimit:10;" x1="368.915" y1="343.514" x2="386.93" y2="343.514"/>
			
				<line style="fill:none;stroke:#A0B3EA;stroke-width:1.5;stroke-linejoin:round;stroke-miterlimit:10;" x1="614.089" y1="129.411" x2="650.561" y2="129.411"/>
		</g>
	</g>
	<g>
		<g>
			<rect x="284.01" y="68.035" style="fill:#FFFFFF;" width="313.854" height="205.489"/>
			<polyline style="fill:none;stroke:#A0B3EA;stroke-width:1.5;stroke-miterlimit:10;" points="284.01,118.816 284.01,68.035 
				403.03,68.035 			"/>
			
				<line style="fill:none;stroke:#A0B3EA;stroke-width:1.5;stroke-miterlimit:10;" x1="500.974" y1="68.035" x2="580.014" y2="68.035"/>
			
				<line style="fill:none;stroke:#A0B3EA;stroke-width:1.5;stroke-miterlimit:10;" x1="597.864" y1="68.035" x2="597.864" y2="141.754"/>
			<rect x="366.038" y="63.051" style="fill:#A0B3EA;" width="149.797" height="7.618"/>
			<rect x="328.644" y="268.476" style="fill:#A0B3EA;" width="224.586" height="8.117"/>
			<g>
				
					<line style="fill:none;stroke:#A0B3EA;stroke-width:1.5;stroke-miterlimit:10;" x1="375.472" y1="272.535" x2="350.937" y2="458.319"/>
				
					<line style="fill:none;stroke:#A0B3EA;stroke-width:1.5;stroke-miterlimit:10;" x1="506.402" y1="272.535" x2="530.937" y2="458.319"/>
			</g>
			<g>
				<g>
					<g>
						<path style="fill:none;stroke:#A0B3EA;stroke-width:1.5;stroke-miterlimit:10;" d="M351.631,117.529
							c2.747,15.641,16.478,30.182,36.086,38.218"/>
						<polyline style="fill:none;stroke:#A0B3EA;stroke-width:1.5;stroke-miterlimit:10;" points="356.372,120.86 351.398,117.264 
							348.605,122.729 						"/>
					</g>
					<g>
						<path style="fill:none;stroke:#A0B3EA;stroke-width:1.5;stroke-miterlimit:10;" d="M346.631,200.997
							c17.52-0.939,34.838-7.872,49.814-19.942"/>
						<polyline style="fill:none;stroke:#A0B3EA;stroke-width:1.5;stroke-miterlimit:10;" points="349.929,196.486 346.076,201.263 
							351.386,204.34 						"/>
					</g>
					<g>
						<path style="fill:none;stroke:#A0B3EA;stroke-width:1.5;stroke-miterlimit:10;" d="M388.083,233.44
							c7.093-5.971,19.583-21.991,26.831-42.414"/>
						<polyline style="fill:none;stroke:#A0B3EA;stroke-width:1.5;stroke-miterlimit:10;" points="387.317,227.593 387.412,233.729 
							393.461,232.697 						"/>
					</g>
					<g>
						<path style="fill:none;stroke:#A0B3EA;stroke-width:1.5;stroke-miterlimit:10;" d="M436.375,192.34
							c-0.708,8.399,1.26,16.902,4.892,24.508c3.632,7.606,8.879,14.359,14.806,20.352"/>
						<polyline style="fill:none;stroke:#A0B3EA;stroke-width:1.5;stroke-miterlimit:10;" points="455.762,231.747 455.833,237.883 
							449.757,237.014 						"/>
					</g>
					<g>
						<path style="fill:none;stroke:#A0B3EA;stroke-width:1.5;stroke-miterlimit:10;" d="M480.015,169.214
							c11.643,12.284,19.947,22.914,26.319,38.857"/>
						<polyline style="fill:none;stroke:#A0B3EA;stroke-width:1.5;stroke-miterlimit:10;" points="501.644,206.043 506.334,208.071 
							507.662,202.926 						"/>
					</g>
					<g>
						<path style="fill:none;stroke:#A0B3EA;stroke-width:1.5;stroke-miterlimit:10;" d="M492.126,157.508
							c16.305-10.794,36.833-14.926,55.882-11.25"/>
						<polyline style="fill:none;stroke:#A0B3EA;stroke-width:1.5;stroke-miterlimit:10;" points="544.697,141.619 548.301,146.587 
							542.84,149.388 						"/>
					</g>
					<g>
						<path style="fill:none;stroke:#A0B3EA;stroke-width:1.5;stroke-miterlimit:10;" d="M406.956,150.728
							c0-18.167,9.145-35.463,18.29-42.635"/>
						<polyline style="fill:none;stroke:#A0B3EA;stroke-width:1.5;stroke-miterlimit:10;" points="424.602,113.938 425.19,107.829 
							419.063,108.182 						"/>
					</g>
					<g>
						<polyline style="fill:none;stroke:#A0B3EA;stroke-width:1.5;stroke-miterlimit:10;" points="492.764,113.245 487.552,110.004 
							485.147,115.65 						"/>
						<path style="fill:none;stroke:#A0B3EA;stroke-width:1.5;stroke-miterlimit:10;" d="M472.308,149.999
							c12.52-8.294,19.008-24.758,15.511-39.363"/>
					</g>
					<path style="fill:#E8EFFC;" d="M515.096,163.486c-0.594-7.705-5.362-13.419-12.154-16.699
						c-9.719-4.694-16.341-3.634-25.479-2.249c-2.926-7.429-11.419-13.054-17.238-14.813c-13.218-3.994-28.431-1.435-39.51,4.75
						c-3.419,1.909-9.538,6.665-13.529,12.936c-10.637-3.879-24.014-5.166-34.063-1.139c-3.947,1.582-7.822,3.574-10.889,6.584
						c-3.067,3.01-5.259,7.175-5.203,11.529c0.08,6.253,4.623,11.499,9.577,15.102c6.392,4.65,13.944,7.517,21.722,8.478
						c2.567,9.566,7.93,16.196,18.627,17.934c19.248,3.127,29.006-9.375,29.006-9.375s7.032,9.375,20.626,12.508
						c11.018,2.539,22.36-1.684,30.151-10.133c5.377-5.831,5.416-15.896,5.416-15.896s5.944-0.328,11.66-1.949
						C509.532,179.434,515.854,173.311,515.096,163.486z"/>
				</g>
				<g>
					<g>
						<path style="fill:#A0B3EA;" d="M487.746,217.572h4.114v5.542c-0.579,0.191-1.176,0.339-1.793,0.445
							c-0.617,0.106-1.313,0.159-2.088,0.159c-1.122,0-2.071-0.223-2.846-0.668c-0.775-0.446-1.364-1.091-1.767-1.937
							c-0.403-0.845-0.604-1.869-0.604-3.072c0-1.153,0.224-2.153,0.672-3.001c0.448-0.848,1.099-1.505,1.955-1.97
							c0.856-0.465,1.893-0.699,3.111-0.699c0.599,0,1.179,0.061,1.74,0.182c0.561,0.12,1.076,0.282,1.544,0.483l-0.642,1.495
							c-0.373-0.171-0.789-0.317-1.25-0.438c-0.46-0.121-0.94-0.181-1.438-0.181c-0.79,0-1.471,0.171-2.042,0.513
							c-0.571,0.342-1.01,0.823-1.317,1.442c-0.307,0.619-0.461,1.352-0.461,2.197c0,0.82,0.123,1.54,0.37,2.159
							c0.247,0.619,0.633,1.101,1.159,1.446c0.526,0.345,1.207,0.517,2.042,0.517c0.413,0,0.767-0.023,1.061-0.068
							c0.294-0.045,0.565-0.095,0.811-0.151v-2.838h-2.333V217.572z"/>
						<path style="fill:#A0B3EA;" d="M501.728,219.369c0,0.695-0.09,1.311-0.272,1.85c-0.181,0.538-0.445,0.994-0.793,1.367
							c-0.347,0.373-0.765,0.654-1.253,0.845c-0.488,0.191-1.039,0.287-1.653,0.287c-0.574,0-1.1-0.096-1.578-0.287
							c-0.478-0.191-0.892-0.473-1.242-0.845c-0.35-0.373-0.62-0.828-0.811-1.367c-0.192-0.539-0.287-1.155-0.287-1.85
							c0-0.921,0.16-1.702,0.479-2.344c0.32-0.642,0.776-1.131,1.37-1.468c0.594-0.337,1.301-0.506,2.122-0.506
							c0.77,0,1.449,0.168,2.038,0.506c0.589,0.337,1.049,0.828,1.382,1.472C501.562,217.673,501.728,218.453,501.728,219.369z
							 M495.665,219.369c0,0.609,0.074,1.13,0.223,1.563c0.148,0.433,0.379,0.764,0.691,0.993c0.312,0.229,0.715,0.343,1.207,0.343
							c0.488,0,0.889-0.115,1.201-0.343c0.312-0.229,0.543-0.56,0.691-0.993c0.148-0.433,0.223-0.954,0.223-1.563
							c0-0.604-0.074-1.118-0.223-1.544c-0.148-0.425-0.379-0.75-0.691-0.974c-0.312-0.224-0.715-0.335-1.208-0.335
							c-0.735,0-1.271,0.246-1.608,0.74C495.834,217.748,495.665,218.453,495.665,219.369z"/>
						<path style="fill:#A0B3EA;" d="M507.043,215.051c1.057,0,1.856,0.234,2.397,0.702s0.812,1.198,0.812,2.189v5.625h-1.261
							l-0.347-1.185h-0.061c-0.236,0.302-0.48,0.553-0.732,0.751c-0.252,0.199-0.541,0.346-0.868,0.442
							c-0.327,0.096-0.728,0.143-1.2,0.143c-0.504,0-0.951-0.092-1.344-0.275c-0.393-0.184-0.701-0.464-0.925-0.842
							c-0.224-0.378-0.336-0.855-0.336-1.435c0-0.861,0.321-1.507,0.962-1.94c0.642-0.433,1.612-0.672,2.911-0.717l1.442-0.053
							v-0.438c0-0.574-0.133-0.984-0.4-1.231c-0.267-0.247-0.644-0.37-1.132-0.37c-0.418,0-0.823,0.06-1.216,0.181
							c-0.393,0.121-0.775,0.267-1.148,0.438l-0.581-1.253c0.413-0.216,0.88-0.393,1.401-0.529
							C505.937,215.118,506.479,215.051,507.043,215.051z M508.485,219.573l-1.072,0.045c-0.886,0.03-1.507,0.18-1.865,0.449
							c-0.358,0.269-0.536,0.64-0.536,1.114c0,0.413,0.123,0.713,0.37,0.902c0.247,0.189,0.571,0.283,0.974,0.283
							c0.614,0,1.122-0.174,1.525-0.525c0.403-0.35,0.604-0.862,0.604-1.536V219.573z"/>
						<path style="fill:#A0B3EA;" d="M514.517,223.566h-1.789v-11.747h1.789V223.566z"/>
						<path style="fill:#A0B3EA;" d="M522.663,221.181c0,0.549-0.133,1.012-0.4,1.389c-0.267,0.377-0.656,0.663-1.167,0.856
							c-0.51,0.194-1.136,0.291-1.876,0.291c-0.584,0-1.086-0.042-1.506-0.124c-0.421-0.083-0.819-0.21-1.197-0.382v-1.533
							c0.403,0.187,0.852,0.348,1.348,0.483c0.495,0.136,0.965,0.204,1.408,0.204c0.579,0,0.997-0.092,1.257-0.275
							c0.259-0.184,0.389-0.429,0.389-0.736c0-0.181-0.052-0.344-0.155-0.487c-0.103-0.143-0.294-0.292-0.574-0.445
							c-0.279-0.153-0.691-0.336-1.235-0.548c-0.529-0.211-0.974-0.424-1.336-0.638c-0.362-0.214-0.636-0.469-0.823-0.766
							c-0.186-0.297-0.279-0.68-0.279-1.148c0-0.745,0.295-1.31,0.884-1.695c0.589-0.385,1.367-0.578,2.333-0.578
							c0.513,0,0.997,0.052,1.453,0.154c0.455,0.103,0.902,0.253,1.34,0.449l-0.559,1.336c-0.378-0.161-0.756-0.295-1.136-0.404
							c-0.38-0.108-0.766-0.163-1.159-0.163c-0.458,0-0.806,0.071-1.046,0.211c-0.239,0.141-0.359,0.34-0.359,0.597
							c0,0.196,0.058,0.362,0.173,0.498c0.116,0.136,0.316,0.272,0.6,0.408s0.681,0.305,1.189,0.506
							c0.498,0.192,0.93,0.392,1.294,0.6c0.365,0.209,0.646,0.464,0.842,0.766C522.565,220.312,522.663,220.702,522.663,221.181z"/>
					</g>
					<g>
						<path style="fill:#A0B3EA;" d="M417.83,94.244c0,0.741-0.181,1.38-0.544,1.916c-0.362,0.537-0.882,0.947-1.557,1.232
							c-0.675,0.285-1.481,0.428-2.416,0.428c-0.457,0-0.894-0.026-1.31-0.077c-0.416-0.052-0.808-0.127-1.176-0.227
							c-0.367-0.1-0.705-0.221-1.013-0.364v-1.933c0.512,0.222,1.083,0.423,1.711,0.603c0.627,0.18,1.266,0.27,1.917,0.27
							c0.53,0,0.969-0.07,1.317-0.21s0.609-0.34,0.783-0.599c0.173-0.26,0.261-0.564,0.261-0.911c0-0.371-0.1-0.683-0.3-0.937
							c-0.2-0.254-0.5-0.489-0.903-0.705c-0.402-0.217-0.908-0.448-1.518-0.693c-0.41-0.159-0.801-0.345-1.171-0.556
							c-0.371-0.211-0.702-0.459-0.993-0.744c-0.291-0.285-0.521-0.625-0.693-1.019c-0.172-0.394-0.257-0.853-0.257-1.378
							c0-0.707,0.172-1.313,0.514-1.818c0.342-0.505,0.822-0.891,1.441-1.16c0.619-0.268,1.342-0.402,2.169-0.402
							c0.656,0,1.273,0.07,1.853,0.21c0.579,0.14,1.147,0.333,1.707,0.578l-0.651,1.66c-0.518-0.211-1.018-0.381-1.497-0.509
							c-0.478-0.128-0.97-0.193-1.471-0.193c-0.433,0-0.801,0.066-1.103,0.197c-0.303,0.131-0.533,0.316-0.689,0.556
							c-0.158,0.24-0.236,0.519-0.236,0.839c0,0.371,0.09,0.679,0.27,0.924s0.459,0.47,0.839,0.676
							c0.379,0.205,0.868,0.433,1.467,0.684c0.69,0.285,1.276,0.585,1.758,0.899c0.482,0.314,0.852,0.688,1.108,1.125
							C417.701,93.042,417.83,93.588,417.83,94.244z"/>
						<path style="fill:#A0B3EA;" d="M422.047,84.336v6.434c0,0.291-0.012,0.609-0.034,0.954c-0.023,0.345-0.046,0.669-0.069,0.971
							h0.043c0.149-0.2,0.327-0.434,0.535-0.702c0.209-0.268,0.406-0.502,0.595-0.702l2.893-3.115h2.31l-3.79,4.073l4.038,5.399
							h-2.361l-3.029-4.158l-1.129,0.975v3.183h-2.019V84.336H422.047z"/>
						<path style="fill:#A0B3EA;" d="M431.091,84.55c0.308,0,0.575,0.083,0.8,0.248c0.225,0.166,0.338,0.451,0.338,0.855
							c0,0.399-0.113,0.685-0.338,0.856c-0.226,0.171-0.492,0.257-0.8,0.257c-0.319,0-0.59-0.086-0.812-0.257
							c-0.223-0.171-0.334-0.456-0.334-0.856c0-0.405,0.111-0.69,0.334-0.855C430.501,84.632,430.772,84.55,431.091,84.55z
							 M432.083,88.177v9.471h-2.019v-9.471H432.083z"/>
						<path style="fill:#A0B3EA;" d="M436.977,97.649h-2.027V84.336h2.027V97.649z"/>
						<path style="fill:#A0B3EA;" d="M441.862,97.649h-2.027V84.336h2.027V97.649z"/>
						<path style="fill:#A0B3EA;" d="M451.094,94.945c0,0.622-0.151,1.146-0.453,1.574c-0.303,0.428-0.743,0.752-1.322,0.971
							c-0.579,0.22-1.288,0.33-2.126,0.33c-0.662,0-1.231-0.047-1.707-0.141c-0.476-0.094-0.928-0.238-1.356-0.432V95.51
							c0.456,0.211,0.965,0.394,1.527,0.548c0.562,0.154,1.093,0.231,1.596,0.231c0.656,0,1.13-0.104,1.424-0.312
							c0.294-0.209,0.44-0.486,0.44-0.834c0-0.205-0.058-0.389-0.176-0.552c-0.116-0.163-0.333-0.331-0.65-0.505
							c-0.316-0.174-0.782-0.381-1.399-0.62c-0.599-0.24-1.103-0.48-1.514-0.723c-0.41-0.242-0.721-0.532-0.932-0.868
							c-0.212-0.337-0.317-0.77-0.317-1.301c0-0.844,0.334-1.484,1.001-1.921c0.667-0.436,1.549-0.654,2.644-0.654
							c0.582,0,1.13,0.059,1.647,0.175s1.023,0.286,1.518,0.509l-0.633,1.514c-0.427-0.183-0.857-0.335-1.288-0.458
							c-0.43-0.123-0.868-0.184-1.313-0.184c-0.52,0-0.915,0.08-1.185,0.24c-0.271,0.159-0.406,0.385-0.406,0.676
							c0,0.222,0.065,0.411,0.197,0.565c0.131,0.154,0.358,0.308,0.68,0.462c0.323,0.154,0.772,0.345,1.348,0.573
							c0.565,0.217,1.054,0.444,1.467,0.68c0.413,0.237,0.731,0.527,0.954,0.869C450.983,93.961,451.094,94.403,451.094,94.945z"/>
					</g>
					<g>
						<path style="fill:#A0B3EA;" d="M443.061,246.565c-0.421,0-0.797,0.076-1.128,0.229c-0.331,0.152-0.611,0.373-0.84,0.662
							c-0.229,0.289-0.403,0.637-0.523,1.044c-0.12,0.407-0.181,0.865-0.181,1.375c0,0.678,0.096,1.263,0.289,1.754
							c0.193,0.491,0.485,0.868,0.879,1.131c0.393,0.263,0.889,0.394,1.486,0.394c0.377,0,0.742-0.036,1.095-0.108
							c0.353-0.072,0.718-0.171,1.095-0.295v1.228c-0.357,0.14-0.718,0.243-1.083,0.307c-0.365,0.064-0.786,0.096-1.264,0.096
							c-0.903,0-1.65-0.187-2.242-0.56c-0.592-0.373-1.032-0.899-1.321-1.577c-0.289-0.678-0.433-1.472-0.433-2.383
							c0-0.666,0.091-1.275,0.274-1.826c0.183-0.552,0.451-1.029,0.806-1.432c0.355-0.403,0.791-0.715,1.309-0.936
							c0.518-0.221,1.113-0.331,1.787-0.331c0.441,0,0.874,0.05,1.3,0.151c0.425,0.1,0.822,0.239,1.192,0.415l-0.506,1.191
							c-0.305-0.14-0.625-0.264-0.96-0.37C443.758,246.618,443.414,246.565,443.061,246.565z"/>
						<path style="fill:#A0B3EA;" d="M448.392,244.898v2.353c0,0.245-0.007,0.484-0.021,0.716c-0.014,0.233-0.029,0.413-0.045,0.542
							h0.078c0.141-0.233,0.313-0.424,0.518-0.575c0.205-0.15,0.434-0.264,0.689-0.34c0.255-0.076,0.526-0.114,0.815-0.114
							c0.509,0,0.943,0.085,1.3,0.256c0.357,0.171,0.631,0.434,0.821,0.791c0.191,0.357,0.286,0.82,0.286,1.39v4.345h-1.414v-4.08
							c0-0.514-0.107-0.9-0.322-1.158c-0.215-0.259-0.543-0.388-0.984-0.388c-0.429,0-0.769,0.089-1.02,0.268
							c-0.251,0.178-0.43,0.44-0.539,0.785c-0.108,0.345-0.163,0.768-0.163,1.27v3.304h-1.42v-9.364H448.392z"/>
						<path style="fill:#A0B3EA;" d="M457.419,247.474c0.842,0,1.479,0.186,1.911,0.56c0.431,0.373,0.647,0.955,0.647,1.745v4.483
							h-1.005l-0.277-0.945h-0.048c-0.189,0.241-0.383,0.44-0.584,0.599c-0.201,0.159-0.431,0.276-0.692,0.352
							c-0.261,0.076-0.58,0.114-0.957,0.114c-0.401,0-0.758-0.073-1.071-0.22c-0.313-0.146-0.559-0.37-0.737-0.671
							c-0.178-0.301-0.268-0.682-0.268-1.143c0-0.686,0.256-1.201,0.767-1.546c0.511-0.345,1.285-0.536,2.32-0.572l1.149-0.042
							v-0.349c0-0.457-0.106-0.784-0.319-0.981c-0.213-0.197-0.514-0.295-0.903-0.295c-0.333,0-0.656,0.048-0.969,0.144
							c-0.313,0.096-0.618,0.213-0.915,0.349l-0.463-0.999c0.329-0.173,0.701-0.313,1.116-0.421
							C456.537,247.528,456.97,247.474,457.419,247.474z M458.568,251.078l-0.854,0.036c-0.706,0.024-1.202,0.143-1.486,0.358
							c-0.285,0.215-0.427,0.51-0.427,0.888c0,0.329,0.098,0.569,0.295,0.719c0.197,0.151,0.455,0.226,0.776,0.226
							c0.489,0,0.895-0.139,1.216-0.418c0.321-0.279,0.481-0.687,0.481-1.225V251.078z"/>
						<path style="fill:#A0B3EA;" d="M463.376,254.262h-1.426v-9.364h1.426V254.262z"/>
						<path style="fill:#A0B3EA;" d="M466.813,254.262h-1.426v-9.364h1.426V254.262z"/>
						<path style="fill:#A0B3EA;" d="M471.482,247.474c0.594,0,1.103,0.122,1.529,0.367c0.425,0.245,0.752,0.592,0.981,1.041
							c0.229,0.449,0.343,0.987,0.343,1.613v0.758h-4.447c0.016,0.646,0.19,1.143,0.521,1.492c0.331,0.349,0.795,0.523,1.393,0.523
							c0.425,0,0.807-0.041,1.146-0.123c0.339-0.082,0.689-0.204,1.05-0.364v1.149c-0.333,0.157-0.672,0.271-1.017,0.343
							c-0.345,0.072-0.758,0.108-1.24,0.108c-0.654,0-1.23-0.126-1.727-0.379c-0.497-0.253-0.885-0.632-1.161-1.137
							c-0.277-0.505-0.415-1.135-0.415-1.889c0-0.746,0.126-1.38,0.379-1.902c0.253-0.521,0.608-0.919,1.065-1.191
							C470.339,247.61,470.872,247.474,471.482,247.474z M471.482,248.539c-0.445,0-0.805,0.144-1.08,0.433
							c-0.275,0.289-0.436,0.712-0.484,1.27h3.027c-0.004-0.333-0.059-0.627-0.165-0.882c-0.106-0.255-0.266-0.455-0.478-0.602
							C472.088,248.612,471.815,248.539,471.482,248.539z"/>
						<path style="fill:#A0B3EA;" d="M479.401,247.474c0.75,0,1.335,0.194,1.754,0.581c0.419,0.387,0.629,1.008,0.629,1.863v4.345
							h-1.414v-4.08c0-0.514-0.106-0.9-0.319-1.158c-0.213-0.259-0.542-0.388-0.987-0.388c-0.646,0-1.094,0.199-1.345,0.596
							c-0.251,0.397-0.376,0.971-0.376,1.721v3.31h-1.42V247.6h1.107l0.199,0.903h0.078c0.144-0.233,0.324-0.424,0.539-0.575
							c0.215-0.15,0.455-0.264,0.722-0.34C478.835,247.512,479.113,247.474,479.401,247.474z"/>
						<path style="fill:#A0B3EA;" d="M485.66,257.222c-0.903,0-1.596-0.163-2.079-0.487c-0.483-0.325-0.725-0.78-0.725-1.366
							c0-0.409,0.129-0.755,0.388-1.038c0.259-0.283,0.627-0.476,1.104-0.581c-0.181-0.08-0.337-0.207-0.469-0.379
							c-0.132-0.173-0.199-0.363-0.199-0.572c0-0.249,0.071-0.461,0.214-0.638c0.142-0.177,0.352-0.347,0.629-0.512
							c-0.349-0.148-0.629-0.39-0.839-0.725c-0.211-0.335-0.316-0.729-0.316-1.182c0-0.481,0.103-0.892,0.31-1.231
							c0.207-0.339,0.506-0.598,0.9-0.776c0.393-0.179,0.868-0.268,1.426-0.268c0.12,0,0.252,0.007,0.394,0.021
							c0.143,0.014,0.275,0.03,0.397,0.048c0.122,0.018,0.216,0.037,0.28,0.057h2.305v0.788l-1.131,0.211
							c0.108,0.152,0.194,0.326,0.259,0.521c0.064,0.195,0.096,0.406,0.096,0.635c0,0.69-0.238,1.233-0.713,1.628
							c-0.475,0.395-1.13,0.593-1.965,0.593c-0.201-0.004-0.395-0.02-0.584-0.048c-0.144,0.092-0.255,0.191-0.331,0.295
							c-0.076,0.104-0.114,0.223-0.114,0.355c0,0.108,0.038,0.195,0.114,0.262c0.076,0.066,0.19,0.115,0.34,0.147
							c0.15,0.032,0.334,0.048,0.551,0.048h1.149c0.73,0,1.288,0.154,1.673,0.463c0.385,0.309,0.578,0.762,0.578,1.36
							c0,0.758-0.313,1.343-0.939,1.754C487.736,257.017,486.835,257.222,485.66,257.222z M485.714,256.229
							c0.49,0,0.903-0.048,1.24-0.144c0.337-0.096,0.593-0.234,0.767-0.412c0.174-0.179,0.262-0.39,0.262-0.635
							c0-0.217-0.055-0.383-0.166-0.499c-0.11-0.116-0.273-0.195-0.487-0.238c-0.215-0.042-0.484-0.063-0.809-0.063h-1.041
							c-0.261,0-0.491,0.041-0.692,0.123c-0.201,0.082-0.356,0.201-0.466,0.355c-0.11,0.154-0.165,0.342-0.165,0.563
							c0,0.305,0.135,0.54,0.406,0.704C484.832,256.147,485.216,256.229,485.714,256.229z M485.991,251.042
							c0.409,0,0.714-0.113,0.915-0.34c0.201-0.227,0.301-0.547,0.301-0.96c0-0.445-0.102-0.78-0.307-1.005
							c-0.205-0.225-0.509-0.337-0.915-0.337c-0.397,0-0.699,0.114-0.906,0.343c-0.207,0.229-0.31,0.566-0.31,1.011
							c0,0.405,0.103,0.721,0.31,0.948C485.286,250.929,485.59,251.042,485.991,251.042z"/>
						<path style="fill:#A0B3EA;" d="M493.242,247.474c0.594,0,1.103,0.122,1.528,0.367c0.425,0.245,0.752,0.592,0.981,1.041
							c0.229,0.449,0.343,0.987,0.343,1.613v0.758h-4.447c0.016,0.646,0.19,1.143,0.521,1.492c0.331,0.349,0.795,0.523,1.393,0.523
							c0.425,0,0.807-0.041,1.146-0.123c0.339-0.082,0.689-0.204,1.05-0.364v1.149c-0.333,0.157-0.672,0.271-1.017,0.343
							c-0.345,0.072-0.758,0.108-1.24,0.108c-0.654,0-1.23-0.126-1.727-0.379c-0.497-0.253-0.885-0.632-1.161-1.137
							c-0.277-0.505-0.415-1.135-0.415-1.889c0-0.746,0.126-1.38,0.379-1.902c0.253-0.521,0.608-0.919,1.065-1.191
							C492.099,247.61,492.632,247.474,493.242,247.474z M493.242,248.539c-0.445,0-0.805,0.144-1.08,0.433
							c-0.275,0.289-0.436,0.712-0.484,1.27h3.027c-0.004-0.333-0.059-0.627-0.165-0.882c-0.106-0.255-0.266-0.455-0.478-0.602
							C493.848,248.612,493.575,248.539,493.242,248.539z"/>
					</g>
					<g>
						<path style="fill:#A0B3EA;" d="M480.741,95.388h3.681v4.956c-0.517,0.171-1.052,0.304-1.604,0.399
							c-0.552,0.094-1.174,0.141-1.867,0.141c-1.004,0-1.853-0.199-2.546-0.597c-0.694-0.399-1.221-0.976-1.581-1.732
							c-0.36-0.756-0.54-1.672-0.54-2.748c0-1.031,0.201-1.926,0.602-2.684c0.4-0.759,0.983-1.346,1.749-1.763
							c0.765-0.416,1.692-0.625,2.782-0.625c0.536,0,1.054,0.054,1.557,0.162c0.502,0.108,0.962,0.252,1.381,0.432l-0.575,1.337
							c-0.333-0.153-0.705-0.284-1.117-0.392c-0.412-0.108-0.841-0.162-1.287-0.162c-0.707,0-1.316,0.153-1.826,0.459
							c-0.512,0.306-0.904,0.736-1.178,1.29c-0.275,0.554-0.412,1.209-0.412,1.965c0,0.734,0.11,1.378,0.331,1.931
							c0.221,0.554,0.567,0.985,1.037,1.293c0.47,0.308,1.079,0.463,1.826,0.463c0.369,0,0.685-0.021,0.949-0.061
							c0.264-0.04,0.505-0.085,0.726-0.135v-2.539h-2.087V95.388z"/>
						<path style="fill:#A0B3EA;" d="M490.418,93.132c0.126,0,0.264,0.007,0.412,0.02c0.148,0.014,0.277,0.032,0.385,0.054
							l-0.148,1.492c-0.094-0.027-0.211-0.048-0.348-0.064c-0.137-0.016-0.26-0.024-0.368-0.024c-0.284,0-0.554,0.047-0.81,0.142
							c-0.257,0.094-0.483,0.235-0.682,0.422c-0.198,0.187-0.353,0.42-0.465,0.699c-0.113,0.279-0.169,0.603-0.169,0.972v3.904
							h-1.601v-7.475h1.25l0.217,1.317h0.074c0.148-0.266,0.333-0.509,0.554-0.73c0.221-0.22,0.473-0.397,0.759-0.53
							C489.762,93.199,490.076,93.132,490.418,93.132z"/>
						<path style="fill:#A0B3EA;" d="M499.219,96.995c0,0.621-0.081,1.172-0.244,1.654c-0.161,0.482-0.398,0.889-0.709,1.222
							c-0.31,0.334-0.684,0.586-1.12,0.757c-0.437,0.171-0.93,0.256-1.479,0.256c-0.513,0-0.984-0.085-1.411-0.256
							c-0.428-0.171-0.798-0.423-1.111-0.757c-0.313-0.333-0.555-0.74-0.726-1.222c-0.171-0.482-0.256-1.033-0.256-1.654
							c0-0.824,0.142-1.523,0.428-2.097c0.286-0.574,0.694-1.011,1.226-1.313c0.532-0.301,1.163-0.452,1.898-0.452
							c0.689,0,1.297,0.151,1.823,0.452c0.527,0.302,0.939,0.741,1.236,1.317C499.07,95.478,499.219,96.176,499.219,96.995z
							 M493.796,96.995c0,0.545,0.066,1.01,0.199,1.398c0.132,0.387,0.338,0.684,0.618,0.888c0.279,0.205,0.639,0.307,1.08,0.307
							c0.436,0,0.794-0.102,1.074-0.307c0.279-0.205,0.484-0.501,0.618-0.888c0.132-0.387,0.199-0.853,0.199-1.398
							c0-0.541-0.066-1-0.199-1.381c-0.133-0.381-0.339-0.671-0.618-0.871c-0.28-0.201-0.64-0.301-1.081-0.301
							c-0.657,0-1.136,0.221-1.438,0.662S493.796,96.176,493.796,96.995z"/>
						<path style="fill:#A0B3EA;" d="M507.558,93.274v7.475h-1.25l-0.223-0.999h-0.081c-0.158,0.257-0.358,0.469-0.601,0.638
							c-0.244,0.168-0.514,0.293-0.814,0.375c-0.299,0.081-0.613,0.121-0.942,0.121c-0.558,0-1.036-0.096-1.435-0.287
							c-0.398-0.191-0.704-0.488-0.918-0.888c-0.215-0.401-0.321-0.918-0.321-1.553v-4.882h1.601v4.585
							c0,0.581,0.117,1.016,0.354,1.303c0.237,0.288,0.605,0.432,1.104,0.432c0.481,0,0.863-0.099,1.144-0.297
							c0.282-0.198,0.483-0.491,0.605-0.878c0.121-0.387,0.183-0.862,0.183-1.425v-3.721H507.558z"/>
						<path style="fill:#A0B3EA;" d="M513.663,93.132c0.887,0,1.599,0.324,2.137,0.972c0.538,0.648,0.806,1.612,0.806,2.891
							c0,0.846-0.124,1.559-0.374,2.137c-0.251,0.579-0.599,1.015-1.047,1.31s-0.969,0.442-1.564,0.442
							c-0.378,0-0.707-0.048-0.986-0.145c-0.279-0.097-0.517-0.226-0.716-0.389c-0.198-0.162-0.364-0.335-0.499-0.52h-0.094
							c0.022,0.176,0.044,0.373,0.064,0.591c0.02,0.218,0.03,0.42,0.03,0.604v3.039h-1.601V93.274h1.304l0.223,1.033h0.074
							c0.139-0.212,0.31-0.407,0.51-0.587c0.2-0.18,0.443-0.324,0.729-0.429C512.946,93.186,513.28,93.132,513.663,93.132z
							 M513.237,94.436c-0.436,0-0.786,0.087-1.05,0.26c-0.263,0.174-0.454,0.432-0.574,0.777c-0.119,0.345-0.184,0.778-0.193,1.3
							v0.223c0,0.554,0.057,1.023,0.173,1.408c0.114,0.385,0.306,0.678,0.574,0.878c0.268,0.201,0.632,0.3,1.091,0.3
							c0.382,0,0.701-0.106,0.955-0.317c0.255-0.211,0.445-0.513,0.571-0.905c0.126-0.392,0.19-0.853,0.19-1.385
							c0-0.806-0.142-1.43-0.425-1.874C514.264,94.657,513.826,94.436,513.237,94.436z"/>
						<path style="fill:#A0B3EA;" d="M523.462,98.616c0,0.491-0.119,0.905-0.358,1.242c-0.239,0.338-0.587,0.593-1.043,0.767
							c-0.457,0.173-1.017,0.26-1.679,0.26c-0.522,0-0.971-0.037-1.347-0.111s-0.732-0.188-1.07-0.341v-1.371
							c0.36,0.167,0.762,0.311,1.206,0.432c0.443,0.122,0.863,0.183,1.259,0.183c0.518,0,0.893-0.082,1.125-0.247
							c0.232-0.164,0.347-0.384,0.347-0.658c0-0.162-0.046-0.307-0.138-0.435c-0.092-0.128-0.263-0.261-0.513-0.399
							c-0.251-0.137-0.619-0.3-1.104-0.489c-0.473-0.189-0.872-0.379-1.195-0.571c-0.324-0.191-0.57-0.42-0.736-0.686
							c-0.167-0.265-0.25-0.608-0.25-1.026c0-0.666,0.263-1.171,0.79-1.516c0.526-0.345,1.222-0.517,2.086-0.517
							c0.459,0,0.893,0.046,1.3,0.138c0.408,0.092,0.807,0.226,1.199,0.402l-0.5,1.195c-0.337-0.144-0.676-0.264-1.016-0.361
							c-0.34-0.097-0.686-0.145-1.037-0.145c-0.409,0-0.721,0.063-0.935,0.189c-0.214,0.126-0.321,0.304-0.321,0.534
							c0,0.175,0.051,0.324,0.155,0.446c0.103,0.121,0.282,0.243,0.537,0.365c0.255,0.121,0.609,0.272,1.064,0.452
							c0.445,0.171,0.831,0.35,1.157,0.537c0.327,0.186,0.578,0.415,0.753,0.685C523.373,97.839,523.462,98.188,523.462,98.616z"/>
					</g>
					<g>
						<path style="fill:#A0B3EA;" d="M328.684,214.564h4.323v5.822c-0.608,0.201-1.236,0.357-1.884,0.468
							c-0.647,0.111-1.379,0.167-2.193,0.167c-1.179,0-2.176-0.234-2.99-0.702c-0.815-0.468-1.433-1.146-1.856-2.035
							c-0.423-0.888-0.634-1.964-0.634-3.229c0-1.211,0.235-2.262,0.706-3.153c0.47-0.891,1.155-1.581,2.054-2.071
							c0.899-0.489,1.988-0.734,3.268-0.734c0.629,0,1.239,0.064,1.828,0.191c0.59,0.127,1.13,0.296,1.622,0.508l-0.674,1.571
							c-0.391-0.179-0.829-0.333-1.312-0.46c-0.484-0.127-0.988-0.191-1.511-0.191c-0.83,0-1.546,0.18-2.145,0.54
							c-0.6,0.359-1.062,0.865-1.385,1.515c-0.322,0.65-0.483,1.42-0.483,2.308c0,0.862,0.129,1.618,0.389,2.269
							c0.259,0.65,0.665,1.157,1.217,1.519c0.552,0.362,1.268,0.543,2.145,0.543c0.434,0,0.805-0.024,1.115-0.071
							c0.309-0.048,0.593-0.1,0.852-0.159v-2.983h-2.451V214.564z"/>
						<path style="fill:#A0B3EA;" d="M343.255,212.081v8.781h-1.467l-0.262-1.174h-0.095c-0.185,0.301-0.42,0.551-0.706,0.75
							c-0.286,0.198-0.604,0.345-0.956,0.44c-0.352,0.095-0.721,0.142-1.107,0.142c-0.656,0-1.218-0.112-1.686-0.337
							c-0.468-0.225-0.828-0.572-1.079-1.043c-0.251-0.47-0.377-1.079-0.377-1.824v-5.735h1.88v5.386
							c0,0.682,0.139,1.193,0.416,1.531c0.278,0.339,0.71,0.508,1.297,0.508c0.566,0,1.014-0.116,1.344-0.349
							c0.33-0.233,0.567-0.576,0.71-1.031c0.143-0.455,0.214-1.012,0.214-1.674v-4.37H343.255z"/>
						<path style="fill:#A0B3EA;" d="M346.865,208.718c0.285,0,0.533,0.077,0.742,0.23c0.209,0.154,0.313,0.418,0.313,0.793
							c0,0.37-0.104,0.634-0.313,0.793c-0.209,0.159-0.456,0.238-0.742,0.238c-0.296,0-0.548-0.079-0.754-0.238
							c-0.206-0.158-0.309-0.423-0.309-0.793c0-0.376,0.103-0.64,0.309-0.793C346.317,208.795,346.569,208.718,346.865,208.718z
							 M347.785,212.081v8.781h-1.872v-8.781H347.785z"/>
						<path style="fill:#A0B3EA;" d="M353.393,221.021c-1.042,0-1.879-0.382-2.511-1.146c-0.632-0.764-0.948-1.892-0.948-3.383
							c0-1.507,0.321-2.646,0.964-3.419c0.642-0.772,1.49-1.158,2.543-1.158c0.439,0,0.825,0.059,1.158,0.178
							c0.333,0.119,0.621,0.279,0.865,0.48c0.243,0.201,0.447,0.425,0.611,0.674h0.087c-0.026-0.164-0.056-0.401-0.087-0.71
							c-0.032-0.309-0.048-0.596-0.048-0.861v-3.157h1.872v12.342h-1.459l-0.333-1.19h-0.079c-0.158,0.249-0.358,0.476-0.599,0.683
							c-0.241,0.206-0.528,0.369-0.86,0.487C354.234,220.962,353.842,221.021,353.393,221.021z M353.925,219.506
							c0.793,0,1.355-0.23,1.685-0.69c0.33-0.46,0.498-1.15,0.503-2.07v-0.246c0-0.983-0.158-1.737-0.472-2.261
							c-0.314-0.523-0.892-0.785-1.733-0.785c-0.671,0-1.183,0.27-1.535,0.809c-0.352,0.539-0.527,1.293-0.527,2.261
							c0,0.967,0.176,1.706,0.527,2.217C352.725,219.251,353.242,219.506,353.925,219.506z"/>
						<path style="fill:#A0B3EA;" d="M364.061,211.915c0.782,0,1.454,0.161,2.015,0.484c0.56,0.322,0.991,0.78,1.293,1.372
							c0.301,0.592,0.452,1.301,0.452,2.126v0.999h-5.862c0.021,0.852,0.25,1.508,0.686,1.967c0.436,0.46,1.048,0.69,1.836,0.69
							c0.561,0,1.064-0.054,1.511-0.162c0.447-0.108,0.908-0.268,1.384-0.48v1.515c-0.439,0.206-0.886,0.357-1.341,0.452
							c-0.455,0.095-0.999,0.142-1.634,0.142c-0.862,0-1.621-0.167-2.277-0.499c-0.655-0.333-1.166-0.833-1.53-1.499
							c-0.365-0.666-0.548-1.496-0.548-2.49c0-0.984,0.166-1.819,0.5-2.507c0.333-0.688,0.801-1.211,1.404-1.571
							C362.555,212.094,363.258,211.915,364.061,211.915z M364.061,213.318c-0.587,0-1.062,0.191-1.424,0.571
							c-0.362,0.381-0.575,0.939-0.639,1.674h3.99c-0.006-0.439-0.078-0.826-0.218-1.162c-0.14-0.335-0.351-0.6-0.631-0.793
							C364.86,213.415,364.5,213.318,364.061,213.318z"/>
					</g>
					<g>
						<path style="fill:#A0B3EA;" d="M371.483,249.701c0,0.678-0.085,1.295-0.256,1.85c-0.171,0.556-0.426,1.034-0.767,1.435
							s-0.768,0.709-1.282,0.924c-0.513,0.215-1.115,0.322-1.805,0.322c-0.702,0-1.312-0.107-1.829-0.322
							c-0.518-0.215-0.946-0.523-1.285-0.924c-0.339-0.401-0.592-0.881-0.758-1.438c-0.167-0.558-0.25-1.177-0.25-1.859
							c0-0.907,0.148-1.698,0.445-2.374c0.297-0.676,0.752-1.202,1.366-1.577c0.614-0.375,1.388-0.563,2.323-0.563
							c0.915,0,1.675,0.187,2.281,0.56c0.606,0.373,1.06,0.899,1.363,1.577C371.331,247.99,371.483,248.786,371.483,249.701z
							 M364.767,249.701c0,0.678,0.092,1.265,0.277,1.76s0.468,0.877,0.852,1.143c0.383,0.267,0.876,0.4,1.477,0.4
							c0.602,0,1.094-0.133,1.477-0.4c0.383-0.267,0.664-0.648,0.842-1.143c0.179-0.495,0.268-1.082,0.268-1.76
							c0-1.027-0.205-1.833-0.614-2.419c-0.409-0.586-1.063-0.878-1.962-0.878c-0.602,0-1.096,0.133-1.483,0.4
							c-0.387,0.267-0.673,0.646-0.858,1.137C364.859,248.432,364.767,249.019,364.767,249.701z"/>
						<path style="fill:#A0B3EA;" d="M376.646,247.324c0.79,0,1.425,0.289,1.904,0.867c0.48,0.578,0.719,1.436,0.719,2.576
							c0,0.754-0.111,1.389-0.334,1.904c-0.223,0.516-0.534,0.905-0.933,1.167c-0.399,0.263-0.864,0.394-1.393,0.394
							c-0.337,0-0.63-0.043-0.878-0.129c-0.249-0.086-0.461-0.202-0.638-0.346c-0.177-0.144-0.325-0.299-0.445-0.463h-0.084
							c0.02,0.156,0.039,0.332,0.057,0.527c0.018,0.195,0.027,0.374,0.027,0.539v2.708h-1.426v-9.616h1.161l0.199,0.921h0.066
							c0.124-0.188,0.276-0.363,0.454-0.523c0.178-0.16,0.395-0.288,0.65-0.382C376.007,247.371,376.305,247.324,376.646,247.324z
							 M376.267,248.485c-0.389,0-0.701,0.077-0.936,0.232c-0.235,0.154-0.405,0.385-0.512,0.692s-0.163,0.693-0.171,1.158v0.199
							c0,0.493,0.051,0.912,0.153,1.255s0.273,0.604,0.512,0.782c0.239,0.179,0.563,0.268,0.972,0.268
							c0.341,0,0.625-0.094,0.852-0.283c0.227-0.189,0.396-0.457,0.509-0.806c0.112-0.349,0.168-0.76,0.168-1.234
							c0-0.718-0.126-1.275-0.379-1.67C377.181,248.683,376.792,248.485,376.267,248.485z"/>
						<path style="fill:#A0B3EA;" d="M383.38,253.089c0.185,0,0.367-0.017,0.548-0.051c0.181-0.034,0.345-0.075,0.493-0.123v1.071
							c-0.156,0.068-0.359,0.126-0.608,0.174c-0.249,0.048-0.508,0.072-0.776,0.072c-0.377,0-0.716-0.063-1.017-0.189
							c-0.301-0.126-0.54-0.344-0.716-0.653c-0.176-0.309-0.265-0.736-0.265-1.282v-3.574h-0.909v-0.632l0.975-0.505l0.463-1.426
							h0.891v1.48h1.908v1.083h-1.908v3.556c0,0.337,0.084,0.588,0.253,0.752C382.88,253.007,383.103,253.089,383.38,253.089z"/>
						<path style="fill:#A0B3EA;" d="M386.491,244.899c0.217,0,0.404,0.058,0.563,0.175c0.158,0.116,0.238,0.317,0.238,0.602
							c0,0.281-0.079,0.481-0.238,0.602c-0.159,0.12-0.346,0.181-0.563,0.181c-0.225,0-0.415-0.06-0.572-0.181
							c-0.156-0.12-0.235-0.321-0.235-0.602c0-0.285,0.078-0.485,0.235-0.602C386.076,244.957,386.266,244.899,386.491,244.899z
							 M387.189,247.45v6.662h-1.42v-6.662H387.189z"/>
						<path style="fill:#A0B3EA;" d="M395.108,250.766c0,0.554-0.072,1.045-0.217,1.474c-0.144,0.429-0.355,0.792-0.632,1.089
							c-0.277,0.297-0.61,0.521-0.999,0.674c-0.389,0.152-0.828,0.229-1.318,0.229c-0.457,0-0.876-0.076-1.258-0.229
							c-0.381-0.152-0.711-0.377-0.99-0.674c-0.279-0.297-0.495-0.66-0.647-1.089c-0.152-0.429-0.229-0.921-0.229-1.474
							c0-0.734,0.127-1.357,0.382-1.868c0.255-0.512,0.619-0.902,1.092-1.171c0.473-0.269,1.037-0.403,1.691-0.403
							c0.614,0,1.155,0.134,1.625,0.403c0.469,0.269,0.837,0.66,1.101,1.173C394.976,249.414,395.108,250.036,395.108,250.766z
							 M390.276,250.766c0,0.485,0.059,0.901,0.178,1.246c0.118,0.345,0.302,0.609,0.551,0.791c0.249,0.183,0.57,0.274,0.963,0.274
							c0.389,0,0.708-0.091,0.957-0.274c0.249-0.182,0.432-0.446,0.551-0.791c0.118-0.345,0.178-0.76,0.178-1.246
							c0-0.482-0.059-0.892-0.178-1.231c-0.118-0.339-0.302-0.598-0.551-0.776c-0.249-0.179-0.57-0.268-0.963-0.268
							c-0.586,0-1.013,0.197-1.282,0.59C390.41,249.474,390.276,250.036,390.276,250.766z"/>
						<path style="fill:#A0B3EA;" d="M400.205,247.324c0.75,0,1.335,0.193,1.754,0.581c0.419,0.387,0.629,1.008,0.629,1.862v4.345
							h-1.414v-4.08c0-0.514-0.106-0.9-0.319-1.158c-0.213-0.259-0.542-0.388-0.987-0.388c-0.646,0-1.094,0.199-1.345,0.596
							c-0.251,0.397-0.376,0.971-0.376,1.721v3.31h-1.42v-6.662h1.107l0.199,0.903h0.078c0.145-0.233,0.324-0.424,0.539-0.575
							c0.215-0.15,0.455-0.264,0.722-0.34C399.638,247.362,399.916,247.324,400.205,247.324z"/>
						<path style="fill:#A0B3EA;" d="M409.039,252.21c0,0.437-0.106,0.806-0.319,1.107c-0.213,0.301-0.523,0.529-0.93,0.683
							c-0.407,0.155-0.906,0.232-1.495,0.232c-0.465,0-0.866-0.033-1.201-0.099c-0.335-0.066-0.653-0.167-0.954-0.304v-1.221
							c0.321,0.148,0.679,0.277,1.074,0.385c0.395,0.108,0.769,0.163,1.122,0.163c0.461,0,0.795-0.073,1.002-0.22
							c0.207-0.146,0.31-0.342,0.31-0.587c0-0.144-0.041-0.274-0.123-0.388c-0.082-0.114-0.235-0.233-0.457-0.355
							c-0.223-0.122-0.551-0.268-0.984-0.436c-0.421-0.169-0.776-0.338-1.065-0.508c-0.289-0.171-0.508-0.374-0.656-0.611
							c-0.148-0.237-0.223-0.542-0.223-0.915c0-0.594,0.235-1.044,0.704-1.351c0.469-0.307,1.089-0.46,1.859-0.46
							c0.409,0,0.795,0.041,1.158,0.123c0.363,0.082,0.719,0.202,1.068,0.358l-0.445,1.065c-0.301-0.128-0.603-0.236-0.906-0.322
							c-0.303-0.086-0.611-0.129-0.924-0.129c-0.365,0-0.643,0.056-0.833,0.169c-0.191,0.112-0.286,0.271-0.286,0.475
							c0,0.156,0.046,0.289,0.138,0.397c0.092,0.108,0.252,0.217,0.479,0.325c0.227,0.108,0.543,0.243,0.948,0.403
							c0.397,0.152,0.741,0.312,1.032,0.478c0.291,0.167,0.514,0.37,0.671,0.611C408.961,251.518,409.039,251.829,409.039,252.21z"
							/>
					</g>
					<g>
						<path style="fill:#A0B3EA;" d="M325.987,108.557h-1.45v-7.57h-2.576v-1.228h6.595v1.228h-2.57V108.557z"/>
						<path style="fill:#A0B3EA;" d="M333.13,101.769c0.112,0,0.235,0.006,0.367,0.018c0.132,0.012,0.247,0.028,0.343,0.048
							l-0.132,1.33c-0.084-0.024-0.188-0.043-0.31-0.057c-0.122-0.014-0.232-0.021-0.328-0.021c-0.253,0-0.493,0.042-0.722,0.126
							c-0.229,0.084-0.431,0.21-0.608,0.376c-0.177,0.167-0.315,0.374-0.415,0.623c-0.1,0.249-0.15,0.538-0.15,0.867v3.478h-1.426
							v-6.662h1.113l0.193,1.174h0.066c0.132-0.237,0.297-0.453,0.493-0.65c0.197-0.197,0.422-0.354,0.677-0.472
							C332.545,101.828,332.825,101.769,333.13,101.769z"/>
						<path style="fill:#A0B3EA;" d="M337.685,101.769c0.842,0,1.479,0.187,1.911,0.56c0.431,0.373,0.647,0.955,0.647,1.745v4.483
							h-1.005l-0.277-0.945h-0.048c-0.189,0.241-0.383,0.44-0.584,0.599c-0.201,0.158-0.431,0.276-0.692,0.352
							s-0.58,0.114-0.957,0.114c-0.401,0-0.758-0.073-1.071-0.22c-0.313-0.146-0.559-0.37-0.737-0.671
							c-0.179-0.301-0.268-0.682-0.268-1.143c0-0.686,0.256-1.202,0.767-1.547s1.285-0.535,2.32-0.572l1.149-0.042v-0.349
							c0-0.457-0.106-0.784-0.319-0.981c-0.213-0.196-0.513-0.295-0.903-0.295c-0.333,0-0.656,0.048-0.969,0.144
							c-0.313,0.096-0.618,0.213-0.915,0.349l-0.463-0.999c0.329-0.173,0.701-0.313,1.116-0.421
							C336.804,101.824,337.236,101.769,337.685,101.769z M338.835,105.374l-0.854,0.036c-0.706,0.024-1.202,0.143-1.486,0.358
							c-0.285,0.215-0.427,0.511-0.427,0.888c0,0.329,0.098,0.569,0.295,0.719c0.197,0.15,0.455,0.226,0.776,0.226
							c0.49,0,0.895-0.139,1.216-0.418c0.321-0.279,0.481-0.687,0.481-1.225V105.374z"/>
						<path style="fill:#A0B3EA;" d="M342.939,99.344c0.217,0,0.404,0.058,0.563,0.174c0.159,0.116,0.238,0.317,0.238,0.602
							c0,0.281-0.079,0.481-0.238,0.602c-0.158,0.12-0.346,0.181-0.563,0.181c-0.225,0-0.415-0.06-0.572-0.181
							c-0.157-0.12-0.235-0.321-0.235-0.602c0-0.285,0.078-0.485,0.235-0.602C342.523,99.402,342.714,99.344,342.939,99.344z
							 M343.637,101.896v6.662h-1.42v-6.662H343.637z"/>
						<path style="fill:#A0B3EA;" d="M349.131,101.769c0.75,0,1.335,0.193,1.754,0.581c0.419,0.387,0.629,1.008,0.629,1.862v4.345
							H350.1v-4.08c0-0.514-0.106-0.9-0.319-1.158c-0.213-0.259-0.542-0.388-0.987-0.388c-0.646,0-1.094,0.199-1.345,0.596
							c-0.251,0.397-0.376,0.971-0.376,1.721v3.31h-1.42v-6.662h1.107l0.199,0.903h0.078c0.144-0.233,0.324-0.424,0.539-0.575
							c0.215-0.15,0.455-0.264,0.722-0.34C348.564,101.808,348.842,101.769,349.131,101.769z"/>
						<path style="fill:#A0B3EA;" d="M354.204,99.344c0.217,0,0.404,0.058,0.563,0.174c0.158,0.116,0.238,0.317,0.238,0.602
							c0,0.281-0.079,0.481-0.238,0.602c-0.159,0.12-0.346,0.181-0.563,0.181c-0.225,0-0.415-0.06-0.572-0.181
							c-0.156-0.12-0.235-0.321-0.235-0.602c0-0.285,0.078-0.485,0.235-0.602C353.788,99.402,353.979,99.344,354.204,99.344z
							 M354.902,101.896v6.662h-1.42v-6.662H354.902z"/>
						<path style="fill:#A0B3EA;" d="M360.396,101.769c0.75,0,1.335,0.193,1.754,0.581c0.419,0.387,0.629,1.008,0.629,1.862v4.345
							h-1.414v-4.08c0-0.514-0.106-0.9-0.319-1.158c-0.213-0.259-0.542-0.388-0.987-0.388c-0.646,0-1.094,0.199-1.345,0.596
							c-0.251,0.397-0.376,0.971-0.376,1.721v3.31h-1.42v-6.662h1.107l0.199,0.903h0.078c0.144-0.233,0.324-0.424,0.539-0.575
							c0.215-0.15,0.455-0.264,0.722-0.34C359.829,101.808,360.107,101.769,360.396,101.769z"/>
						<path style="fill:#A0B3EA;" d="M366.654,111.518c-0.903,0-1.596-0.162-2.079-0.487c-0.483-0.325-0.725-0.78-0.725-1.366
							c0-0.409,0.129-0.755,0.388-1.038c0.259-0.283,0.627-0.476,1.104-0.581c-0.181-0.08-0.337-0.207-0.469-0.379
							c-0.132-0.173-0.198-0.363-0.198-0.572c0-0.249,0.071-0.461,0.214-0.638s0.352-0.347,0.629-0.511
							c-0.349-0.148-0.629-0.39-0.839-0.725c-0.211-0.335-0.316-0.729-0.316-1.182c0-0.481,0.103-0.892,0.31-1.231
							c0.207-0.339,0.507-0.598,0.9-0.776c0.393-0.178,0.868-0.268,1.426-0.268c0.12,0,0.252,0.007,0.394,0.021
							c0.142,0.014,0.275,0.03,0.397,0.048c0.122,0.018,0.216,0.037,0.28,0.057h2.305v0.788l-1.131,0.211
							c0.108,0.152,0.195,0.326,0.259,0.521c0.064,0.195,0.096,0.406,0.096,0.635c0,0.69-0.238,1.233-0.713,1.628
							c-0.475,0.395-1.13,0.593-1.965,0.593c-0.201-0.004-0.395-0.02-0.584-0.048c-0.144,0.092-0.255,0.191-0.331,0.295
							c-0.076,0.104-0.114,0.223-0.114,0.355c0,0.108,0.038,0.196,0.114,0.262c0.076,0.066,0.19,0.115,0.34,0.147
							c0.15,0.032,0.334,0.048,0.551,0.048h1.149c0.73,0,1.288,0.154,1.673,0.463c0.385,0.309,0.578,0.762,0.578,1.36
							c0,0.758-0.313,1.343-0.939,1.754S367.83,111.518,366.654,111.518z M366.708,110.525c0.49,0,0.903-0.048,1.24-0.145
							c0.337-0.096,0.593-0.234,0.767-0.412c0.174-0.178,0.262-0.39,0.262-0.635c0-0.217-0.055-0.383-0.165-0.5
							c-0.11-0.116-0.273-0.196-0.487-0.238c-0.215-0.042-0.484-0.063-0.809-0.063h-1.041c-0.261,0-0.491,0.041-0.692,0.123
							c-0.201,0.082-0.356,0.201-0.466,0.355c-0.11,0.155-0.165,0.342-0.165,0.563c0,0.305,0.135,0.54,0.406,0.704
							C365.827,110.443,366.211,110.525,366.708,110.525z M366.985,105.338c0.409,0,0.714-0.113,0.915-0.34
							c0.201-0.227,0.301-0.547,0.301-0.96c0-0.445-0.102-0.78-0.307-1.005c-0.205-0.225-0.509-0.337-0.915-0.337
							c-0.397,0-0.699,0.114-0.906,0.343c-0.207,0.229-0.31,0.566-0.31,1.011c0,0.405,0.103,0.721,0.31,0.948
							C366.28,105.225,366.584,105.338,366.985,105.338z"/>
					</g>
					<g>
						<path style="fill:#A0B3EA;" d="M534.197,154.066c-0.421,0-0.797,0.076-1.128,0.229c-0.331,0.152-0.611,0.373-0.84,0.662
							c-0.229,0.289-0.403,0.637-0.523,1.044c-0.12,0.407-0.18,0.866-0.18,1.375c0,0.678,0.096,1.263,0.289,1.754
							c0.193,0.492,0.485,0.869,0.879,1.131c0.393,0.263,0.889,0.394,1.486,0.394c0.377,0,0.742-0.036,1.095-0.108
							c0.353-0.072,0.718-0.171,1.095-0.295v1.228c-0.357,0.14-0.718,0.243-1.083,0.307c-0.365,0.064-0.786,0.096-1.264,0.096
							c-0.903,0-1.65-0.187-2.242-0.56c-0.592-0.373-1.032-0.899-1.321-1.577c-0.289-0.678-0.433-1.472-0.433-2.383
							c0-0.666,0.091-1.275,0.274-1.826c0.182-0.552,0.451-1.029,0.806-1.432c0.355-0.403,0.791-0.715,1.309-0.936
							c0.517-0.221,1.113-0.331,1.787-0.331c0.441,0,0.875,0.05,1.3,0.15c0.425,0.1,0.822,0.239,1.191,0.415l-0.505,1.191
							c-0.305-0.14-0.625-0.264-0.96-0.37C534.894,154.119,534.55,154.066,534.197,154.066z"/>
						<path style="fill:#A0B3EA;" d="M539.529,152.399v2.353c0,0.245-0.007,0.483-0.021,0.716c-0.014,0.233-0.029,0.413-0.045,0.542
							h0.078c0.14-0.233,0.313-0.424,0.518-0.575c0.205-0.15,0.434-0.264,0.689-0.34c0.255-0.076,0.527-0.114,0.815-0.114
							c0.509,0,0.943,0.085,1.3,0.256c0.357,0.171,0.631,0.434,0.821,0.791c0.19,0.357,0.286,0.82,0.286,1.39v4.345h-1.414v-4.08
							c0-0.514-0.107-0.9-0.322-1.158c-0.215-0.259-0.543-0.388-0.984-0.388c-0.429,0-0.769,0.089-1.02,0.268
							c-0.251,0.179-0.43,0.44-0.539,0.785c-0.108,0.345-0.162,0.768-0.162,1.27v3.304h-1.42v-9.363H539.529z"/>
						<path style="fill:#A0B3EA;" d="M548.555,154.975c0.842,0,1.479,0.187,1.911,0.56c0.431,0.373,0.647,0.955,0.647,1.745v4.483
							h-1.005l-0.277-0.945h-0.048c-0.189,0.241-0.383,0.44-0.584,0.599c-0.201,0.158-0.431,0.276-0.692,0.352
							c-0.261,0.076-0.58,0.114-0.957,0.114c-0.401,0-0.758-0.073-1.071-0.22c-0.313-0.146-0.559-0.37-0.737-0.671
							c-0.178-0.301-0.268-0.682-0.268-1.143c0-0.686,0.256-1.202,0.767-1.547c0.512-0.345,1.285-0.536,2.32-0.572l1.149-0.042
							v-0.349c0-0.457-0.106-0.784-0.319-0.981c-0.213-0.197-0.513-0.295-0.903-0.295c-0.333,0-0.656,0.048-0.969,0.145
							c-0.313,0.096-0.618,0.213-0.915,0.349l-0.463-0.999c0.329-0.173,0.701-0.313,1.116-0.421
							C547.674,155.029,548.106,154.975,548.555,154.975z M549.705,158.579l-0.854,0.036c-0.706,0.024-1.202,0.143-1.486,0.358
							c-0.285,0.215-0.427,0.51-0.427,0.888c0,0.329,0.098,0.569,0.295,0.719c0.196,0.15,0.455,0.226,0.776,0.226
							c0.49,0,0.895-0.139,1.216-0.418c0.321-0.279,0.481-0.687,0.481-1.225V158.579z"/>
						<path style="fill:#A0B3EA;" d="M556.565,154.975c0.75,0,1.335,0.194,1.754,0.581c0.419,0.387,0.629,1.008,0.629,1.863v4.345
							h-1.414v-4.08c0-0.514-0.106-0.9-0.319-1.158c-0.213-0.259-0.542-0.388-0.987-0.388c-0.646,0-1.094,0.199-1.345,0.596
							c-0.251,0.397-0.376,0.971-0.376,1.721v3.31h-1.42v-6.662h1.107l0.199,0.903h0.078c0.144-0.233,0.324-0.424,0.539-0.575
							c0.215-0.15,0.455-0.264,0.722-0.34S556.276,154.975,556.565,154.975z"/>
						<path style="fill:#A0B3EA;" d="M563.605,161.883c-0.63,0-1.175-0.121-1.637-0.364c-0.461-0.243-0.816-0.618-1.065-1.125
							c-0.249-0.507-0.373-1.15-0.373-1.929c0-0.81,0.136-1.472,0.409-1.986c0.273-0.514,0.65-0.893,1.131-1.137
							c0.481-0.245,1.037-0.367,1.667-0.367c0.397,0,0.757,0.039,1.08,0.117c0.323,0.078,0.597,0.174,0.821,0.286l-0.421,1.131
							c-0.245-0.096-0.495-0.179-0.752-0.25c-0.257-0.07-0.503-0.105-0.74-0.105c-0.389,0-0.713,0.087-0.972,0.262
							c-0.259,0.174-0.451,0.432-0.578,0.773c-0.126,0.341-0.189,0.762-0.189,1.264c0,0.49,0.064,0.902,0.192,1.237
							c0.128,0.335,0.319,0.588,0.572,0.758c0.253,0.17,0.564,0.256,0.933,0.256c0.365,0,0.692-0.044,0.981-0.132
							c0.289-0.088,0.562-0.203,0.818-0.343v1.228c-0.253,0.144-0.523,0.252-0.812,0.322
							C564.382,161.848,564.027,161.883,563.605,161.883z"/>
						<path style="fill:#A0B3EA;" d="M569.695,154.975c0.594,0,1.103,0.122,1.529,0.367c0.425,0.245,0.752,0.592,0.981,1.041
							c0.229,0.449,0.343,0.987,0.343,1.613v0.758h-4.447c0.016,0.646,0.19,1.143,0.521,1.492c0.331,0.349,0.795,0.523,1.393,0.523
							c0.425,0,0.807-0.041,1.146-0.123c0.339-0.082,0.689-0.204,1.05-0.364v1.149c-0.333,0.156-0.672,0.271-1.017,0.343
							c-0.345,0.072-0.758,0.108-1.24,0.108c-0.654,0-1.23-0.126-1.727-0.379c-0.497-0.253-0.885-0.632-1.161-1.137
							c-0.277-0.505-0.415-1.135-0.415-1.89c0-0.746,0.126-1.38,0.379-1.902c0.253-0.521,0.608-0.919,1.065-1.191
							C568.552,155.111,569.086,154.975,569.695,154.975z M569.695,156.04c-0.445,0-0.805,0.144-1.08,0.433
							c-0.275,0.289-0.436,0.712-0.484,1.27h3.027c-0.004-0.333-0.059-0.627-0.166-0.882c-0.106-0.255-0.266-0.455-0.478-0.602
							C570.301,156.113,570.028,156.04,569.695,156.04z"/>
						<path style="fill:#A0B3EA;" d="M578.62,159.861c0,0.437-0.106,0.806-0.319,1.107s-0.523,0.529-0.93,0.683
							c-0.407,0.154-0.906,0.232-1.495,0.232c-0.465,0-0.865-0.033-1.201-0.099c-0.335-0.066-0.653-0.167-0.954-0.304v-1.222
							c0.321,0.148,0.679,0.277,1.074,0.385c0.395,0.108,0.769,0.163,1.122,0.163c0.461,0,0.795-0.073,1.002-0.22
							c0.207-0.146,0.31-0.342,0.31-0.587c0-0.144-0.041-0.274-0.123-0.388c-0.082-0.114-0.235-0.233-0.457-0.355
							c-0.223-0.122-0.551-0.268-0.984-0.436c-0.421-0.169-0.776-0.338-1.065-0.508c-0.289-0.171-0.508-0.374-0.656-0.611
							c-0.148-0.237-0.223-0.542-0.223-0.915c0-0.594,0.235-1.044,0.704-1.351s1.089-0.46,1.859-0.46
							c0.409,0,0.795,0.041,1.158,0.123c0.363,0.082,0.719,0.202,1.068,0.358l-0.445,1.065c-0.301-0.128-0.603-0.236-0.906-0.322
							c-0.303-0.086-0.611-0.129-0.924-0.129c-0.365,0-0.643,0.056-0.833,0.168c-0.19,0.112-0.286,0.271-0.286,0.475
							c0,0.157,0.046,0.289,0.138,0.397c0.092,0.108,0.252,0.217,0.478,0.325c0.227,0.108,0.543,0.243,0.948,0.403
							c0.397,0.152,0.741,0.312,1.032,0.478c0.291,0.167,0.515,0.37,0.671,0.611C578.541,159.169,578.62,159.48,578.62,159.861z"/>
					</g>
					<g>
						<path style="fill:#6D8DCC;" d="M378.869,170.362v-10.873h2.306v8.969h4.41v1.904H378.869z"/>
						<path style="fill:#6D8DCC;" d="M388.083,170.362v-10.873h2.306v10.873H388.083z"/>
						<path style="fill:#6D8DCC;" d="M396.003,170.362h-2.268v-10.873h6.233v1.889h-3.965v2.804h3.689v1.882h-3.689V170.362z"/>
						<path style="fill:#6D8DCC;" d="M408.967,170.362h-6.262v-10.873h6.262v1.889h-3.957v2.388h3.682v1.889h-3.682v2.804h3.957
							V170.362z"/>
						<path style="fill:#6D8DCC;" d="M421.03,161.251c-0.441,0-0.832,0.085-1.171,0.256c-0.34,0.171-0.625,0.418-0.855,0.74
							c-0.231,0.322-0.405,0.712-0.525,1.168c-0.119,0.456-0.179,0.969-0.179,1.539c0,0.768,0.095,1.424,0.287,1.967
							c0.191,0.543,0.487,0.957,0.889,1.242c0.401,0.285,0.92,0.428,1.555,0.428c0.441,0,0.884-0.05,1.327-0.148
							c0.444-0.099,0.927-0.241,1.447-0.424v1.934c-0.482,0.199-0.955,0.341-1.421,0.428c-0.466,0.087-0.989,0.13-1.569,0.13
							c-1.121,0-2.042-0.232-2.763-0.695c-0.722-0.464-1.256-1.113-1.603-1.949c-0.348-0.835-0.522-1.811-0.522-2.927
							c0-0.823,0.112-1.577,0.335-2.261c0.224-0.684,0.551-1.277,0.982-1.777c0.431-0.501,0.965-0.888,1.599-1.16
							c0.635-0.273,1.364-0.409,2.187-0.409c0.54,0,1.082,0.068,1.625,0.205c0.543,0.136,1.062,0.324,1.557,0.562l-0.743,1.874
							c-0.406-0.193-0.815-0.362-1.228-0.505C421.831,161.323,421.426,161.251,421.03,161.251z"/>
						<path style="fill:#6D8DCC;" d="M436.596,164.911c0,0.838-0.104,1.6-0.312,2.287c-0.209,0.687-0.525,1.278-0.949,1.774
							c-0.424,0.495-0.961,0.876-1.61,1.141c-0.65,0.265-1.418,0.398-2.306,0.398c-0.888,0-1.657-0.133-2.306-0.398
							c-0.65-0.265-1.186-0.646-1.611-1.141c-0.423-0.496-0.739-1.089-0.948-1.778c-0.209-0.689-0.313-1.455-0.313-2.298
							c0-1.125,0.186-2.106,0.555-2.942c0.369-0.835,0.938-1.484,1.707-1.945c0.768-0.461,1.745-0.691,2.931-0.691
							c1.18,0,2.15,0.23,2.912,0.691c0.761,0.461,1.326,1.111,1.696,1.949C436.411,162.796,436.596,163.78,436.596,164.911z
							 M428.66,164.911c0,0.758,0.095,1.412,0.286,1.96c0.191,0.548,0.49,0.969,0.897,1.264c0.406,0.295,0.932,0.442,1.577,0.442
							c0.654,0,1.185-0.147,1.592-0.442c0.406-0.295,0.702-0.717,0.889-1.264c0.185-0.548,0.279-1.201,0.279-1.96
							c0-1.14-0.214-2.038-0.64-2.692c-0.426-0.654-1.128-0.982-2.104-0.982c-0.65,0-1.179,0.147-1.589,0.442
							c-0.409,0.295-0.709,0.717-0.9,1.265C428.756,163.491,428.66,164.147,428.66,164.911z"/>
						<path style="fill:#6D8DCC;" d="M446.115,170.362l-0.788-2.588h-3.964l-0.788,2.588h-2.484l3.837-10.918h2.819l3.852,10.918
							H446.115z M444.777,165.84l-0.788-2.529c-0.05-0.168-0.115-0.386-0.198-0.651c-0.081-0.265-0.164-0.536-0.246-0.81
							c-0.081-0.275-0.147-0.515-0.197-0.718c-0.05,0.204-0.118,0.455-0.205,0.755c-0.087,0.3-0.17,0.584-0.249,0.852
							c-0.08,0.268-0.137,0.459-0.172,0.573l-0.781,2.529H444.777z"/>
						<path style="fill:#6D8DCC;" d="M455.195,161.251c-0.441,0-0.833,0.085-1.172,0.256c-0.34,0.171-0.625,0.418-0.855,0.74
							c-0.231,0.322-0.405,0.712-0.525,1.168c-0.119,0.456-0.178,0.969-0.178,1.539c0,0.768,0.095,1.424,0.287,1.967
							c0.191,0.543,0.486,0.957,0.889,1.242c0.401,0.285,0.92,0.428,1.555,0.428c0.441,0,0.884-0.05,1.327-0.148
							c0.444-0.099,0.927-0.241,1.447-0.424v1.934c-0.481,0.199-0.955,0.341-1.421,0.428c-0.466,0.087-0.989,0.13-1.569,0.13
							c-1.121,0-2.042-0.232-2.763-0.695c-0.722-0.464-1.256-1.113-1.603-1.949c-0.348-0.835-0.522-1.811-0.522-2.927
							c0-0.823,0.112-1.577,0.335-2.261c0.224-0.684,0.551-1.277,0.982-1.777c0.431-0.501,0.965-0.888,1.599-1.16
							c0.635-0.273,1.364-0.409,2.187-0.409c0.54,0,1.082,0.068,1.625,0.205s1.062,0.324,1.558,0.562l-0.743,1.874
							c-0.406-0.193-0.815-0.362-1.228-0.505C455.996,161.323,455.591,161.251,455.195,161.251z"/>
						<path style="fill:#6D8DCC;" d="M469.801,170.362h-2.298v-4.693h-4.307v4.693h-2.306v-10.873h2.306v4.262h4.307v-4.262h2.298
							V170.362z"/>
						<path style="fill:#6D8DCC;" d="M473.155,170.362v-10.873h2.306v10.873H473.155z"/>
						<path style="fill:#6D8DCC;" d="M488.454,170.362h-2.931l-4.731-8.226h-0.066c0.019,0.342,0.037,0.687,0.052,1.034
							c0.014,0.347,0.029,0.693,0.044,1.037c0.015,0.344,0.03,0.691,0.045,1.038v5.117h-2.061v-10.873h2.908l4.723,8.144h0.052
							c-0.01-0.337-0.022-0.672-0.037-1.004c-0.015-0.332-0.029-0.664-0.041-0.997c-0.012-0.332-0.024-0.664-0.033-0.996v-5.147
							h2.075V170.362z"/>
						<path style="fill:#6D8DCC;" d="M495.928,164.256h4.314v5.637c-0.57,0.189-1.162,0.338-1.777,0.45
							c-0.615,0.111-1.312,0.167-2.09,0.167c-1.081,0-1.998-0.213-2.752-0.64c-0.753-0.426-1.326-1.056-1.718-1.889
							c-0.391-0.833-0.588-1.857-0.588-3.071c0-1.14,0.22-2.127,0.659-2.96c0.438-0.833,1.08-1.478,1.926-1.934
							c0.845-0.456,1.878-0.684,3.098-0.684c0.575,0,1.142,0.062,1.703,0.186c0.561,0.124,1.069,0.285,1.524,0.483l-0.765,1.844
							c-0.333-0.168-0.712-0.31-1.138-0.424c-0.426-0.114-0.872-0.171-1.339-0.171c-0.669,0-1.251,0.153-1.744,0.461
							c-0.493,0.307-0.875,0.738-1.145,1.29c-0.27,0.553-0.405,1.204-0.405,1.953c0,0.709,0.096,1.338,0.29,1.885
							c0.194,0.548,0.499,0.977,0.915,1.287c0.417,0.31,0.96,0.465,1.629,0.465c0.328,0,0.604-0.016,0.829-0.048
							c0.226-0.032,0.438-0.066,0.636-0.1v-2.269h-2.06V164.256z"/>
					</g>
				</g>
			</g>
		</g>
		<g>
			<g>
				<path style="fill:#FFAB86;" d="M224.833,131.158c-4.96-4.143-9.189-10.242-10.02-16.83c-1.075-8.523,4.225-16.343,12.258-18.866
					c10.481-3.291,23.085,3.058,23.833,14.702c0.229,3.569,0.716,7.19,1.226,10.739c0.824,5.74-0.737,12.811-6.571,15.315
					C238.669,139.176,230.863,136.195,224.833,131.158z"/>
				<path d="M239.038,116.491c-0.018,0.975-0.588,1.76-1.273,1.752c-0.685-0.008-1.226-0.805-1.208-1.78
					c0.018-0.975,0.588-1.76,1.273-1.752C238.515,114.719,239.056,115.516,239.038,116.491z"/>
				<path d="M250.348,117.404c-0.018,0.975-0.588,1.76-1.273,1.752c-0.685-0.008-1.225-0.805-1.207-1.78
					c0.018-0.975,0.588-1.76,1.273-1.752C249.826,115.632,250.367,116.428,250.348,117.404z"/>
				<path style="fill:none;stroke:#000000;stroke-linejoin:round;stroke-miterlimit:10;" d="M233.025,112.89
					c2.05-1.525,4.8-2.037,7.237-1.346"/>
				<path style="fill:none;stroke:#000000;stroke-linejoin:round;stroke-miterlimit:10;" d="M246.705,112.087
					c1.786-0.17,3.73-0.12,5.161,0.96"/>
				<path style="fill:#FFAB86;" d="M219.058,120.248l-5.845,15.711c0,0,5.648,4.993,15.647,8.107
					c8.08,2.516,12.098,0.546,12.098,0.546l3.091-10.424"/>
				<path style="fill:none;stroke:#000000;stroke-linejoin:round;stroke-miterlimit:10;" d="M244.082,112.543
					c0.261,2.161,0.777,4.349,1.54,6.53c0.303,0.867,0.642,1.814,0.198,2.514c-0.346,0.546-1.126,0.834-1.962,0.909
					c-0.836,0.075-1.735-0.036-2.621-0.146"/>
				<path style="fill:#FFFFFF;" d="M238.494,125.348c-0.226,4.26,6.393,8.524,7.154,0.785L238.494,125.348z"/>
				<path style="fill:none;stroke:#000000;stroke-linejoin:round;stroke-miterlimit:10;" d="M229.812,134.032
					c4.343,2.701,8.677,3.36,13.206,3.633"/>
				<g>
					<path style="fill:#643021;" d="M257.929,101.272c-0.047-0.331-0.101-0.66-0.158-0.986c-0.505-2.863-1.511-5.983-4.063-7.378
						c-2.187-1.196-4.991-0.804-7.146-2.056c-1.162-0.675-2.015-1.762-3.002-2.675c-3.476-3.214-8.894-4.132-13.234-2.242
						c-1.65,0.718-3.126,1.792-4.779,2.503c-4.48,1.928-10.063,1.131-13.9,4.143c-1.478,1.16-2.532,2.788-3.288,4.507
						c-1.962,4.464-2.02,9.601-0.902,14.348c0.829,3.495,2.327,6.77,4.017,9.923c0.829,1.546,1.644,3.137,2.584,4.618
						c0.545,0.859,0.996,2.472,1.804,3.017c0.78,0.526,1.844,0.223,2.671-0.226c2.102-1.143,3.677-3.104,4.696-5.269
						c1.019-2.165,1.522-4.535,1.869-6.902c0.352-2.404,0.551-4.828,0.826-7.242c0.027-0.233,0.059-0.479,0.202-0.666
						c0.118-0.154,0.298-0.247,0.471-0.335c1.799-0.913,3.45-1.804,5.368-2.423c1.297-0.418,2.43-1.257,3.835-1.058
						c1.874,0.265,3.37,1.914,5.259,2.028c1.081,0.065,2.143-0.39,3.224-0.323c2.853,0.175,4.399,3.69,7.151,4.466
						c2.406,0.678,4.977-1.092,5.98-3.381C258.284,105.678,258.239,103.437,257.929,101.272z"/>
					<path style="fill:none;stroke:#422019;stroke-miterlimit:10;" d="M225.585,108.257c0.427-2.39-0.744-4.799-2.281-6.679
						c-1.537-1.88-3.457-3.425-4.946-5.343"/>
					<path style="fill:none;stroke:#422019;stroke-miterlimit:10;" d="M227.565,98.375c2.709,0.994,5.99-0.407,8.504,1.01
						c1.148,0.647,1.99,1.824,3.248,2.218c1.886,0.591,3.811-0.795,5.785-0.89c2.517-0.122,4.605,1.814,6.368,3.614"/>
					<path style="fill:none;stroke:#422019;stroke-miterlimit:10;" d="M239.663,93.726c0.97,0.29,1.616,1.19,2.47,1.734
						c1.212,0.773,2.755,0.779,4.18,0.592c1.425-0.187,2.851-0.54,4.281-0.394c1.43,0.146,2.917,0.94,3.352,2.309"/>
					<path style="fill:none;stroke:#422019;stroke-miterlimit:10;" d="M235.483,91.816c-2.521-1.069-5.513-0.96-7.95,0.288"/>
					<path style="fill:none;stroke:#422019;stroke-miterlimit:10;" d="M218.117,108.204c0.224,1.619-0.885,3.073-1.664,4.509
						c-1.606,2.961-1.912,6.599-0.823,9.787"/>
					<path style="fill:none;stroke:#422019;stroke-miterlimit:10;" d="M214.066,105.437c-1.668,2.384-2.097,5.588-1.113,8.326"/>
				</g>
				<g>
					<path style="fill:#FFAB86;" d="M225.568,115.202c-2.822-0.265-4.952,2.849-5.101,5.074c-0.093,1.392,0.446,2.838,1.145,4.05
						c0.86,1.491,1.887,2.249,3.682,2.724c0.515,0.136,1.045,0.271,1.582,0.235c3.061-0.205,2.392-5.163,2.366-6.946
						c-0.015-1.024-0.1-2.067-0.527-3.011C228.123,116.018,227.081,115.345,225.568,115.202z"/>
					<path style="fill:none;stroke:#000000;stroke-linejoin:round;stroke-miterlimit:10;" d="M223.964,118.848
						c1.785,1.422,2.56,2.702,4.094,4.347"/>
					<path style="fill:none;stroke:#000000;stroke-linejoin:round;stroke-miterlimit:10;" d="M224.719,115.128
						c1.12-0.177,2.298,0.198,3.114,0.903c0.816,0.704,1.279,1.708,1.371,2.731"/>
					<path style="fill:none;stroke:#000000;stroke-linejoin:round;stroke-miterlimit:10;" d="M222.223,125.286
						c0.373,0.494,0.842,0.927,1.379,1.275c0.769,0.499,1.699,0.823,2.651,0.808c0.955-0.015,1.902-0.381,2.58-0.997"/>
				</g>
			</g>
			<g>
				<g>
					<path style="fill:#FFAB86;" d="M293.046,423.141l2.919,15.033c5.353,4.449,11.39,7.539,16.055,10.039
						c-1.858,0.45-55.253,1.073-55.234,0.743c0.149-2.682,1.095-6.913,1.031-10.434c-0.031-1.676-1.542-12.986-1.542-12.986"/>
					<path style="fill:#60453E;" d="M257.647,441.838c0,0,19.921,2.226,32.484,1.045c5.689-0.535,6.633-5.042,8.615-3.307
						c6.358,5.564,16.77,9.648,19.401,11.682c2.631,2.035,3.987,7.133,2.99,7.133c-3.143,0-36.507,0-38.304,0
						c-2.435-1.065-5.354-3.038-5.354-3.038h-5.833l0.112,3.038c-8.877,0-16.111,0-16.111,0S256.897,448.363,257.647,441.838z"/>
					<line style="fill:none;stroke:#84665A;stroke-miterlimit:10;" x1="255.854" y1="455.353" x2="320.525" y2="454.705"/>
				</g>
				<g>
					<path style="fill:#FFAB86;" d="M237.717,423.141l-1.488,15.033c5.353,4.449,11.39,7.539,16.055,10.039
						c-1.858,0.45-55.253,1.073-55.234,0.743c0.149-2.682,1.095-6.913,1.031-10.434c-0.031-1.676,0.236-12.986,0.236-12.986"/>
					<path style="fill:#72544A;" d="M197.911,441.838c0,0,19.921,2.226,32.484,1.045c5.689-0.535,6.633-5.042,8.614-3.307
						c6.358,5.564,16.77,9.648,19.401,11.682c2.631,2.035,3.987,7.133,2.99,7.133c-3.143,0-36.507,0-38.304,0
						c-2.435-1.065-5.354-3.038-5.354-3.038h-5.833l0.112,3.038c-8.877,0-16.111,0-16.111,0S197.161,448.363,197.911,441.838z"/>
					<line style="fill:none;stroke:#84665A;stroke-miterlimit:10;" x1="196.118" y1="455.353" x2="260.789" y2="454.705"/>
				</g>
				<path style="fill:#E0A47C;" d="M200.372,228.87c-0.669,1.564-7.128,15.552-7.128,15.552s-4.26,22.366-3.188,30.575
					c1.072,8.209,2.18,14.854,2.18,14.854s8.091,51.208,8.137,65.672c0.046,14.463-3.489,81.308-3.489,81.308h42.972
					c0,0,2.3-64.72,2.702-74.102c0.402-9.382,0.772-25.409-1.021-38.309c-1.793-12.9-7.039-52.16-6.917-53.333
					c0.122-1.173-0.889-44.563-0.889-44.563"/>
				<path style="fill:#E0A47C;" d="M262.696,228.775l2.746,17.196c0,0,13.735,61.109,17.567,73.227
					c3.832,12.118,7.593,32.205,8.665,50.969c1.072,18.763,4.935,66.663,4.935,66.663h-39.242l-8.361-88.029
					c0,0-25.112-69.454-26.681-76.881c-1.569-7.427-4.808-15.55-0.869-34.842"/>
				<path style="fill:none;stroke:#A87451;stroke-miterlimit:10;" d="M237.7,263.034c1.239,0.375,2.506,0.586,3.777,0.631
					c0.227,0.008,0.465,0.008,0.667-0.129c0.201-0.136,0.34-0.39,0.46-0.644c0.526-1.114,0.825-2.385,1.109-3.643
					c1.033-4.575,1.194-6.62,1.988-11.278"/>
				<path style="fill:none;stroke:#000000;stroke-miterlimit:10;" d="M242.543,330.812c-0.406-1.135-4.766-63.33-4.841-64.966
					c-0.075-1.636,1.639-17.881,1.639-17.881"/>
				<path style="fill:none;stroke:#000000;stroke-miterlimit:10;" d="M248.807,349.303c1.691,3.533,3.383,7.065,5.074,10.597"/>
				<path style="fill:none;stroke:#A87451;stroke-miterlimit:10;" d="M203.217,247.443c-6.481,16.224-2.959,36.184-0.882,50.995
					c2.536,18.093,5.171,44.239,6.092,56.163c1.268,16.425-3.486,82.229-3.486,82.229"/>
				<path style="fill:none;stroke:#A87451;stroke-miterlimit:10;" d="M199.446,264.793c9.232-1.516,20.134-1.125,25.517-16.828"/>
				<path style="fill:none;stroke:#A87451;stroke-miterlimit:10;" d="M252.37,248.369c3.905,5.979,9.254,9.984,16,11.162"/>
				<path style="fill:none;stroke:#000000;stroke-miterlimit:10;" d="M276.47,367.159c1.821-5.561,3.641-11.121,5.462-16.682"/>
				<path style="fill:none;stroke:#000000;stroke-miterlimit:10;" d="M224.963,377.479c2.969-5.47,5.715-11.077,8.227-16.801"/>
				<path style="fill:none;stroke:#000000;stroke-miterlimit:10;" d="M220.536,368.011c1.835-2.185,3.67-4.37,5.505-6.555"/>
				<line style="fill:none;stroke:#A87451;stroke-miterlimit:10;" x1="192.915" y1="247.443" x2="260.534" y2="248.496"/>
				<line style="fill:none;stroke:#A87451;stroke-miterlimit:10;" x1="243.52" y1="248.328" x2="243.52" y2="241.079"/>
			</g>
			<g>
				<g>
					<path style="fill:#FFAB86;" d="M160.917,160.763c-1.148-2.578-1.295-5.476-2.01-8.205c-0.834-3.182-2.43-6.1-3.835-9.075
						c-1.405-2.974-2.648-6.124-2.695-9.413c-0.007-0.483-0.077-1.096-0.541-1.232c-0.141-0.041-0.293-0.024-0.437,0.007
						c-1.178,0.252-2.011,1.377-2.286,2.55c-0.275,1.173-0.1,2.4,0.076,3.592c-3.364-3.314-6.345-7.017-8.863-11.011
						c-0.594-0.942-4.676-6.546-6.027-4.084c-0.082,0.149-0.102,0.319-0.111,0.481c-0.053,0.979,0.572,2.053,0.881,2.929
						c0.498,1.409,2.434,4.924,2.434,4.924s-3.803-3.751-6.693-6.882c-0.522-0.566-3.232-2.233-4.288-1.242
						c-0.569,0.533-0.183,1.545-0.183,1.545s0.409,0.1-0.391-0.202c-1.119-0.422-2.159-0.202-2.498-0.051
						c-1.811,0.811-0.299,2.859,0.349,3.777c2.526,3.581,6.612,9.474,6.612,9.474s-4.606-5.24-7.209-5.378
						c-0.748-0.04-1.398,0.453-1.245,1.317c0.066,0.371,0.272,0.679,0.473,0.976c3.258,4.804,4.528,7.729,7.209,13.015
						c4.048,7.981,13.54,22.112,13.54,22.112"/>
					
						<line style="fill:none;stroke:#000000;stroke-linejoin:round;stroke-miterlimit:10;" x1="137.14" y1="131.601" x2="141.51" y2="136.9"/>
					<path style="fill:none;stroke:#000000;stroke-linejoin:round;stroke-miterlimit:10;" d="M126.937,125.941
						c3.13,3.695,9.447,12.631,9.447,12.631"/>
					<path style="fill:none;stroke:#000000;stroke-linejoin:round;stroke-miterlimit:10;" d="M128.01,136.009
						c3.006,3.346,5.663,7.108,8.829,10.282c3.253,3.261,7.572,5.942,9.223,10.456"/>
					<path style="fill:none;stroke:#000000;stroke-linejoin:round;stroke-miterlimit:10;" d="M149.293,138.571
						c0.967,1.563,2.554,3.647,3.844,5.05"/>
				</g>
				<g>
					<path style="fill:#FFAB86;" d="M321.712,181.277c2.663-2.545,3.759-2.494,6.681-4.626c4.694-3.426,6.417-9.66,14.014-14.375
						c0.48-0.298,0.993-0.755,0.968-1.349c-0.023-0.545-0.519-0.918-0.987-1.131c-2.628-1.197-7.728,0.978-7.728,0.978
						s6.011-7.122,7.77-8.164c1.759-1.042,4.95-2.707,7.374-4.556c1.549-1.182,1.547-2.29,1.388-2.745
						c-0.365-1.046-5.059-0.159-7.454,0.235c-1.736,0.286-5.302,2.076-5.302,2.076c-1.589-0.783-3.556-0.599-4.995,0.467
						c-0.82-1.046-2.309-1.411-3.471-0.851c-0.344,0.166-0.657,0.401-1.011,0.541c-1.152,0.454-2.421-0.194-3.647-0.123
						c-1.588,0.092-2.876,1.353-4.017,2.542c-6.171,6.43-12.343,12.859-18.514,19.289"/>
					<path style="fill:none;stroke:#000000;stroke-linejoin:round;stroke-miterlimit:10;" d="M331.942,162.376
						c1.35-0.866,2.828-1.503,4.362-1.88"/>
					<path style="fill:none;stroke:#000000;stroke-linejoin:round;stroke-miterlimit:10;" d="M338.362,147.633
						c-0.612,0.146-1.068,0.467-1.585,0.835c-1.487,1.056-4.162,3.573-5.521,4.812"/>
					<path style="fill:none;stroke:#000000;stroke-linejoin:round;stroke-miterlimit:10;" d="M333.344,148.087
						c-2.104,1.255-4.184,2.557-6.238,3.903"/>
					<path style="fill:none;stroke:#000000;stroke-linejoin:round;stroke-miterlimit:10;" d="M328.392,147.867
						c-2.081,0.611-3.646,2.506-5.685,3.265"/>
				</g>
				<polyline style="fill:#FFFFFF;" points="301.161,167.137 308.723,160.551 325.555,181.042 310.479,194.971 				"/>
				<polyline style="fill:#FFFFFF;" points="141.547,179.374 135.85,169.207 159.537,152.702 170.302,170.176 				"/>
				<path style="fill:#FFFFFF;" d="M190.369,147.232l19.696-9.262c0,0,15.97,6.193,23.541,6.512c7.57,0.319,9.689-0.743,9.689-0.743
					l13.457,5.946l8.691,92.49c0,0-74.013-1.026-74.013-2.053C191.429,239.095,190.369,147.232,190.369,147.232z"/>
				<path style="fill:#FFFFFF;" d="M213.957,132.737l-3.886,7.219l17.501,15.165l7.738-9.083l9.006,7.283l0.545-8.503l-2.533-3.821
					c0,0-1.995,2.755-7.255,2.608C226.915,143.377,213.957,132.737,213.957,132.737z"/>
				<polyline style="fill:none;stroke:#A87451;stroke-miterlimit:10;" points="244.86,144.818 244.315,153.32 235.309,146.038 
					227.572,155.12 210.071,139.956 				"/>
				<path style="fill:#72544A;" d="M206.403,139.956c0,0-18.317,4.165-23.262,7.582c-4.946,3.417-13.729,19.762-13.729,19.762
					l-7.344-11.016l-26.217,18.332c0,0,16.11,27.47,20.498,33.722c3.781,5.388,19.696,18.261,30.662-0.877
					c6.234-10.88,14.333-26.175,14.333-26.175"/>
				<path style="fill:#72544A;" d="M220.035,183.593c-1.06-19.894-9.303-45.624-9.303-45.624l-17.579,6.411
					c0,0-4.371,76.348-4.897,82.799c-0.526,6.451-1.981,38.475-1.981,38.475s27.305-1.204,31.727-7.267
					C219.208,256.735,220.621,194.585,220.035,183.593z"/>
				<path style="fill:#72544A;" d="M246.332,144.696c0.264,0.575,4.636,29.728,5.16,37.975c0.524,8.247,3.523,71.395,5.966,74.8
					c2.443,3.405,16.012,6.637,16.012,6.637s-6.098-62.833-6.549-79.903s-8.301-33.17-8.301-33.17L246.332,144.696z"/>
				<path style="fill:#72544A;" d="M246.332,144.696c0,0,9.314,1.307,12.288,3.644c8.631,6.78,28.788,28.577,28.788,28.577
					l18.769-14.168l17.864,21.648c0,0-24.166,23.399-32.754,26.704c-5.828,2.243-14.171-0.186-21.907-8.292
					c-7.48-7.839-16.648-17.645-16.648-17.645"/>
				
					<line style="fill:none;stroke:#000000;stroke-linejoin:round;stroke-miterlimit:10;" x1="287.409" y1="176.918" x2="276.637" y2="185.637"/>
				<path style="fill:none;stroke:#000000;stroke-linejoin:round;stroke-miterlimit:10;" d="M169.411,167.3
					c1.684,2.776,3.373,5.549,5.067,8.319c3.648,5.968,7.189,11.763,9.084,18.568"/>
				<line style="fill:none;stroke:#A87451;stroke-miterlimit:10;" x1="235.309" y1="145.779" x2="240.601" y2="241.769"/>
				<path style="fill:none;stroke:#A87451;stroke-miterlimit:10;" d="M240.721,153.344c-0.013,0.567-0.483,1.016-1.05,1.003
					c-0.567-0.013-1.016-0.483-1.003-1.05c0.013-0.567,0.483-1.016,1.05-1.003C240.285,152.307,240.734,152.777,240.721,153.344z"/>
				<path style="fill:none;stroke:#A87451;stroke-miterlimit:10;" d="M242.203,178.813c-0.013,0.567-0.483,1.016-1.05,1.003
					c-0.567-0.013-1.016-0.483-1.003-1.05c0.013-0.567,0.483-1.016,1.05-1.003C241.767,177.776,242.216,178.247,242.203,178.813z"/>
				<path style="fill:none;stroke:#A87451;stroke-miterlimit:10;" d="M243.331,201.996c-0.013,0.567-0.483,1.016-1.05,1.003
					c-0.567-0.013-1.016-0.483-1.003-1.05c0.013-0.567,0.483-1.016,1.05-1.003C242.895,200.959,243.344,201.429,243.331,201.996z"/>
				<path style="fill:none;stroke:#A87451;stroke-miterlimit:10;" d="M245.342,230.222c-0.013,0.567-0.483,1.016-1.05,1.003
					c-0.567-0.013-1.016-0.483-1.003-1.05c0.013-0.567,0.483-1.016,1.05-1.003C244.906,229.185,245.355,229.655,245.342,230.222z"/>
				<path style="fill:none;stroke:#000000;stroke-linejoin:round;stroke-miterlimit:10;" d="M267.887,200.587
					c-0.129-0.564-2.445-29.899-2.445-29.899"/>
				<path style="fill:none;stroke:#000000;stroke-linejoin:round;stroke-miterlimit:10;" d="M190.081,201.973
					c4.856-6.964,9.163-14.183,12.888-21.598"/>
				<path style="fill:none;stroke:#513831;stroke-miterlimit:10;" d="M196.719,142.99c1.815,4.373,5.907,12.092,8.062,16.374
					c-2.687,0.756-5.374,1.512-8.062,2.268c7.501,8.703,21.05,25.367,23.454,35.029"/>
				<line style="fill:none;stroke:#513831;stroke-miterlimit:10;" x1="204.78" y1="159.365" x2="216.029" y2="158.196"/>
				<path style="fill:none;stroke:#513831;stroke-miterlimit:10;" d="M254.368,146.038c0,0,1.303,8.599,0.736,12.743
					c1.779,0.367,4.797,2.325,4.797,2.325s-7.026,25.715-6.798,34.773"/>
				<line style="fill:none;stroke:#513831;stroke-miterlimit:10;" x1="255.105" y1="158.78" x2="248.195" y2="157.154"/>
				<line style="fill:none;stroke:#513831;stroke-miterlimit:10;" x1="140.067" y1="171.668" x2="146.063" y2="181.277"/>
				<line style="fill:none;stroke:#513831;stroke-miterlimit:10;" x1="320.53" y1="180.143" x2="311.162" y2="188.089"/>
				<g>
					
						<rect x="193.29" y="230.557" transform="matrix(0.9922 -0.125 0.125 0.9922 -27.3386 27.2667)" style="fill:#513831;" width="20.651" height="1.869"/>
				</g>
				<g>
					
						<rect x="264.183" y="224.884" transform="matrix(0.1911 -0.9816 0.9816 0.1911 -11.4955 446.4481)" style="fill:#513831;" width="1.868" height="10.628"/>
				</g>
			</g>
			<g>
				
					<line style="fill:none;stroke:#000000;stroke-linejoin:round;stroke-miterlimit:10;" x1="258.132" y1="124.311" x2="275.57" y2="117.264"/>
				
					<line style="fill:none;stroke:#000000;stroke-linejoin:round;stroke-miterlimit:10;" x1="260.205" y1="131.391" x2="277.794" y2="129.273"/>
				
					<line style="fill:none;stroke:#000000;stroke-linejoin:round;stroke-miterlimit:10;" x1="259.112" y1="140.043" x2="276.637" y2="145.345"/>
			</g>
		</g>
		<g>
			<path style="fill:none;stroke:#000000;stroke-miterlimit:10;" d="M158.156,250.094c-0.289-1.308-2.167-1.665-3.29-0.935
				c-1.123,0.73-1.642,2.084-2.057,3.358c-3.845,11.797-4.779,24.319-6.719,36.51c-2.178,13.688-7.469,63.461-7.469,63.461"/>
			<path style="fill:#628E6A;" d="M166.555,244.901c-0.087,0.02-0.175,0.041-0.262,0.063c-2.842,0.719-5.401,2.393-7.371,4.564
				c-0.228,0.251-0.462,0.518-0.78,0.635c-0.224,0.082-0.469,0.081-0.707,0.08c-4.467-0.019-9.146,0.299-12.968,2.612
				c-1.283,0.776-2.45,1.778-3.266,3.035c-1.072,1.651-1.487,3.736-1.035,5.652c1.226,5.191,7.277,5.811,11.719,5.656
				c7.448-0.259,14.13-0.385,21.615,0.206c7.605,0.6,15.574,1.193,22.795,3.539c-1.434-6.993-5.719-12.963-11.004-17.615
				C180.429,249.048,173.435,243.318,166.555,244.901z"/>
			<path style="fill:none;stroke:#000000;stroke-miterlimit:10;" d="M120.249,247.468c-1.333-9.694-1.011-19.402,2.85-27.277"/>
			<path style="fill:none;stroke:#000000;stroke-miterlimit:10;" d="M99.251,308.19c10.239,20.133,15.936,42.56,16.546,65.138"/>
			<path style="fill:none;stroke:#000000;stroke-miterlimit:10;" d="M140.595,280.414c-4.897,9.107-5.4,20.798-6.48,30.943
				c-2.271,21.339-1.919,42.962-1.679,64.392"/>
			<path style="fill:none;stroke:#000000;stroke-miterlimit:10;" d="M105.025,226.286c6.36,2.145,10.964,7.924,13.328,14.206
				s2.81,13.097,3.192,19.798c1.481,25.962,2.371,51.958,2.669,77.961c0.128,11.126-0.231,21.456-0.231,32.582"/>
			<path style="fill:none;stroke:#000000;stroke-miterlimit:10;" d="M96.816,264.717c4.666,4.127,7.455,9.796,9.647,15.478
				c2.672,6.926,4.619,14.081,6.452,21.248c6.412,25.077,11.481,50.586,12.381,76.375"/>
			<g>
				<polygon style="fill:#FFF8DC;" points="84.935,361.08 100.994,458.391 159.251,458.391 175.311,361.08 				"/>
			</g>
			<g>
				<defs>
					<polygon id="SVGID_1_" points="84.935,361.08 100.994,458.391 159.251,458.391 175.311,361.08 					"/>
				</defs>
				<clipPath id="SVGID_00000013902945846597903600000002301750222017898894_">
					<use xlink:href="#SVGID_1_"  style="overflow:visible;"/>
				</clipPath>
				<g style="clip-path:url(#SVGID_00000013902945846597903600000002301750222017898894_);">
					<path style="fill:none;stroke:#FFD18D;stroke-width:1.5;stroke-miterlimit:10;" d="M77.266,367.165
						c6.067,0.677,11.601,4.804,13.899,10.366c1.146,2.774,1.517,5.789,2.271,8.69c2.021,7.777,6.934,14.794,13.6,19.426
						c4.958,3.444,10.979,5.743,14.562,10.561c2.317,3.116,3.777,7.88,2.717,11.719c-1.389,5.034-8.101,3.489-11.89,5.101
						c-4.134,1.759-7.621,4.743-10.834,7.784c-4.505,4.265-8.922,8.939-14.733,11.211"/>
					<path style="fill:none;stroke:#FFD18D;stroke-width:1.5;stroke-miterlimit:10;" d="M89.519,354.597
						c4.077,4.78,8.153,9.56,12.23,14.34c2.707,3.174,5.464,6.393,8.965,8.697c3.501,2.304,7.912,3.609,11.983,2.545
						c6.596-1.725,10.597-9.005,17.259-10.462c3.352-0.733,6.875,0.151,10.268-0.364c3.283-0.498,6.223-2.271,8.851-4.269
						c2.344-1.782,4.579-3.847,5.819-6.493c1.24-2.646,1.307-5.983-0.48-8.307"/>
					<path style="fill:none;stroke:#FFD18D;stroke-width:1.5;stroke-miterlimit:10;" d="M184.687,376.04
						c-3.816,2.753-8.832,5.631-13.62,5.815c-5.595,0.215-11.112,0.869-16.642,1.942c-1.932,0.375-3.919,0.819-5.507,1.965
						c-2.738,1.977-3.687,5.653-3.414,8.982c0.273,3.329,1.547,6.487,2.427,9.713c0.88,3.226,1.349,6.752,0.048,9.838
						c-0.862,2.046-2.426,3.716-3.959,5.339c-2.764,2.926-5.529,5.853-8.293,8.78c-2.077,2.199-4.178,4.431-5.604,7.085
						c-1.425,2.654-2.119,5.823-1.213,8.689c1.469,4.642,6.732,7.228,11.67,7.458c4.939,0.23,9.752-1.335,14.582-2.376
						c8.441-1.82,17.425-2.024,25.581,0.786"/>
				</g>
			</g>
			<path style="fill:#628E6A;" d="M124.462,306.962c-1.066-6.087-3.729-8.467-9.785-9.697c-3.021-0.613-10.701-0.249-15.127,1.525
				c-3.066-3.477-6.529-5.497-10.384-5.165c-5.176,0.446-9.879,2.586-13.526,6.286c-14.904,15.121-24.619,46.046-23.298,58.901
				c11.248-2.968,39.463-20.15,55.683-28.968c4.257-2.314,8.519-4.818,11.753-8.426
				C123.011,317.812,125.297,311.734,124.462,306.962z"/>
			<path style="fill:#628E6A;" d="M166.283,352.207c-2.798-4.726-6.41-9.193-11.31-11.561c-2.979-1.439-6.944-1.859-9.257,0.546
				c-0.95,0.988-1.464,2.292-2.005,3.578c-4.927-3.081-10.934-6.737-17.942-5.698c-9.403,1.394-11.285,9.667-8.213,16.412
				c1.908,4.191,5.219,7.539,8.666,10.542c15.188,13.234,34.024,21.435,49.807,33.929
				C176.944,383.466,174.647,366.333,166.283,352.207z"/>
			<path style="fill:#628E6A;" d="M142.517,221.374c-1.234-3.251-3.009-6.437-5.83-8.47c-1.715-1.236-4.165-1.955-5.89-0.733
				c-0.709,0.502-1.178,1.251-1.663,1.985c-2.758-2.479-6.132-5.438-10.661-5.605c-6.077-0.224-8.187,4.683-7.006,9.217
				c0.733,2.817,2.444,5.274,4.279,7.533c8.085,9.955,19.03,17.214,27.572,26.78C145.737,241.971,146.205,231.092,142.517,221.374z"
				/>
			<path style="fill:#9AB79C;" d="M118.489,280.374c0.605,3.632,2.563,6.89,4.711,9.88c9.557,13.303,33.702,32.261,36.73,32.261
				c3.028,0,0.918-10.635,1.377-15.953c0.509-5.893,1.016-11.844,0.223-17.705c-0.755-5.57-2.799-11.358-6.825-15.425
				c-4.225-4.268-14.57,2.171-14.57,2.171S116.146,266.298,118.489,280.374z"/>
			<path style="fill:#9AB79C;" d="M103.331,236.618c-1.89,0.443-3.781,0.315-5.563,0.068c-7.931-1.1-16.76-6.375-18.366-7.693
				c2.142-1.494,5.168-2.295,7.753-3.443c2.864-1.272,5.757-2.553,8.783-3.336c2.876-0.744,5.42-1.702,8.613-0.304
				c2.578,1.129,0.914,5.803,0.914,5.803S110.659,234.9,103.331,236.618z"/>
			<path style="fill:#9AB79C;" d="M119.219,260.055c-0.315-3.454-2.706-7.033-6.094-8.389c-4.489-1.797-8.302,1.182-12.018,3.374
				c-0.683,0.403-6.113,4.602-5.935,4.667c-1.585-0.575-3.202-1.038-4.871-1.281c-3.884-0.566-8.156,0.18-11.006,2.88
				c-2.938,2.783-3.858,7.05-4.34,11.068c-1.459,12.162-0.216,24.641,3.613,36.276c5.769-6.946,12.963-12.535,19.813-18.418
				c5.798-4.979,11.425-10.248,15.899-16.444C117.19,269.755,119.669,265.008,119.219,260.055z"/>
			<path style="fill:none;stroke:#000000;stroke-miterlimit:10;" d="M90.25,265.845c2.749,0.311,5.585-1.561,6.381-4.21"/>
			<path style="fill:none;stroke:#000000;stroke-miterlimit:10;" d="M137.94,278.978c0.785,0.656,1.637,1.341,2.656,1.436
				c1.018,0.095,2.177-0.716,2.028-1.728"/>
			<path style="fill:none;stroke:#000000;stroke-miterlimit:10;" d="M142.568,347.319c0.971,0.373,1.991,0.752,3.022,0.62
				c1.031-0.132,2.059-0.958,2.051-2.015"/>
			<path style="fill:none;stroke:#000000;stroke-miterlimit:10;" d="M95.386,304.481c2.002,1.046,4.722,0.418,6.063-1.398"/>
			<path style="fill:none;stroke:#000000;stroke-miterlimit:10;" d="M102.543,225.42c-0.246,1.39-0.105,2.847,0.404,4.164"/>
			<path style="fill:none;stroke:#000000;stroke-miterlimit:10;" d="M125.539,216.356c0.969,1.862,3.525,2.694,5.405,1.76"/>
			<path style="fill:none;stroke:#000000;stroke-miterlimit:10;" d="M157.266,253.331c1.349,0.618,3.158-0.405,3.323-1.88"/>
		</g>
		<g>
			<g>
				<g>
					<g>
						<g>
							<path style="fill:#EFA084;" d="M564.179,244.54c0,0-8.069-10.75-13.489-15.386c-3.368-2.881-6.389-4.825-10.279-7.014
								c-1.874-1.055-3.802-2.293-5.806-3.126c-0.955-0.397-1.28-0.728-1.854,0.35c-0.392,0.736-0.117,1.813,0.234,2.493
								c1.421,2.749,6.939,6.135,6.939,6.135c-1.204,0.61-3.483,2.16-4.129,3.059c-0.622,0.864-0.696,2.217-0.385,3.22
								c-1.028,0.348-1.818,1.02-2.072,2.02c-0.125,0.495-0.156,1.002-0.034,1.5c0.043,0.174,0.411,1.236,0.675,1.198
								c-0.936,0.134-1.598,1.022-1.699,1.894c-0.101,0.873,0.233,1.725,0.607,2.52c1.089,2.313,3.155,3.793,5.262,4.233
								c0.589,0.123,1.242,0.098,1.779-0.177c0.538-0.275,0.918-0.877,0.752-1.415c2.272,3.301,3.741,8.07,7.376,10.067
								c1.781,0.978,5.127,1.205,6.161,2.869"/>
							<path style="fill:none;stroke:#000000;stroke-linejoin:round;stroke-miterlimit:10;" d="M535.41,234.271
								c0,0,1.743,4.249,2.982,5.3c1.238,1.051,3.501,1.454,4.876,0.767c1.375-0.687,1.557-3.648,1.557-3.648
								s-2.413-1.111-2.479-1.264c-0.066-0.153-1.949-4.026-1.949-4.026"/>
							<path style="fill:none;stroke:#000000;stroke-linejoin:round;stroke-miterlimit:10;" d="M539.631,228.097
								c1.723,0.858,3.221,2.12,4.322,3.644"/>
							<path style="fill:none;stroke:#000000;stroke-linejoin:round;stroke-miterlimit:10;" d="M533.776,238.852
								c1.034,1.857,4.915,8.848,7.667,5.323c0.784-1.005,1.188-2.404,1.401-3.618"/>
							<path style="fill:#EFA084;stroke:#000000;stroke-miterlimit:10;" d="M553.781,234.157c-1.78-1.606-4.327-2.385-6.884-2.598
								c-2.557-0.212-5.158,0.094-7.734,0.4c-0.198,0.023-0.407,0.052-0.565,0.168c-0.182,0.134-0.251,0.355-0.273,0.561
								c-0.16,1.543,1.653,2.52,3.271,2.943c1.17,0.306,2.377,0.517,3.599,0.629c0.387,0.036,0.795,0.067,1.108,0.266
								c0.246,0.157,0.404,0.4,0.547,0.64c1.055,1.772,1.671,3.741,2.529,5.603c0.859,1.863,2.024,3.683,3.872,4.797"/>
						</g>
						<path style="fill:#EFA084;" d="M561.281,240.813l25.714,27.074l4.896-1.657l14.962,24.439c0,0-10.161,14.895-21.24,10.598
							c-9.733-3.776-36.586-46.288-36.586-46.288"/>
						<path style="fill:#F4B467;" d="M591.594,259.447l-4.614,4.12l-23.275-21.659l-15.581,18.345c0,0,24.55,42.508,40.609,43.834
							s24.989-18.359,24.989-18.359"/>
					</g>
					<path style="fill:#604040;" d="M563.566,449.973c-1.854-8.076-3.025-14.307-5.701-20.647
						c-1.696-4.167-0.953-13.207-0.638-21.401l-28.023,2.97c0,0-1.389,15.397-2.359,18.447c-1.87,5.884-5.147,10.85-9.966,14.711
						c-3.489,2.795-7.378,5.044-10.868,7.834c-1.79,1.431-4.892,4.029-2.917,6.506c9.23-1.448,23.941-3.115,36.884-5.135
						c1.076-0.168,3.964-4.564,3.964-4.564l4.753-3.792l0.812,7.029C549.507,451.93,560.403,450.456,563.566,449.973z"/>
					<path style="fill:#3F2524;" d="M511.858,458.323c-0.723-8.254-1.023-14.587-2.8-21.236c-1.106-4.361,0.877-13.213,2.319-21.285
						l-28.165-0.922c0,0-3.499,15.058-4.88,17.945c-2.664,5.57-6.594,10.036-11.899,13.196c-3.841,2.288-8.003,3.979-11.844,6.261
						c-1.97,1.171-5.401,3.316-3.786,6.041c9.342-0.161,24.142,0.216,37.24,0c1.088-0.018,4.556-3.974,4.556-3.974l5.231-3.1
						l-0.165,7.074C497.664,458.323,508.659,458.365,511.858,458.323z"/>
					<path style="fill:#EFA084;" d="M590.966,216.221l0.552,14.703c0,0,26.092-1.705,25.531-2.344
						c-0.561-0.639-2.946-19.374-2.946-19.374"/>
					<path style="fill:#CE9989;" d="M556.186,308.067c0,0-3.03,3.26-7.544,5.016c-4.514,1.755-42.164,11.285-51.928,32.351
						c-9.764,21.065-23.306,83.008-23.306,83.008l85.767-5.243l6.604-61.501c0,0,31.445,0,41.511,0s21.366-12.568,20.112-37.719"/>
					<path style="fill:#FFD18D;" d="M615.441,218.06c0,0,7.802,10.06,9.826,13.68c4.239,7.58,8.228,16.361,8.151,25.164
						c-0.106,11.991-1.63,24.001-2.786,35.92c-0.269,2.769-5.481,34.963-4.373,34.875c0,0-36.048,2.903-52.744-1.452
						c-16.696-4.355-27.349-13.025-27.349-13.025s12.543-13.337,14.655-22.396c2.112-9.059,10.075-40.577,12.991-46.589
						s14.673-16.034,14.673-16.034L615.441,218.06z"/>
					<g>
						<path style="fill:#EFA084;" d="M521.625,306.792c-7.505,4.049-14.125,10.035-17.483,15.076
							c-1.341,2.013-2.546,4.334-3.184,6.649c-0.295,1.069-0.611,4.143-0.349,5.225c0.28,1.156,1.957,4.665,1.957,4.665
							s-0.046,0.822,0.452,2.475c0.498,1.652,0.359,3.388,1.328,3.24c0.968-0.149,1.614-0.77,1.936-1.209
							c1.734,0.183,3.05,0.223,4.019-1.403c-0.02,0.38,0.736,0.576,1.119,0.483c0.383-0.092,1.092-0.672,1.343-0.964
							c1.467-1.709,2.92-3.452,4.427-5.142c2.808-3.15,4.886-4.341,8.511-6.564c2.511-1.539,6.276-4.528,8.119-6.774"/>
						<path style="fill:none;stroke:#000000;stroke-miterlimit:10;" d="M510.301,341.509c-0.158-0.423,1.231-4.625,1.926-5.944
							c1.243-2.356,4.219-5.697,4.219-5.697"/>
						<path style="fill:none;stroke:#000000;stroke-miterlimit:10;" d="M506.282,342.912c0,0,0.859-6.364,1.779-9.244
							c0.92-2.88,3.722-6.443,3.722-6.443"/>
						<path style="fill:none;stroke:#000000;stroke-miterlimit:10;" d="M502.597,339.3c0,0,0.46-5.965,1.096-8.216
							c0.635-2.251,3.773-7.504,3.773-7.504"/>
					</g>
					<path style="fill:#FFD18D;" d="M607.788,220.94c-11.721,2.438-25.345,6.176-32.169,16.012
						c-6.978,10.06-14.145,23.204-20.597,33.61c-10.984,17.716-41.909,41.51-41.909,41.51l17.013,16.306
						c0,0,40.723-17.226,48.731-26.514c12.69-14.719,16.73-32.156,22.858-50.598"/>
					<path style="fill:none;stroke:#000000;stroke-miterlimit:10;" d="M553.524,317.601c10.589-5.258,21.571-11.374,25.334-15.738
						c12.69-14.719,16.73-32.156,22.858-50.598"/>
					<path style="fill:none;stroke:#000000;stroke-miterlimit:10;" d="M550.509,279.364c4.273,0.076,8.535,0.68,12.661,1.795"/>
					<path style="fill:none;stroke:#000000;stroke-miterlimit:10;" d="M556.367,275.733c4.081-0.504,8.259-0.203,12.225,0.881"/>
					<path style="fill:none;stroke:#000000;stroke-miterlimit:10;" d="M565.72,362.411c-3.444-0.115-6.759,1.294-9.747,3.009
						s-5.796,3.768-8.954,5.147"/>
					<path style="fill:none;stroke:#000000;stroke-miterlimit:10;" d="M511.858,407.115c10.43-4.67,21.112-9.582,29.008-17.844"/>
					<path style="fill:none;stroke:#000000;stroke-miterlimit:10;" d="M533.013,409.943c6.776-6.407,12.4-14.029,16.524-22.393"/>
				</g>
				<g>
					<path style="fill:#EFA084;" d="M626.16,206.675c1.937-3.596,3.058-7.538,2.991-11.397c-0.142-8.163-3.731-16.73-11.315-20.6
						c-0.981-0.501-2.008-0.909-3.064-1.222c-4.023-1.193-8.452-0.924-12.315,0.47c-4.266,1.539-7.984,4.533-10.435,8.348
						c-2.154,3.353-3.314,7.235-4.347,11.083c-1.062,3.957-2.019,7.943-2.868,11.951c-0.737,3.481-1.309,7.42,0.731,10.335
						c1.605,2.294,2.734,2.87,5.43,3.623c5.856,1.636,12.722-1.529,18.638-3.425C615.82,213.85,622.856,212.806,626.16,206.675z"/>
					<path style="fill:#EFA084;" d="M587.571,194.298c-0.329,1.394-0.933,2.717-1.774,3.892c-0.779,1.089-1.882,1.941-2.543,3.11
						c-0.177,0.313-0.326,0.669-0.228,1.027c0.304,1.116,2.314,2.146,3.353,2.598"/>
					<path style="fill:#FFFFFF;" d="M587.717,206.425c-0.116,2.189-0.06,5.641,2.063,5.266c1.961-0.347,2.851-4.909,2.851-4.909
						L587.717,206.425z"/>
					<path d="M591.715,197.652c-0.233,0.832,0.054,1.64,0.64,1.804c0.586,0.164,1.25-0.378,1.482-1.211
						c0.232-0.832-0.054-1.64-0.641-1.804C592.611,196.277,591.948,196.819,591.715,197.652z"/>
					<path style="fill:none;stroke:#000000;stroke-linejoin:round;stroke-miterlimit:10;" d="M596.785,197.109
						c-1.089-1.863-3.516-4.977-6.072-3.524"/>
					<path style="fill:none;stroke:#000000;stroke-linejoin:round;stroke-miterlimit:10;" d="M599.644,218.99
						c-1.22,0.566-5.895,1.156-8.675,0.731"/>
					<path style="fill:#3F2524;" d="M646.016,236.128c0.31-2.27,0.569-4.533,0.161-6.772c-0.741-4.074-3.554-7.404-5.574-11.019
						c-2.296-4.11-3.07-8.266-3.782-12.837c-0.527-3.386-1.41-6.73-1.808-10.191c-0.801-6.971-1.433-14.347-6.951-19.377
						c-3.956-3.606-9.867-3.544-14.795-4.264c-3.912-0.572-7.539-2.097-11.389-2.949c-2.957-0.654-6.175-0.731-8.865,0.706
						c-2.15,1.148-3.812,3.245-4.488,5.66c-0.94,3.357,0.41,7.007,1.717,10.056c2.189-2.271,5.86-4.862,9.474-4.942
						c-0.687,0.015-1.117,5.987-1.121,6.615c-0.015,2.614,0.698,5.238,2.071,7.431c1.109,1.772,2.623,3.274,3.502,5.181
						c1.673,3.632,0.707,8.03-1.129,11.576c-0.867,1.674-1.931,3.28-2.36,5.129c-0.944,4.066,1.392,8.166,4.079,11.276
						c2.687,3.11,5.914,5.923,7.385,9.815c2.025,5.36,0.31,11.765,2.779,16.92c0.867,1.81,2.199,3.335,3.638,4.693
						c0.89,0.84,1.872,1.556,2.92,2.149c8.946,5.063,25.88,0.005,24.864-12.106c-0.188-2.239-0.756-4.439-0.841-6.684
						C645.425,240.171,645.741,238.146,646.016,236.128z"/>
					<path style="fill:none;stroke:#2B1717;stroke-miterlimit:10;" d="M607.854,190.022c2.792,4.142,5.709,8.745,5.2,13.715
						c-0.266,2.596-1.454,4.99-2.329,7.448c-0.875,2.458-1.433,5.223-0.442,7.636c0.656,1.596,1.914,2.85,2.998,4.194
						c2.707,3.357,4.428,7.499,4.895,11.786"/>
					<path style="fill:none;stroke:#2B1717;stroke-miterlimit:10;" d="M624.024,214.699c-1.326,4.11,0.446,8.569,2.688,12.261
						c2.241,3.692,5.034,7.195,6.017,11.401c1.039,4.442-0.088,9.104-1.67,13.383"/>
					<path style="fill:none;stroke:#2B1717;stroke-miterlimit:10;" d="M626.046,187.275c3.172,3.273,3.483,8.322,3.244,12.873
						c-0.365,6.944-0.217,15.823,3.495,21.971c1.417,2.348,3.408,4.317,4.746,6.711c1.542,2.756,2.148,6.025,1.696,9.15"/>
					<g>
						<path style="fill:#EFA084;" d="M601.384,199.165c1.769-1.215,4.175-1.447,5.292-1.026c2.545,0.96,2.646,4.39,2.005,6.666
							c-0.713,2.531-2.767,4.772-5.363,5.265c-1.766,0.335-4.416-0.98-4.303-4.262"/>
						<path style="fill:none;stroke:#000000;stroke-linejoin:round;stroke-miterlimit:10;" d="M606.355,202.275
							c-2.171,0.587-3.42,1.469-5.481,2.373"/>
						<path style="fill:none;stroke:#000000;stroke-linejoin:round;stroke-miterlimit:10;" d="M604.52,209.724
							c-1.718,0.678-3.802,0.24-4.796-1.451c-0.311-0.529-0.497-1.108-0.695-1.686"/>
						<path style="fill:#FFFFFF;" d="M601.891,209.568c-0.331,0.727-1.189,1.048-1.916,0.717c-0.727-0.331-1.048-1.189-0.717-1.916
							c0.331-0.727,1.189-1.048,1.916-0.717C601.901,207.983,602.222,208.841,601.891,209.568z"/>
						<path style="fill:none;stroke:#000000;stroke-linejoin:round;stroke-miterlimit:10;" d="M605.411,197.731
							c-1.336-0.15-3.308,0.6-4.63,1.755"/>
					</g>
				</g>
			</g>
			<g>
				<g>
					
						<line style="fill:none;stroke:#B24B42;stroke-width:1.5;stroke-miterlimit:10;" x1="574.253" y1="376.057" x2="563.456" y2="458.391"/>
					
						<line style="fill:none;stroke:#B24B42;stroke-width:1.5;stroke-miterlimit:10;" x1="556.186" y1="376.057" x2="537.771" y2="458.391"/>
					
						<line style="fill:none;stroke:#B24B42;stroke-width:1.5;stroke-miterlimit:10;" x1="610.713" y1="376.057" x2="621.51" y2="458.391"/>
					
						<line style="fill:none;stroke:#B24B42;stroke-width:1.5;stroke-miterlimit:10;" x1="628.78" y1="376.057" x2="647.194" y2="458.391"/>
				</g>
				<path style="fill:#B24B42;" d="M549.167,361.698h29.029l19.485-64.674c4.442-14.744,18.021-24.835,33.42-24.835
					c0,0,21.318,0,41.389,0c19.007,0-0.822,70.169-25.964,102.338c-2.479,3.171-6.272,5.028-10.297,5.028h-93.907
					c-2.694,0-4.655-2.555-3.958-5.158l1.485-5.547C540.978,364.631,544.8,361.698,549.167,361.698z"/>
				<path style="fill:none;stroke:#E07873;stroke-miterlimit:10;" d="M638.842,276.737c-14.616,0-27.505,9.578-31.722,23.573
					l-20.107,57.405c-0.836,2.386-3.088,3.984-5.617,3.984h-3.201"/>
			</g>
			<g>
				
					<line style="fill:none;stroke:#000000;stroke-linejoin:round;stroke-miterlimit:10;" x1="579.17" y1="200.834" x2="564.644" y2="190.566"/>
				
					<line style="fill:none;stroke:#000000;stroke-linejoin:round;stroke-miterlimit:10;" x1="575.06" y1="208.294" x2="557.038" y2="202.096"/>
				
					<line style="fill:none;stroke:#000000;stroke-linejoin:round;stroke-miterlimit:10;" x1="573.381" y1="215.708" x2="556.179" y2="216.809"/>
			</g>
		</g>
	</g>
	<g>
		<g>
			<path style="fill:#C6D4F4;" d="M686.87,139.034h-47.436c-2.751,0-4.981,2.23-4.981,4.981v18.095c0,2.751,2.23,4.981,4.981,4.981
				h5.568l-3.239,6.549c-0.321,0.65,0.356,1.341,1.012,1.032l16.102-7.581h27.992c2.751,0,4.981-2.23,4.981-4.981v-18.095
				C691.852,141.264,689.621,139.034,686.87,139.034z"/>
			<path style="fill:#FFFFFF;" d="M677.729,153.654c0,1.148,0.93,2.078,2.078,2.078c1.148,0,2.078-0.93,2.078-2.078
				c0-1.148-0.93-2.078-2.078-2.078C678.659,151.576,677.729,152.506,677.729,153.654z"/>
			<circle style="fill:#FFFFFF;" cx="663.153" cy="153.654" r="2.078"/>
			<path style="fill:#FFFFFF;" d="M644.421,153.654c0,1.148,0.93,2.078,2.078,2.078c1.148,0,2.078-0.93,2.078-2.078
				c0-1.148-0.93-2.078-2.078-2.078C645.351,151.576,644.421,152.506,644.421,153.654z"/>
		</g>
		<g>
			<path style="fill:#C6D4F4;" d="M100.766,71.752h66.877c3.878,0,7.022,3.144,7.022,7.023v25.511c0,3.879-3.144,7.023-7.022,7.023
				h-7.85l4.566,9.234c0.453,0.916-0.503,1.89-1.427,1.455l-22.702-10.688h-39.464c-3.879,0-7.023-3.144-7.023-7.023V78.774
				C93.744,74.896,96.888,71.752,100.766,71.752z"/>
			<circle style="fill:#FFFFFF;" cx="122.008" cy="91.938" r="2.078"/>
			<circle style="fill:#FFFFFF;" cx="138.662" cy="91.938" r="2.078"/>
			<path style="fill:#FFFFFF;" d="M157.394,91.938c0,1.147-0.93,2.078-2.078,2.078c-1.148,0-2.078-0.93-2.078-2.078
				c0-1.148,0.93-2.078,2.078-2.078C156.463,89.86,157.394,90.79,157.394,91.938z"/>
		</g>
		<g>
			<path style="fill:#FFD18D;" d="M312.478,41.122h-57.99c-3.551,0-6.429,2.878-6.429,6.429v23.354c0,3.551,2.878,6.429,6.429,6.429
				h7.186l-4.18,8.453c-0.415,0.839,0.46,1.73,1.306,1.332l20.782-9.785h32.895c3.551,0,6.429-2.878,6.429-6.429V47.551
				C318.906,44,316.028,41.122,312.478,41.122z"/>
			<circle style="fill:#FFFFFF;" cx="299.602" cy="57.463" r="2.078"/>
			<circle style="fill:#FFFFFF;" cx="282.948" cy="57.463" r="2.078"/>
			<circle style="fill:#FFFFFF;" cx="266.295" cy="57.463" r="2.078"/>
		</g>
	</g>
	
		<line style="fill:none;stroke:#A0B3EA;stroke-width:1.5;stroke-miterlimit:10;" x1="43.353" y1="458.391" x2="706.647" y2="458.391"/>
</g>
</svg>
