<svg xmlns="http://www.w3.org/2000/svg" xmlns:xlink="http://www.w3.org/1999/xlink" width="302" zoomAndPan="magnify" viewBox="0 0 226.5 84.749999" height="113" preserveAspectRatio="xMidYMid meet" version="1.0"><defs><g/></defs><g fill="#000000" fill-opacity="1"><g transform="translate(6.977489, 38.878988)"><g><path d="M 15.796875 0 L 7.84375 -10.4375 L 7.84375 0 L 2.09375 0 L 2.09375 -23.640625 L 7.84375 -23.640625 L 7.84375 -13.265625 L 15.71875 -23.640625 L 22.5 -23.640625 L 13.328125 -12.046875 L 22.828125 0 Z M 15.796875 0 "/></g></g></g><g fill="#000000" fill-opacity="1"><g transform="translate(30.433895, 38.878988)"><g><path d="M 0.9375 -9.421875 C 0.9375 -11.359375 1.300781 -13.054688 2.03125 -14.515625 C 2.757812 -15.972656 3.753906 -17.09375 5.015625 -17.875 C 6.273438 -18.664062 7.675781 -19.0625 9.21875 -19.0625 C 10.550781 -19.0625 11.710938 -18.789062 12.703125 -18.25 C 13.703125 -17.707031 14.472656 -17 15.015625 -16.125 L 15.015625 -18.78125 L 20.78125 -18.78125 L 20.78125 0 L 15.015625 0 L 15.015625 -2.65625 C 14.453125 -1.78125 13.671875 -1.070312 12.671875 -0.53125 C 11.671875 0 10.507812 0.265625 9.1875 0.265625 C 7.664062 0.265625 6.273438 -0.128906 5.015625 -0.921875 C 3.753906 -1.722656 2.757812 -2.859375 2.03125 -4.328125 C 1.300781 -5.796875 0.9375 -7.492188 0.9375 -9.421875 Z M 15.015625 -9.390625 C 15.015625 -10.828125 14.613281 -11.960938 13.8125 -12.796875 C 13.019531 -13.628906 12.050781 -14.046875 10.90625 -14.046875 C 9.757812 -14.046875 8.785156 -13.632812 7.984375 -12.8125 C 7.191406 -11.988281 6.796875 -10.859375 6.796875 -9.421875 C 6.796875 -7.984375 7.191406 -6.84375 7.984375 -6 C 8.785156 -5.164062 9.757812 -4.75 10.90625 -4.75 C 12.050781 -4.75 13.019531 -5.160156 13.8125 -5.984375 C 14.613281 -6.816406 15.015625 -7.953125 15.015625 -9.390625 Z M 15.015625 -9.390625 "/></g></g></g><g fill="#000000" fill-opacity="1"><g transform="translate(53.28453, 38.878988)"><g><path d="M 4.984375 -20.734375 C 3.972656 -20.734375 3.144531 -21.03125 2.5 -21.625 C 1.863281 -22.226562 1.546875 -22.96875 1.546875 -23.84375 C 1.546875 -24.738281 1.863281 -25.484375 2.5 -26.078125 C 3.144531 -26.671875 3.972656 -26.96875 4.984375 -26.96875 C 5.972656 -26.96875 6.785156 -26.671875 7.421875 -26.078125 C 8.066406 -25.484375 8.390625 -24.738281 8.390625 -23.84375 C 8.390625 -22.96875 8.066406 -22.226562 7.421875 -21.625 C 6.785156 -21.03125 5.972656 -20.734375 4.984375 -20.734375 Z M 7.84375 -18.78125 L 7.84375 0 L 2.09375 0 L 2.09375 -18.78125 Z M 7.84375 -18.78125 "/></g></g></g><g fill="#000000" fill-opacity="1"><g transform="translate(63.212273, 38.878988)"><g><path d="M 9.734375 0.265625 C 8.085938 0.265625 6.625 -0.015625 5.34375 -0.578125 C 4.070312 -1.140625 3.066406 -1.90625 2.328125 -2.875 C 1.585938 -3.851562 1.171875 -4.945312 1.078125 -6.15625 L 6.765625 -6.15625 C 6.835938 -5.507812 7.140625 -4.984375 7.671875 -4.578125 C 8.210938 -4.171875 8.875 -3.96875 9.65625 -3.96875 C 10.375 -3.96875 10.929688 -4.109375 11.328125 -4.390625 C 11.722656 -4.671875 11.921875 -5.035156 11.921875 -5.484375 C 11.921875 -6.023438 11.640625 -6.425781 11.078125 -6.6875 C 10.515625 -6.945312 9.601562 -7.234375 8.34375 -7.546875 C 7 -7.859375 5.878906 -8.1875 4.984375 -8.53125 C 4.085938 -8.882812 3.3125 -9.4375 2.65625 -10.1875 C 2.007812 -10.9375 1.6875 -11.953125 1.6875 -13.234375 C 1.6875 -14.304688 1.984375 -15.285156 2.578125 -16.171875 C 3.171875 -17.066406 4.046875 -17.769531 5.203125 -18.28125 C 6.359375 -18.800781 7.734375 -19.0625 9.328125 -19.0625 C 11.679688 -19.0625 13.535156 -18.476562 14.890625 -17.3125 C 16.253906 -16.144531 17.035156 -14.59375 17.234375 -12.65625 L 11.921875 -12.65625 C 11.828125 -13.3125 11.539062 -13.828125 11.0625 -14.203125 C 10.582031 -14.585938 9.945312 -14.78125 9.15625 -14.78125 C 8.488281 -14.78125 7.972656 -14.648438 7.609375 -14.390625 C 7.253906 -14.128906 7.078125 -13.773438 7.078125 -13.328125 C 7.078125 -12.796875 7.359375 -12.394531 7.921875 -12.125 C 8.492188 -11.851562 9.390625 -11.582031 10.609375 -11.3125 C 11.992188 -10.957031 13.125 -10.601562 14 -10.25 C 14.882812 -9.90625 15.65625 -9.34375 16.3125 -8.5625 C 16.976562 -7.789062 17.320312 -6.753906 17.34375 -5.453125 C 17.34375 -4.359375 17.03125 -3.378906 16.40625 -2.515625 C 15.789062 -1.648438 14.90625 -0.96875 13.75 -0.46875 C 12.59375 0.0195312 11.253906 0.265625 9.734375 0.265625 Z M 9.734375 0.265625 "/></g></g></g><g fill="#000000" fill-opacity="1"><g transform="translate(81.990839, 38.878988)"><g><path d="M 0.9375 -9.421875 C 0.9375 -11.359375 1.300781 -13.054688 2.03125 -14.515625 C 2.757812 -15.972656 3.753906 -17.09375 5.015625 -17.875 C 6.273438 -18.664062 7.675781 -19.0625 9.21875 -19.0625 C 10.550781 -19.0625 11.710938 -18.789062 12.703125 -18.25 C 13.703125 -17.707031 14.472656 -17 15.015625 -16.125 L 15.015625 -18.78125 L 20.78125 -18.78125 L 20.78125 0 L 15.015625 0 L 15.015625 -2.65625 C 14.453125 -1.78125 13.671875 -1.070312 12.671875 -0.53125 C 11.671875 0 10.507812 0.265625 9.1875 0.265625 C 7.664062 0.265625 6.273438 -0.128906 5.015625 -0.921875 C 3.753906 -1.722656 2.757812 -2.859375 2.03125 -4.328125 C 1.300781 -5.796875 0.9375 -7.492188 0.9375 -9.421875 Z M 15.015625 -9.390625 C 15.015625 -10.828125 14.613281 -11.960938 13.8125 -12.796875 C 13.019531 -13.628906 12.050781 -14.046875 10.90625 -14.046875 C 9.757812 -14.046875 8.785156 -13.632812 7.984375 -12.8125 C 7.191406 -11.988281 6.796875 -10.859375 6.796875 -9.421875 C 6.796875 -7.984375 7.191406 -6.84375 7.984375 -6 C 8.785156 -5.164062 9.757812 -4.75 10.90625 -4.75 C 12.050781 -4.75 13.019531 -5.160156 13.8125 -5.984375 C 14.613281 -6.816406 15.015625 -7.953125 15.015625 -9.390625 Z M 15.015625 -9.390625 "/></g></g></g><g fill="#000000" fill-opacity="1"><g transform="translate(104.841474, 38.878988)"><g><path d="M 7.84375 -15.65625 C 8.519531 -16.6875 9.363281 -17.5 10.375 -18.09375 C 11.382812 -18.6875 12.503906 -18.984375 13.734375 -18.984375 L 13.734375 -12.890625 L 12.15625 -12.890625 C 10.71875 -12.890625 9.640625 -12.582031 8.921875 -11.96875 C 8.203125 -11.351562 7.84375 -10.269531 7.84375 -8.71875 L 7.84375 0 L 2.09375 0 L 2.09375 -18.78125 L 7.84375 -18.78125 Z M 7.84375 -15.65625 "/></g></g></g><g fill="#000000" fill-opacity="1"><g transform="translate(119.24511, 38.878988)"><g/></g></g><g fill="#000000" fill-opacity="1"><g transform="translate(126.379627, 38.878988)"><g><path d="M 16.796875 -4.171875 L 7.984375 -4.171875 L 6.5625 0 L 0.53125 0 L 9.09375 -23.640625 L 15.765625 -23.640625 L 24.3125 0 L 18.21875 0 Z M 15.328125 -8.625 L 12.390625 -17.28125 L 9.5 -8.625 Z M 15.328125 -8.625 "/></g></g></g><g fill="#000000" fill-opacity="1"><g transform="translate(151.182154, 38.878988)"><g><path d="M 13.5625 0 L 7.84375 -7.875 L 7.84375 0 L 2.09375 0 L 2.09375 -24.921875 L 7.84375 -24.921875 L 7.84375 -11.140625 L 13.53125 -18.78125 L 20.640625 -18.78125 L 12.828125 -9.359375 L 20.703125 0 Z M 13.5625 0 "/></g></g></g><g fill="#000000" fill-opacity="1"><g transform="translate(171.979935, 38.878988)"><g><path d="M 13.640625 -18.984375 C 15.796875 -18.984375 17.523438 -18.269531 18.828125 -16.84375 C 20.128906 -15.425781 20.78125 -13.472656 20.78125 -10.984375 L 20.78125 0 L 15.046875 0 L 15.046875 -10.203125 C 15.046875 -11.460938 14.71875 -12.4375 14.0625 -13.125 C 13.414062 -13.820312 12.546875 -14.171875 11.453125 -14.171875 C 10.347656 -14.171875 9.46875 -13.820312 8.8125 -13.125 C 8.164062 -12.4375 7.84375 -11.460938 7.84375 -10.203125 L 7.84375 0 L 2.09375 0 L 2.09375 -24.921875 L 7.84375 -24.921875 L 7.84375 -16.265625 C 8.425781 -17.097656 9.222656 -17.757812 10.234375 -18.25 C 11.242188 -18.738281 12.378906 -18.984375 13.640625 -18.984375 Z M 13.640625 -18.984375 "/></g></g></g><g fill="#000000" fill-opacity="1"><g transform="translate(194.662308, 38.878988)"><g><path d="M 4.984375 -20.734375 C 3.972656 -20.734375 3.144531 -21.03125 2.5 -21.625 C 1.863281 -22.226562 1.546875 -22.96875 1.546875 -23.84375 C 1.546875 -24.738281 1.863281 -25.484375 2.5 -26.078125 C 3.144531 -26.671875 3.972656 -26.96875 4.984375 -26.96875 C 5.972656 -26.96875 6.785156 -26.671875 7.421875 -26.078125 C 8.066406 -25.484375 8.390625 -24.738281 8.390625 -23.84375 C 8.390625 -22.96875 8.066406 -22.226562 7.421875 -21.625 C 6.785156 -21.03125 5.972656 -20.734375 4.984375 -20.734375 Z M 7.84375 -18.78125 L 7.84375 0 L 2.09375 0 L 2.09375 -18.78125 Z M 7.84375 -18.78125 "/></g></g></g><g fill="#000000" fill-opacity="1"><g transform="translate(204.590051, 38.878988)"><g><path d="M 7.84375 -15.65625 C 8.519531 -16.6875 9.363281 -17.5 10.375 -18.09375 C 11.382812 -18.6875 12.503906 -18.984375 13.734375 -18.984375 L 13.734375 -12.890625 L 12.15625 -12.890625 C 10.71875 -12.890625 9.640625 -12.582031 8.921875 -11.96875 C 8.203125 -11.351562 7.84375 -10.269531 7.84375 -8.71875 L 7.84375 0 L 2.09375 0 L 2.09375 -18.78125 L 7.84375 -18.78125 Z M 7.84375 -15.65625 "/></g></g></g><g fill="#000000" fill-opacity="1"><g transform="translate(25.098942, 66.439109)"><g><path d="M 12.234375 0 L 4.515625 -8.546875 L 4.515625 0 L 2.0625 0 L 2.0625 -18.734375 L 4.515625 -18.734375 L 4.515625 -10.046875 L 12.25 -18.734375 L 15.34375 -18.734375 L 6.859375 -9.359375 L 15.421875 0 Z M 12.234375 0 "/></g></g></g><g fill="#000000" fill-opacity="1"><g transform="translate(41.197918, 66.439109)"><g><path d="M 15.5 -7.921875 C 15.5 -7.460938 15.472656 -6.972656 15.421875 -6.453125 L 3.65625 -6.453125 C 3.75 -4.992188 4.242188 -3.859375 5.140625 -3.046875 C 6.046875 -2.234375 7.144531 -1.828125 8.4375 -1.828125 C 9.5 -1.828125 10.378906 -2.070312 11.078125 -2.5625 C 11.785156 -3.0625 12.285156 -3.722656 12.578125 -4.546875 L 15.21875 -4.546875 C 14.820312 -3.128906 14.03125 -1.976562 12.84375 -1.09375 C 11.664062 -0.207031 10.195312 0.234375 8.4375 0.234375 C 7.039062 0.234375 5.789062 -0.078125 4.6875 -0.703125 C 3.582031 -1.328125 2.71875 -2.21875 2.09375 -3.375 C 1.46875 -4.53125 1.15625 -5.867188 1.15625 -7.390625 C 1.15625 -8.910156 1.457031 -10.242188 2.0625 -11.390625 C 2.675781 -12.535156 3.53125 -13.414062 4.625 -14.03125 C 5.726562 -14.65625 7 -14.96875 8.4375 -14.96875 C 9.832031 -14.96875 11.066406 -14.660156 12.140625 -14.046875 C 13.222656 -13.441406 14.050781 -12.601562 14.625 -11.53125 C 15.207031 -10.46875 15.5 -9.265625 15.5 -7.921875 Z M 12.984375 -8.4375 C 12.984375 -9.375 12.773438 -10.175781 12.359375 -10.84375 C 11.953125 -11.519531 11.394531 -12.03125 10.6875 -12.375 C 9.976562 -12.726562 9.191406 -12.90625 8.328125 -12.90625 C 7.097656 -12.90625 6.046875 -12.507812 5.171875 -11.71875 C 4.304688 -10.925781 3.8125 -9.832031 3.6875 -8.4375 Z M 12.984375 -8.4375 "/></g></g></g><g fill="#000000" fill-opacity="1"><g transform="translate(57.861295, 66.439109)"><g><path d="M 5.046875 -12.71875 L 5.046875 -4.03125 C 5.046875 -3.3125 5.195312 -2.800781 5.5 -2.5 C 5.8125 -2.207031 6.34375 -2.0625 7.09375 -2.0625 L 8.890625 -2.0625 L 8.890625 0 L 6.6875 0 C 5.332031 0 4.3125 -0.3125 3.625 -0.9375 C 2.945312 -1.5625 2.609375 -2.59375 2.609375 -4.03125 L 2.609375 -12.71875 L 0.703125 -12.71875 L 0.703125 -14.734375 L 2.609375 -14.734375 L 2.609375 -18.4375 L 5.046875 -18.4375 L 5.046875 -14.734375 L 8.890625 -14.734375 L 8.890625 -12.71875 Z M 5.046875 -12.71875 "/></g></g></g><g fill="#000000" fill-opacity="1"><g transform="translate(67.644305, 66.439109)"><g><path d="M 15.125 -14.734375 L 15.125 0 L 12.6875 0 L 12.6875 -2.171875 C 12.21875 -1.421875 11.566406 -0.832031 10.734375 -0.40625 C 9.898438 0.0078125 8.984375 0.21875 7.984375 0.21875 C 6.835938 0.21875 5.804688 -0.015625 4.890625 -0.484375 C 3.972656 -0.960938 3.25 -1.675781 2.71875 -2.625 C 2.195312 -3.582031 1.9375 -4.738281 1.9375 -6.09375 L 1.9375 -14.734375 L 4.359375 -14.734375 L 4.359375 -6.421875 C 4.359375 -4.972656 4.722656 -3.859375 5.453125 -3.078125 C 6.191406 -2.296875 7.195312 -1.90625 8.46875 -1.90625 C 9.769531 -1.90625 10.796875 -2.304688 11.546875 -3.109375 C 12.304688 -3.921875 12.6875 -5.097656 12.6875 -6.640625 L 12.6875 -14.734375 Z M 15.125 -14.734375 "/></g></g></g><g fill="#000000" fill-opacity="1"><g transform="translate(84.845222, 66.439109)"><g><path d="M 1.15625 -7.421875 C 1.15625 -8.921875 1.457031 -10.238281 2.0625 -11.375 C 2.675781 -12.519531 3.515625 -13.40625 4.578125 -14.03125 C 5.648438 -14.65625 6.835938 -14.96875 8.140625 -14.96875 C 9.429688 -14.96875 10.550781 -14.6875 11.5 -14.125 C 12.445312 -13.570312 13.15625 -12.878906 13.625 -12.046875 L 13.625 -14.734375 L 16.09375 -14.734375 L 16.09375 0 L 13.625 0 L 13.625 -2.734375 C 13.144531 -1.878906 12.425781 -1.171875 11.46875 -0.609375 C 10.507812 -0.046875 9.390625 0.234375 8.109375 0.234375 C 6.804688 0.234375 5.625 -0.0820312 4.5625 -0.71875 C 3.507812 -1.363281 2.675781 -2.269531 2.0625 -3.4375 C 1.457031 -4.601562 1.15625 -5.929688 1.15625 -7.421875 Z M 13.625 -7.390625 C 13.625 -8.503906 13.398438 -9.472656 12.953125 -10.296875 C 12.503906 -11.117188 11.898438 -11.75 11.140625 -12.1875 C 10.378906 -12.625 9.539062 -12.84375 8.625 -12.84375 C 7.707031 -12.84375 6.875 -12.628906 6.125 -12.203125 C 5.375 -11.773438 4.773438 -11.144531 4.328125 -10.3125 C 3.878906 -9.488281 3.65625 -8.523438 3.65625 -7.421875 C 3.65625 -6.285156 3.878906 -5.300781 4.328125 -4.46875 C 4.773438 -3.632812 5.375 -3 6.125 -2.5625 C 6.875 -2.125 7.707031 -1.90625 8.625 -1.90625 C 9.539062 -1.90625 10.378906 -2.125 11.140625 -2.5625 C 11.898438 -3 12.503906 -3.632812 12.953125 -4.46875 C 13.398438 -5.300781 13.625 -6.273438 13.625 -7.390625 Z M 13.625 -7.390625 "/></g></g></g><g fill="#000000" fill-opacity="1"><g transform="translate(103.013696, 66.439109)"><g/></g></g><g fill="#000000" fill-opacity="1"><g transform="translate(110.189694, 66.439109)"><g><path d="M 4.46875 -18.734375 L 4.46875 -6.875 C 4.46875 -5.207031 4.875 -3.972656 5.6875 -3.171875 C 6.5 -2.367188 7.628906 -1.96875 9.078125 -1.96875 C 10.515625 -1.96875 11.640625 -2.367188 12.453125 -3.171875 C 13.265625 -3.972656 13.671875 -5.207031 13.671875 -6.875 L 13.671875 -18.734375 L 16.125 -18.734375 L 16.125 -6.90625 C 16.125 -5.34375 15.8125 -4.03125 15.1875 -2.96875 C 14.5625 -1.90625 13.710938 -1.113281 12.640625 -0.59375 C 11.578125 -0.0703125 10.382812 0.1875 9.0625 0.1875 C 7.726562 0.1875 6.53125 -0.0703125 5.46875 -0.59375 C 4.40625 -1.113281 3.5625 -1.90625 2.9375 -2.96875 C 2.320312 -4.03125 2.015625 -5.34375 2.015625 -6.90625 L 2.015625 -18.734375 Z M 4.46875 -18.734375 "/></g></g></g><g fill="#000000" fill-opacity="1"><g transform="translate(128.33128, 66.439109)"><g><path d="M 19.78125 -15 C 20.925781 -15 21.945312 -14.757812 22.84375 -14.28125 C 23.738281 -13.8125 24.445312 -13.097656 24.96875 -12.140625 C 25.488281 -11.191406 25.75 -10.039062 25.75 -8.6875 L 25.75 0 L 23.328125 0 L 23.328125 -8.328125 C 23.328125 -9.796875 22.960938 -10.921875 22.234375 -11.703125 C 21.515625 -12.484375 20.535156 -12.875 19.296875 -12.875 C 18.023438 -12.875 17.007812 -12.460938 16.25 -11.640625 C 15.5 -10.828125 15.125 -9.648438 15.125 -8.109375 L 15.125 0 L 12.71875 0 L 12.71875 -8.328125 C 12.71875 -9.796875 12.351562 -10.921875 11.625 -11.703125 C 10.894531 -12.484375 9.914062 -12.875 8.6875 -12.875 C 7.40625 -12.875 6.390625 -12.460938 5.640625 -11.640625 C 4.890625 -10.828125 4.515625 -9.648438 4.515625 -8.109375 L 4.515625 0 L 2.0625 0 L 2.0625 -14.734375 L 4.515625 -14.734375 L 4.515625 -12.609375 C 4.992188 -13.378906 5.640625 -13.96875 6.453125 -14.375 C 7.273438 -14.789062 8.179688 -15 9.171875 -15 C 10.398438 -15 11.488281 -14.71875 12.4375 -14.15625 C 13.394531 -13.601562 14.101562 -12.789062 14.5625 -11.71875 C 14.976562 -12.757812 15.660156 -13.566406 16.609375 -14.140625 C 17.554688 -14.710938 18.613281 -15 19.78125 -15 Z M 19.78125 -15 "/></g></g></g><g fill="#000000" fill-opacity="1"><g transform="translate(156.013994, 66.439109)"><g><path d="M 15.125 -14.734375 L 15.125 0 L 12.6875 0 L 12.6875 -2.171875 C 12.21875 -1.421875 11.566406 -0.832031 10.734375 -0.40625 C 9.898438 0.0078125 8.984375 0.21875 7.984375 0.21875 C 6.835938 0.21875 5.804688 -0.015625 4.890625 -0.484375 C 3.972656 -0.960938 3.25 -1.675781 2.71875 -2.625 C 2.195312 -3.582031 1.9375 -4.738281 1.9375 -6.09375 L 1.9375 -14.734375 L 4.359375 -14.734375 L 4.359375 -6.421875 C 4.359375 -4.972656 4.722656 -3.859375 5.453125 -3.078125 C 6.191406 -2.296875 7.195312 -1.90625 8.46875 -1.90625 C 9.769531 -1.90625 10.796875 -2.304688 11.546875 -3.109375 C 12.304688 -3.921875 12.6875 -5.097656 12.6875 -6.640625 L 12.6875 -14.734375 Z M 15.125 -14.734375 "/></g></g></g><g fill="#000000" fill-opacity="1"><g transform="translate(173.214911, 66.439109)"><g><path d="M 19.78125 -15 C 20.925781 -15 21.945312 -14.757812 22.84375 -14.28125 C 23.738281 -13.8125 24.445312 -13.097656 24.96875 -12.140625 C 25.488281 -11.191406 25.75 -10.039062 25.75 -8.6875 L 25.75 0 L 23.328125 0 L 23.328125 -8.328125 C 23.328125 -9.796875 22.960938 -10.921875 22.234375 -11.703125 C 21.515625 -12.484375 20.535156 -12.875 19.296875 -12.875 C 18.023438 -12.875 17.007812 -12.460938 16.25 -11.640625 C 15.5 -10.828125 15.125 -9.648438 15.125 -8.109375 L 15.125 0 L 12.71875 0 L 12.71875 -8.328125 C 12.71875 -9.796875 12.351562 -10.921875 11.625 -11.703125 C 10.894531 -12.484375 9.914062 -12.875 8.6875 -12.875 C 7.40625 -12.875 6.390625 -12.460938 5.640625 -11.640625 C 4.890625 -10.828125 4.515625 -9.648438 4.515625 -8.109375 L 4.515625 0 L 2.0625 0 L 2.0625 -14.734375 L 4.515625 -14.734375 L 4.515625 -12.609375 C 4.992188 -13.378906 5.640625 -13.96875 6.453125 -14.375 C 7.273438 -14.789062 8.179688 -15 9.171875 -15 C 10.398438 -15 11.488281 -14.71875 12.4375 -14.15625 C 13.394531 -13.601562 14.101562 -12.789062 14.5625 -11.71875 C 14.976562 -12.757812 15.660156 -13.566406 16.609375 -14.140625 C 17.554688 -14.710938 18.613281 -15 19.78125 -15 Z M 19.78125 -15 "/></g></g></g></svg>